<svg height="66" viewBox="0 0 208 66" width="208" xmlns="http://www.w3.org/2000/svg"><path d="m27.019 0-3.002 2-3.002-2-3.001 2-3.003-2-3.002 2-3.003-2v21h-3.001c-.555 0-1.002.447-1.002 1s.447 1 1.002 1h3.001 18.013 3.002c.554 0 1.001-.447 1.001-1s-.447-1-1.001-1h-3.002zm-6.004 2.403 1.892 1.261c.336.223.723.336 1.11.336.346 0 .692-.09 1.001-.268v17.268h-14.009v-17.268c.308.178.654.268 1 .268.386 0 .774-.113 1.109-.336l1.893-1.261 1.892 1.261c.336.223.723.336 1.111.336.386 0 .773-.113 1.108-.336zm8.006 5.596h-1.001v2h1.001 3.002c1.105 0 2.001.897 2.001 2.001v50c0 1.105-.896 2-2.001 2h-28.021c-1.104 0-2-.895-2-2v-50c0-1.104.896-2.001 2-2.001h3.009.994v-2h-.994-3.009c-2.206 0-4.002 1.795-4.002 4.001v50c0 2.206 1.796 4 4.002 4h28.021c2.207 0 4.003-1.794 4.003-4v-50c0-2.206-1.796-4.001-4.003-4.001zm55.164 7.488c-.238 0-.34.102-.34.339v22.439c0 .237.102.34.34.34h2.348c.238 0 .339-.103.339-.34v-8.772c0-.136.069-.204.205-.204h5.341c2.212 0 4.015-.611 5.342-1.869 1.326-1.258 2.007-2.958 2.007-5.032s-.681-3.74-2.007-4.997c-1.327-1.258-3.13-1.904-5.342-1.904zm2.687 3.025c0-.136.069-.203.205-.203h5.171c2.858 0 4.525 1.529 4.525 4.079 0 2.549-1.667 4.079-4.525 4.079h-5.171c-.136 0-.205-.068-.205-.203zm-34.635-3.025c-.239 0-.34.102-.34.339v2.143c0 .237.101.34.34.34h10.683v.034l-11.295 17.406c-.102.102-.136.237-.136.374v2.142c0 .237.102.34.339.34h14.221c.239 0 .341-.103.341-.34v-2.142c0-.238-.102-.34-.341-.34h-11.125v-.034l11.329-17.406c.103-.102.137-.238.137-.374v-2.143c0-.237-.102-.339-.341-.339zm150.115 1.7c-.239 0-.341.102-.341.339v4.59c0 .136-.068.204-.205.204h-1.36c-.238 0-.34.102-.34.34v1.632c0 .239.102.34.34.34h1.36c.137 0 .205.068.205.204v9.316c0 3.229 1.259 4.622 4.389 4.622h1.259c.237 0 .34-.101.34-.339v-1.972c0-.239-.103-.34-.34-.34h-.715c-1.497 0-2.075-.476-2.075-2.074v-9.213c0-.136.068-.204.204-.204h2.586c.237 0 .34-.101.34-.34v-1.632c0-.238-.103-.34-.34-.34h-2.586c-.136 0-.204-.068-.204-.204v-4.59c0-.237-.103-.339-.34-.339zm-16.333 6.969v-1.496c0-.238-.102-.34-.34-.34h-2.177c-.239 0-.34.102-.34.34v15.605c0 .237.101.34.34.34h2.177c.238 0 .34-.103.34-.34v-9.69c0-2.413 1.531-3.978 3.742-3.978 2.416 0 3.641 1.395 3.641 4.148v9.52c0 .237.103.34.34.34h2.177c.239 0 .34-.103.34-.34v-10.2c0-3.705-2.142-6.119-5.647-6.119-2.143 0-3.64.749-4.559 2.21zm-21.264 6.289c0 1.598.17 2.991.544 4.114.918 2.822 3.231 4.419 6.532 4.419 2.756 0 4.899-.918 6.362-2.788.137-.17.137-.339-.034-.475l-1.395-1.258c-.17-.136-.34-.103-.511.067-1.054 1.191-2.449 1.803-4.184 1.803-2.075 0-3.47-.952-4.116-2.822-.17-.578-.273-1.258-.273-1.971 0-.136.068-.205.204-.205h10.309c.238 0 .374-.101.374-.34 0-2.074-.17-3.604-.51-4.657-.919-2.753-3.266-4.386-6.396-4.386-3.131 0-5.477 1.564-6.396 4.386-.34.985-.51 2.346-.51 4.113zm3.163-3.433c.579-1.7 1.804-2.55 3.743-2.55s3.164.85 3.742 2.55c.171.475.238 1.087.238 1.836 0 .135-.067.203-.204.203h-7.553c-.136 0-.204-.068-.204-.203 0-.749.068-1.361.238-1.836zm-18.713-2.515c-.952-1.701-2.552-2.551-4.763-2.551-2.144 0-3.641.749-4.559 2.21h-.034v-1.496c0-.238-.102-.34-.341-.34h-2.176c-.239 0-.341.102-.341.34v15.605c0 .237.102.34.341.34h2.176c.239 0 .341-.103.341-.34v-9.69c0-2.413 1.531-3.978 3.742-3.978 2.415 0 3.641 1.395 3.641 4.148v9.52c0 .237.102.34.34.34h2.177c.238 0 .34-.103.34-.34v-9.69c0-2.413 1.565-3.978 3.743-3.978 2.414 0 3.64 1.395 3.64 4.148v9.52c0 .237.102.34.34.34h2.177c.238 0 .341-.103.341-.34v-10.2c0-3.773-2.11-6.119-5.818-6.119-2.279 0-4.048.85-5.273 2.551zm-45.761-.477.918 1.564c.103.17.272.204.476.034 1.089-.782 2.416-1.156 3.947-1.156 2.96 0 3.912.884 3.912 3.195v1.191c0 .135-.067.203-.204.203h-3.708c-4.083 0-6.362 1.665-6.362 5.032 0 3.161 2.211 4.895 5.477 4.895 2.347 0 3.947-.713 4.831-2.141h.035v1.428c0 .237.102.34.339.34h2.008c.238 0 .34-.103.34-.34v-10.778c0-3.977-1.769-5.541-6.396-5.541-2.348 0-4.185.544-5.545 1.598-.136.135-.17.305-.068.476zm5.783 7.309h3.266c.137 0 .204.069.204.205v1.801c0 2.006-1.565 3.195-4.116 3.195-2.279 0-3.403-.849-3.403-2.549 0-1.87 1.224-2.652 4.049-2.652zm21.638-9.009c-.203 0-.339.102-.407.34l-4.117 11.763h-.068l-4.286-11.763c-.068-.238-.204-.34-.409-.34h-2.381c-.239 0-.34.102-.273.34l5.989 15.469-.546 1.495c-.713 1.87-1.394 2.449-2.754 2.449h-.612c-.239 0-.342.1-.342.339v1.972c0 .238.103.34.342.34h.883c1.259 0 2.247-.34 2.96-1.02.749-.679 1.463-1.972 2.178-3.842l6.43-17.202c.068-.238-.034-.34-.273-.34zm-60.868 3.915c-.238 0-.339.103-.339.341v1.97c0 .239.101.341.339.341h9.051c.238 0 .339-.102.339-.341v-1.97c0-.238-.101-.341-.339-.341zm-61.992 2.765c-1.105 0-2 .896-2 2v12c0 1.105.895 2 2 2h20.015c1.106 0 2.001-.895 2.001-2v-12c0-1.104-.895-2-2.001-2zm0 14h20.014v-12h-20.014zm182.195 9.567c0 .539.219.979.484 1.253.132.132.319.265.572.386s.484.209.683.275c.198.066.474.143.815.242.275.076.473.142.583.175l.485.165c.22.078.374.155.462.222.33.197.693.559.639 1.044 0 .891-.881 1.452-2.082 1.452-.55 0-1.079-.1-1.596-.286-.506-.198-.902-.428-1.199-.681v.912c.626.473 1.705.814 2.851.814.804 0 1.475-.198 2.026-.594.561-.396.836-.935.836-1.627 0-.562-.242-1.046-.54-1.321-.142-.144-.34-.286-.593-.418-.254-.132-.485-.231-.672-.298-.188-.065-.44-.142-.76-.241l-.462-.133-.474-.132-.374-.142c-.177-.067-.297-.122-.363-.177-.242-.187-.551-.484-.496-.868 0-.705.628-1.255 1.86-1.255.827 0 1.619.243 2.378.715v-.836c-.681-.428-1.485-.638-2.399-.638-.837 0-1.486.187-1.96.561s-.704.847-.704 1.431zm-114.691 1.99c0 1.156.374 2.113 1.123 2.861.76.748 1.696 1.122 2.83 1.122.924 0 1.695-.231 2.323-.681v-.848c-.639.517-1.399.77-2.291.77-.891 0-1.65-.308-2.256-.912-.606-.606-.904-1.376-.904-2.312 0-.923.298-1.693.904-2.298.606-.617 1.343-.925 2.235-.925.759 0 1.475.221 2.147.649v-.836c-.606-.385-1.322-.572-2.158-.572-1.134 0-2.07.374-2.83 1.133-.749.748-1.123 1.695-1.123 2.849zm-7.705 0c0 1.156.375 2.113 1.122 2.861.76.748 1.697 1.122 2.83 1.122.925 0 1.696-.231 2.324-.681v-.848c-.639.517-1.399.77-2.292.77-.89 0-1.65-.308-2.256-.912-.606-.606-.902-1.376-.902-2.312 0-.923.296-1.693.902-2.298.606-.617 1.344-.925 2.235-.925.76 0 1.476.221 2.146.649v-.836c-.604-.385-1.32-.572-2.157-.572-1.133 0-2.07.374-2.83 1.133-.747.748-1.122 1.695-1.122 2.849zm77.738-3.894-3.436 7.745h.847l.937-2.123h4.04l.958 2.123h.858l-3.445-7.745zm.373 1.023 1.752 3.884h-3.502zm-35.059-1.023-3.436 7.745h.848l.937-2.123h4.039l.959 2.123h.858l-3.447-7.745zm.374 1.023 1.75 3.884h-3.501zm-48.39-1.023-3.436 7.745h.848l.936-2.123h4.04l.958 2.123h.86l-3.447-7.745zm.373 1.023 1.752 3.884h-3.501zm119.545-.979v.737h2.654v6.964h.814v-6.964h2.687v-.737zm-2.487 0v6.293l-4.866-6.293h-.704v7.701h.793v-6.314l4.877 6.314h.693v-7.701zm-12.836 0v7.701h5.45v-.737h-4.634v-3.025h3.665v-.738h-3.665v-2.464h4.469v-.737zm-3.18 0-2.786 3.73-2.785-3.73h-.803v7.701h.803v-6.469l2.543 3.366h.496l2.521-3.366v6.469h.803v-7.701zm-8.862 0-2.466 3.41-2.466-3.41h-.947l2.995 4.17v3.531h.815v-3.543l2.995-4.158zm-19.297 0v7.701h.815v-3.399h2.422c1.54 0 2.466-.858 2.466-2.167 0-1.276-.926-2.135-2.466-2.135zm.815.737h2.367c1.09 0 1.718.506 1.718 1.42 0 .891-.628 1.407-1.718 1.407h-2.367zm-6.428-.737-2.466 3.41-2.467-3.41h-.946l2.994 4.17v3.531h.816v-3.543l2.994-4.158zm-8.223 0v6.293l-4.866-6.293h-.705v7.701h.793v-6.314l4.877 6.314h.694v-7.701zm-24.505 0v.737h2.654v6.964h.815v-6.964h2.686v-.737zm-6.846 0v7.701h.815v-3.399h2.422c1.541 0 2.466-.858 2.466-2.167 0-1.276-.925-2.135-2.466-2.135zm.815.737h2.366c1.091 0 1.719.506 1.719 1.42 0 .891-.628 1.407-1.719 1.407h-2.366zm-8.08-.737v7.701h5.45v-.737h-4.635v-3.025h3.665v-.738h-3.665v-2.464h4.469v-.737zm-57.626 2.293c-.553 0-1 .448-1 1 0 .553.447 1 1 1h2.002c.553 0 1.001-.447 1.001-1 0-.552-.448-1-1.001-1zm-9.005 0c-.555 0-1.002.448-1.002 1 0 .553.447 1 1.002 1h2c.554 0 1.001-.447 1.001-1 0-.552-.447-1-1.001-1zm-9.008 0c-.552 0-1 .448-1 1 0 .553.448 1 1 1h2.002c.553 0 1-.447 1-1 0-.552-.447-1-1-1zm18.013 4.999c-.553 0-1 .447-1 1 0 .552.447 1 1 1h2.002c.553 0 1.001-.448 1.001-1 0-.553-.448-1-1.001-1zm-9.005 0c-.555 0-1.002.447-1.002 1 0 .552.447 1 1.002 1h2c.554 0 1.001-.448 1.001-1 0-.553-.447-1-1.001-1zm-9.008 0c-.552 0-1 .447-1 1 0 .552.448 1 1 1h2.002c.553 0 1-.448 1-1 0-.553-.447-1-1-1z" fill="#fff" fill-rule="evenodd"/></svg>