<svg height="75" viewBox="0 0 54 75" width="54" xmlns="http://www.w3.org/2000/svg" xmlns:xlink="http://www.w3.org/1999/xlink"><linearGradient id="a"><stop offset="0" stop-color="#38b6c1"/><stop offset="1" stop-color="#5090df"/></linearGradient><linearGradient id="b" x1="49.999155%" x2="49.999155%" xlink:href="#a" y1="100%" y2=".000024%"/><linearGradient id="c" x1="50%" x2="50%" xlink:href="#a" y1="100%" y2=".000019%"/><mask id="d" fill="#fff"><path d="m5 .002c-2.757 0-5 2.243-5 5v27c0 2.757 2.243 5 5 5h18.052v14.697c0 .341-.297.571-.58.571-.158 0-.313-.071-.408-.239l-4.736-7.235c-.672-.997-1.819-1.539-3.028-1.539-.802-.001-1.632.238-2.368.742-1.841 1.261-2.499 3.652-1.381 5.31s13.224 20.181 13.29 20.248c2.369 3.386 6.251 5.443 10.527 5.443h3.882c5.789 0 11.053-3.585 13.091-9.094.593-1.66.659-2.789.659-4.05v-15.866c0-1.991-1.447-3.916-3.487-4.181-.179-.027-.358-.04-.535-.04-1.181 0-2.274.558-3.018 1.366-.46-1.791-2.039-3.119-3.947-3.119-1.25 0-2.369.598-3.092 1.461-.527-1.661-2.04-2.855-3.882-2.855-1.119 0-2.105.465-2.894 1.194v-2.814h17.855c2.757 0 5-2.243 5-5v-27c0-2.757-2.243-5-5-5zm-3 32v-27c0-1.657 1.343-3 3-3h44c1.657 0 3 1.343 3 3v27c0 1.657-1.343 3-3 3h-17.855v-10.719c0-.095-.019-.187-.026-.281h1.881c2.757 0 5-2.243 5-5s-2.243-5-5-5h-12c-2.757 0-5 2.243-5 5s2.243 5 5 5h2.06c0 .027-.008.053-.008.082v10.918h-18.052c-1.657 0-3-1.343-3-3zm16-13c0-1.657 1.343-3 3-3h12c1.657 0 3 1.343 3 3s-1.343 3-3 3h-2.503c-.612-1.013-1.615-1.769-2.84-1.968-.184-.024-.366-.036-.545-.036-1.483 0-2.761.818-3.469 2.004h-2.643c-1.657 0-3-1.343-3-3zm7.051 32.697v-27.615c0-.549.217-1.071.611-1.469.39-.398.905-.617 1.45-.617.082 0 .167.005.253.015 1.016.181 1.78 1.152 1.78 2.27v15.533 4.576l3.357-3.107c.476-.44.993-.663 1.537-.663.919 0 1.695.572 1.975 1.459l1.1 3.469 2.339-2.788c.392-.467.975-.746 1.56-.746.939 0 1.765.666 2.011 1.618l.916 3.565 2.492-2.709c.415-.451.994-.72 1.546-.72.084 0 .168.006.277.021 1.043.137 1.745 1.247 1.745 2.199v15.866c0 1.053-.04 1.971-.533 3.355-1.725 4.659-6.233 7.789-11.217 7.789h-3.882c-3.555 0-6.878-1.716-8.888-4.59l-.015-.021c-.523-.774-9.712-14.79-13.255-20.197-.481-.714-.083-1.902.853-2.543.375-.256.803-.393 1.237-.392.58 0 1.093.245 1.355.633l4.713 7.202c.454.74 1.233 1.178 2.104 1.178 1.422 0 2.579-1.153 2.579-2.571z" fill="#fff" fill-rule="evenodd"/></mask><g fill="none" fill-rule="evenodd" transform="translate(0 -1)"><path d="m38.514 25.809c-1.382-.2-2.698.398-3.553 1.327-.461-1.792-2.039-3.12-3.947-3.12-1.25 0-2.369.597-3.093 1.461-.526-1.661-2.039-2.855-3.882-2.855-1.118 0-2.104.465-2.894 1.194v-15.533c0-.822-.24-1.607-.647-2.281h2.502c1.657 0 3-1.343 3-3s-1.343-3-3-3h-12c-1.657 0-3 1.343-3 3s1.343 3 3 3h2.652c-.37.617-.599 1.323-.599 2.082v27.615c0 .532-.725.797-.988.332l-4.737-7.236c-1.118-1.659-3.553-2.058-5.394-.796-1.842 1.261-2.5 3.651-1.382 5.311 0 0 13.224 20.18 13.29 20.247 2.368 3.385 6.25 5.443 10.526 5.443h3.882c5.79 0 11.053-3.585 13.093-9.095.592-1.659.658-2.788.658-4.048v-15.867c0-1.991-1.448-3.916-3.487-4.181" fill="url(#b)" opacity=".3" transform="translate(10 16.998)"/><path d="m5 .002c-2.757 0-5 2.243-5 5v27c0 2.757 2.243 5 5 5h18.052v14.697c0 .341-.297.571-.58.571-.158 0-.313-.071-.408-.239l-4.736-7.235c-.672-.997-1.819-1.539-3.028-1.539-.802-.001-1.632.238-2.368.742-1.841 1.261-2.499 3.652-1.381 5.31s13.224 20.181 13.29 20.248c2.369 3.386 6.251 5.443 10.527 5.443h3.882c5.789 0 11.053-3.585 13.091-9.094.593-1.66.659-2.789.659-4.05v-15.866c0-1.991-1.447-3.916-3.487-4.181-.179-.027-.358-.04-.535-.04-1.181 0-2.274.558-3.018 1.366-.46-1.791-2.039-3.119-3.947-3.119-1.25 0-2.369.598-3.092 1.461-.527-1.661-2.04-2.855-3.882-2.855-1.119 0-2.105.465-2.894 1.194v-2.814h17.855c2.757 0 5-2.243 5-5v-27c0-2.757-2.243-5-5-5zm-3 32v-27c0-1.657 1.343-3 3-3h44c1.657 0 3 1.343 3 3v27c0 1.657-1.343 3-3 3h-17.855v-10.719c0-.095-.019-.187-.026-.281h1.881c2.757 0 5-2.243 5-5s-2.243-5-5-5h-12c-2.757 0-5 2.243-5 5s2.243 5 5 5h2.06c0 .027-.008.053-.008.082v10.918h-18.052c-1.657 0-3-1.343-3-3zm16-13c0-1.657 1.343-3 3-3h12c1.657 0 3 1.343 3 3s-1.343 3-3 3h-2.503c-.612-1.013-1.615-1.769-2.84-1.968-.184-.024-.366-.036-.545-.036-1.483 0-2.761.818-3.469 2.004h-2.643c-1.657 0-3-1.343-3-3zm7.051 32.697v-27.615c0-.549.217-1.071.611-1.469.39-.398.905-.617 1.45-.617.082 0 .167.005.253.015 1.016.181 1.78 1.152 1.78 2.27v15.533 4.576l3.357-3.107c.476-.44.993-.663 1.537-.663.919 0 1.695.572 1.975 1.459l1.1 3.469 2.339-2.788c.392-.467.975-.746 1.56-.746.939 0 1.765.666 2.011 1.618l.916 3.565 2.492-2.709c.415-.451.994-.72 1.546-.72.084 0 .168.006.277.021 1.043.137 1.745 1.247 1.745 2.199v15.866c0 1.053-.04 1.971-.533 3.355-1.725 4.659-6.233 7.789-11.217 7.789h-3.882c-3.555 0-6.878-1.716-8.888-4.59l-.015-.021c-.523-.774-9.712-14.79-13.255-20.197-.481-.714-.083-1.902.853-2.543.375-.256.803-.393 1.237-.392.58 0 1.093.245 1.355.633l4.713 7.202c.454.74 1.233 1.178 2.104 1.178 1.422 0 2.579-1.153 2.579-2.571z" fill="url(#c)" mask="url(#d)" transform="translate(0 .998)"/></g></svg>