<svg height="180" viewBox="0 0 186 180" width="186" xmlns="http://www.w3.org/2000/svg" xmlns:xlink="http://www.w3.org/1999/xlink"><linearGradient id="a"><stop offset="0" stop-color="#38b6c1"/><stop offset="1" stop-color="#5090df"/></linearGradient><linearGradient id="b" x1="50%" x2="50%" xlink:href="#a" y1="99.999192%" y2="-.0008%"/><linearGradient id="c" x1="50%" x2="50%" xlink:href="#a" y1="99.999998%" y2=".000329%"/><mask id="d" fill="#fff"><path d="m163.447.998c-.551 0-.998.448-.998.999v.999h-.998c-.551 0-.998.447-.998 1.001 0 .552.447.999.998.999h.998v.999c0 .553.447 1 .998 1s.997-.447.997-1v-.999h.998c.551 0 .999-.447.999-.999 0-.554-.448-1.001-.999-1.001h-.998v-.999c0-.551-.446-.999-.997-.999zm10.977 5.997v3.996h-3.992c-.551 0-.998.447-.998 1 0 .552.447.999.998.999h3.992v3.997c0 .552.447.999.998.999s.998-.447.998-.999v-3.997h3.991c.551 0 .998-.447.998-.999 0-.553-.447-1-.998-1h-3.991v-3.996c0-.553-.447-1-.998-1s-.998.447-.998 1zm-160.662 83.938c0 45.734 37.155 82.94 82.825 82.94 45.671 0 82.826-37.206 82.826-82.94 0-45.733-37.155-82.939-82.826-82.939-45.67 0-82.825 37.206-82.825 82.939zm1.995 0c0-44.631 36.26-80.941 80.83-80.941s80.831 36.31 80.831 80.941c0 44.63-36.261 80.941-80.831 80.941s-80.83-36.311-80.83-80.941zm-14.526-17.329 1.97.313c3.762-23.619 16.154-44.915 34.893-59.963l-1.248-1.56c-19.128 15.359-31.775 37.098-35.615 61.21zm94.358-49.622c25.155 0 47.85 13.968 59.23 36.453l1.781-.904c-11.722-23.16-35.1-37.548-61.011-37.548zm-13.379-.687.388 1.959c1.743-.346 3.523-.625 5.292-.83l-.228-1.985c-1.824.211-3.658.499-5.452.856zm.296 38.702-3.001-1.998-3 1.998-2.999-1.998-3.001 1.998-3-1.998v4.995h-5c-2.209 0-4 1.791-4 3.997v43.968c0 2.209 1.791 3.999 4 3.999h69c2.21 0 4.001-1.79 4.001-3.999v-43.968c0-2.206-1.791-3.997-4.001-3.997h-46v-4.995zm-4.891 1.663 1.89-1.259 1.891 1.259 1.11.739 1-.666v21.247h-14v-21.247l.999.666 1.11-.739 1.891-1.259 1.89 1.259 1.109.739zm7.89 3.333h46c1.104 0 2.001.897 2.001 1.998v33.976c0 1.654-1.346 2.998-3.001 2.998h-66.999c-1.655 0-3.001-1.344-3.001-2.998v-33.976c0-1.101.897-1.998 2-1.998h5v12.991h-3.999v10.992h25.999v-10.992h-4zm0 19.986v-4.996h2v6.994h-21.999v-6.994h1.999v4.996zm45 20.984c1.131 0 2.162-.39 3.001-1.024v6.02c0 1.103-.897 2-2.001 2h-69c-1.103 0-2-.897-2-2v-6.02c.839.634 1.87 1.024 3.001 1.024zm-38.907-24.025h37.92v-11.991h-37.92zm1.996-1.999h33.929v-7.994h-33.929zm-13.971-6.994v5.995c0 .552.446.999.998.999.551 0 .997-.447.997-.999v-5.995c0-.552-.446-1-.997-1-.552 0-.998.448-.998 1zm-3.991 0v5.995c0 .552.446.999.998.999.55 0 .998-.447.998-.999v-5.995c0-.552-.448-1-.998-1-.552 0-.998.448-.998 1zm-3.992 0v5.995c0 .552.447.999.998.999s.997-.447.997-.999v-5.995c0-.552-.446-1-.997-1s-.998.448-.998 1zm-71.64 14.278h1.996c0-1.25.024-2.516.071-3.763l-1.993-.076c-.049 1.272-.074 2.564-.074 3.839zm119.539-2.287c-.551 0-.998.448-.998 1 0 .551.447.998.998.998h8.982c.551 0 .997-.447.997-.998 0-.552-.446-1-.997-1zm-13.971 0c-.551 0-.997.448-.997 1 0 .551.446.998.997.998h9.979c.551 0 .999-.447.999-.998 0-.552-.448-1-.999-1zm-12.972 0c-.551 0-.998.448-.998 1 0 .551.447.998.998.998h8.981c.551 0 .998-.447.998-.998 0-.552-.447-1-.998-1zm26.943 4.996c-.551 0-.998.448-.998.999 0 .552.447.999.998.999h8.982c.551 0 .997-.447.997-.999 0-.551-.446-.999-.997-.999zm-13.971 0c-.551 0-.997.448-.997.999 0 .552.446.999.997.999h9.979c.551 0 .999-.447.999-.999 0-.551-.448-.999-.999-.999zm-12.972 0c-.551 0-.998.448-.998.999 0 .552.447.999.998.999h8.981c.551 0 .998-.447.998-.999 0-.551-.447-.999-.998-.999zm26.943 4.996c-.551 0-.998.448-.998 1s.447.999.998.999h8.982c.551 0 .997-.447.997-.999s-.446-1-.997-1zm-13.971 0c-.551 0-.997.448-.997 1s.446.999.997.999h9.979c.551 0 .999-.447.999-.999s-.448-1-.999-1zm-12.972 0c-.551 0-.998.448-.998 1s.447.999.998.999h8.981c.551 0 .998-.447.998-.999s-.447-1-.998-1zm89.632 39.599c-.359.636-.724 1.269-1.097 1.897l1.715 1.02c.381-.64.754-1.285 1.121-1.936.708-1.257 1.392-2.536 2.033-3.803l-1.78-.905c-.629 1.242-1.299 2.495-1.992 3.727zm-138.312-1.281c11.678 13.491 27.85 21.789 45.536 23.365l.177-1.99c-17.168-1.53-32.867-9.586-44.205-22.685zm89.245 43.892.723 1.862c18.378-7.15 34.044-19.548 45.304-35.85l-1.64-1.137c-11.034 15.972-26.382 28.118-44.387 35.125zm-126.385-18.257c0 3.307 2.686 5.996 5.988 5.996 3.301 0 5.987-2.689 5.987-5.996 0-3.305-2.686-5.994-5.987-5.994-3.302 0-5.988 2.689-5.988 5.994zm1.996 0c0-2.204 1.79-3.996 3.992-3.996 2.201 0 3.991 1.792 3.991 3.996 0 2.205-1.79 3.998-3.991 3.998-2.202 0-3.992-1.793-3.992-3.998zm91.717-4.174.145 1.993c2.26-.166 4.529-.446 6.744-.83l-.342-1.97c-2.15.375-4.352.646-6.547.807zm-78.744 6.173c0 1.654 1.343 2.998 2.993 2.998 1.651 0 2.995-1.344 2.995-2.998 0-1.653-1.344-2.998-2.995-2.998-1.65 0-2.993 1.345-2.993 2.998zm1.996 0c0-.551.447-.999.997-.999s.998.448.998.999c0 .552-.448.999-.998.999s-.997-.447-.997-.999z" fill="#fff" fill-rule="evenodd"/></mask><g fill="none" fill-rule="evenodd" transform="translate(0 -1)"><path d="m33.5 17.999h36v-10h-36zm41 32-2 1h-69l-2-1-1-2v-44l1-2 2-1h6v20h16v-20h47l2 1 1 2v44z" fill="url(#b)" opacity=".3" transform="translate(59 65.001)"/><path d="m163.447.998c-.551 0-.998.448-.998.999v.999h-.998c-.551 0-.998.447-.998 1.001 0 .552.447.999.998.999h.998v.999c0 .553.447 1 .998 1s.997-.447.997-1v-.999h.998c.551 0 .999-.447.999-.999 0-.554-.448-1.001-.999-1.001h-.998v-.999c0-.551-.446-.999-.997-.999zm10.977 5.997v3.996h-3.992c-.551 0-.998.447-.998 1 0 .552.447.999.998.999h3.992v3.997c0 .552.447.999.998.999s.998-.447.998-.999v-3.997h3.991c.551 0 .998-.447.998-.999 0-.553-.447-1-.998-1h-3.991v-3.996c0-.553-.447-1-.998-1s-.998.447-.998 1zm-160.662 83.938c0 45.734 37.155 82.94 82.825 82.94 45.671 0 82.826-37.206 82.826-82.94 0-45.733-37.155-82.939-82.826-82.939-45.67 0-82.825 37.206-82.825 82.939zm1.995 0c0-44.631 36.26-80.941 80.83-80.941s80.831 36.31 80.831 80.941c0 44.63-36.261 80.941-80.831 80.941s-80.83-36.311-80.83-80.941zm-14.526-17.329 1.97.313c3.762-23.619 16.154-44.915 34.893-59.963l-1.248-1.56c-19.128 15.359-31.775 37.098-35.615 61.21zm94.358-49.622c25.155 0 47.85 13.968 59.23 36.453l1.781-.904c-11.722-23.16-35.1-37.548-61.011-37.548zm-13.379-.687.388 1.959c1.743-.346 3.523-.625 5.292-.83l-.228-1.985c-1.824.211-3.658.499-5.452.856zm.296 38.702-3.001-1.998-3 1.998-2.999-1.998-3.001 1.998-3-1.998v4.995h-5c-2.209 0-4 1.791-4 3.997v43.968c0 2.209 1.791 3.999 4 3.999h69c2.21 0 4.001-1.79 4.001-3.999v-43.968c0-2.206-1.791-3.997-4.001-3.997h-46v-4.995zm-4.891 1.663 1.89-1.259 1.891 1.259 1.11.739 1-.666v21.247h-14v-21.247l.999.666 1.11-.739 1.891-1.259 1.89 1.259 1.109.739zm7.89 3.333h46c1.104 0 2.001.897 2.001 1.998v33.976c0 1.654-1.346 2.998-3.001 2.998h-66.999c-1.655 0-3.001-1.344-3.001-2.998v-33.976c0-1.101.897-1.998 2-1.998h5v12.991h-3.999v10.992h25.999v-10.992h-4zm0 19.986v-4.996h2v6.994h-21.999v-6.994h1.999v4.996zm45 20.984c1.131 0 2.162-.39 3.001-1.024v6.02c0 1.103-.897 2-2.001 2h-69c-1.103 0-2-.897-2-2v-6.02c.839.634 1.87 1.024 3.001 1.024zm-38.907-24.025h37.92v-11.991h-37.92zm1.996-1.999h33.929v-7.994h-33.929zm-13.971-6.994v5.995c0 .552.446.999.998.999.551 0 .997-.447.997-.999v-5.995c0-.552-.446-1-.997-1-.552 0-.998.448-.998 1zm-3.991 0v5.995c0 .552.446.999.998.999.55 0 .998-.447.998-.999v-5.995c0-.552-.448-1-.998-1-.552 0-.998.448-.998 1zm-3.992 0v5.995c0 .552.447.999.998.999s.997-.447.997-.999v-5.995c0-.552-.446-1-.997-1s-.998.448-.998 1zm-71.64 14.278h1.996c0-1.25.024-2.516.071-3.763l-1.993-.076c-.049 1.272-.074 2.564-.074 3.839zm119.539-2.287c-.551 0-.998.448-.998 1 0 .551.447.998.998.998h8.982c.551 0 .997-.447.997-.998 0-.552-.446-1-.997-1zm-13.971 0c-.551 0-.997.448-.997 1 0 .551.446.998.997.998h9.979c.551 0 .999-.447.999-.998 0-.552-.448-1-.999-1zm-12.972 0c-.551 0-.998.448-.998 1 0 .551.447.998.998.998h8.981c.551 0 .998-.447.998-.998 0-.552-.447-1-.998-1zm26.943 4.996c-.551 0-.998.448-.998.999 0 .552.447.999.998.999h8.982c.551 0 .997-.447.997-.999 0-.551-.446-.999-.997-.999zm-13.971 0c-.551 0-.997.448-.997.999 0 .552.446.999.997.999h9.979c.551 0 .999-.447.999-.999 0-.551-.448-.999-.999-.999zm-12.972 0c-.551 0-.998.448-.998.999 0 .552.447.999.998.999h8.981c.551 0 .998-.447.998-.999 0-.551-.447-.999-.998-.999zm26.943 4.996c-.551 0-.998.448-.998 1s.447.999.998.999h8.982c.551 0 .997-.447.997-.999s-.446-1-.997-1zm-13.971 0c-.551 0-.997.448-.997 1s.446.999.997.999h9.979c.551 0 .999-.447.999-.999s-.448-1-.999-1zm-12.972 0c-.551 0-.998.448-.998 1s.447.999.998.999h8.981c.551 0 .998-.447.998-.999s-.447-1-.998-1zm89.632 39.599c-.359.636-.724 1.269-1.097 1.897l1.715 1.02c.381-.64.754-1.285 1.121-1.936.708-1.257 1.392-2.536 2.033-3.803l-1.78-.905c-.629 1.242-1.299 2.495-1.992 3.727zm-138.312-1.281c11.678 13.491 27.85 21.789 45.536 23.365l.177-1.99c-17.168-1.53-32.867-9.586-44.205-22.685zm89.245 43.892.723 1.862c18.378-7.15 34.044-19.548 45.304-35.85l-1.64-1.137c-11.034 15.972-26.382 28.118-44.387 35.125zm-126.385-18.257c0 3.307 2.686 5.996 5.988 5.996 3.301 0 5.987-2.689 5.987-5.996 0-3.305-2.686-5.994-5.987-5.994-3.302 0-5.988 2.689-5.988 5.994zm1.996 0c0-2.204 1.79-3.996 3.992-3.996 2.201 0 3.991 1.792 3.991 3.996 0 2.205-1.79 3.998-3.991 3.998-2.202 0-3.992-1.793-3.992-3.998zm91.717-4.174.145 1.993c2.26-.166 4.529-.446 6.744-.83l-.342-1.97c-2.15.375-4.352.646-6.547.807zm-78.744 6.173c0 1.654 1.343 2.998 2.993 2.998 1.651 0 2.995-1.344 2.995-2.998 0-1.653-1.344-2.998-2.995-2.998-1.65 0-2.993 1.345-2.993 2.998zm1.996 0c0-.551.447-.999.997-.999s.998.448.998.999c0 .552-.448.999-.998.999s-.997-.447-.997-.999z" fill="url(#c)" mask="url(#d)" transform="translate(0 .001)"/></g></svg>