<svg height="88" viewBox="0 0 69 88" width="69" xmlns="http://www.w3.org/2000/svg" xmlns:xlink="http://www.w3.org/1999/xlink"><linearGradient id="a"><stop offset="0" stop-color="#38b6c1"/><stop offset="1" stop-color="#5090df"/></linearGradient><linearGradient id="b" x1="49.99978%" x2="49.99978%" xlink:href="#a" y1="99.999064%" y2=".001225%"/><linearGradient id="c" x1="50.000522%" x2="50.000522%" xlink:href="#a" y1="100%" y2="-.000622%"/><mask id="d" fill="#fff"><path d="m30.154.065c-11.806 0-13.322 7.32-14.051 10.838-1.023 4.934-2.37 13.57-3.084 23.013-.267 3.538.541 6.429 2.402 8.591 3.347 3.885 9.266 4.321 12.446 4.555l.074.005h.073 3v2h-9c-.525 0-1.095-.016-1.684-.033-.669-.02-1.361-.04-2.041-.04-1.711 0-6.73.008-7.238 3.788-2.67-.783-4.683-3.112-4.993-5.951.363-.129.724-.331 1.045-.653.552-.555.831-1.31.826-2.243-.003-.482.046-.787.089-.961l.726-.306.024-1.302c.01-.587.253-14.394.253-16.134 0-2.531-1.76-4.169-4.482-4.169-1.948 0-4.539.544-4.539 5.238 0 3.287.367 12.109.626 15.84.15 2.167.881 4.729 3.443 4.901.424 3.911 3.362 7.079 7.162 7.846.455 1.477 1.746 3.344 5.124 4.827 3.533 1.551 8.542 2.338 14.887 2.338h1.772v10.028h-1.772c-12.07 0-17.513 2.856-18.874 5.982-2.461.311-4.377 2.393-4.377 4.937 0 2.757 2.243 5 5.001 5 2.756 0 4.999-2.243 4.999-5 0-2.201-1.439-4.053-3.418-4.719 1.563-2.029 6.517-4.2 16.669-4.2h5.534c10.137 0 15.091 2.165 16.662 4.191-1.994.658-3.447 2.517-3.447 4.728 0 2.757 2.243 5 5 5s5-2.243 5-5c0-2.531-1.897-4.606-4.339-4.933-1.359-3.128-6.802-5.986-18.876-5.986h-1.762v-10.028h1.762c6.346 0 11.354-.787 14.887-2.338 3.376-1.483 4.666-3.348 5.123-4.825 3.806-.763 6.749-3.933 7.172-7.848 2.564-.173 3.294-2.734 3.444-4.901.258-3.731.625-12.553.625-15.84 0-4.694-2.59-5.238-4.538-5.238-2.723 0-4.481 1.638-4.481 4.169 0 1.74.242 15.547.252 16.134l.023 1.302.726.306c.044.174.092.478.09.961-.005.933.273 1.688.826 2.243.32.322.681.524 1.045.654-.31 2.841-2.329 5.173-5.004 5.952-.505-3.782-5.52-3.79-7.23-3.79-.68 0-1.37.02-2.04.04-.587.017-1.157.033-1.682.033h-9v-2h3 .074l.073-.005c3.18-.235 9.101-.672 12.445-4.556 1.861-2.161 2.669-5.052 2.402-8.59-.721-9.551-2.054-18.149-3.06-23.012-.73-3.519-2.248-10.839-14.052-10.839zm-15.14 34.002c.741-9.804 2.121-18.29 3.047-22.758.925-4.467 2.591-9.245 12.093-9.245h7.742c9.502 0 11.167 4.778 12.094 9.245.924 4.468 2.283 12.955 3.024 22.758.74 9.803-7.939 10.627-13 11h-3-2-2-2-3c-5.06-.372-13.742-1.196-13-11zm47.085 9.878c.011-2.255-.839-2.614-.839-2.614s-.253-14.357-.253-16.099c0-1.74 1.241-2.169 2.482-2.169s2.539 0 2.539 3.238c0 3.239-.367 12.036-.62 15.702-.14 2.004-.649 3.055-1.721 3.055-1.073 0-1.593-.107-1.588-1.113zm-59.478-1.942c-.254-3.666-.621-12.463-.621-15.702 0-3.238 1.298-3.238 2.539-3.238s2.482.429 2.482 2.169c0 1.742-.253 16.099-.253 16.099s-.851.359-.839 2.614c.005 1.006-.516 1.113-1.587 1.113-1.072 0-1.582-1.051-1.721-3.055zm30.393 7.064h2v-2h-2zm-2 2h2 2 2 9c1.123 0 2.443-.073 3.722-.073 2.72 0 5.249.331 5.278 2.388v.061c-.028 3.058-5.043 6.609-18.238 6.609h-5.534c-13.041 0-18.085-3.469-18.228-6.502v-.308c.143-1.93 2.615-2.248 5.275-2.248 1.281 0 2.602.073 3.725.073zm20.977 31.933c0-1.655 1.346-3 3-3s3.001 1.345 3.001 3-1.347 3-3.001 3-3-1.345-3-3zm-42 0c0-1.655 1.345-3 3.001-3 1.654 0 2.999 1.345 2.999 3s-1.345 3-2.999 3c-1.656 0-3.001-1.345-3.001-3z" fill="#fff" fill-rule="evenodd"/></mask><g fill="none" fill-rule="evenodd" transform="translate(0 -1)"><path d="m3.929 20.946c.005 1.006-.515 1.113-1.588 1.113-1.071 0-1.581-1.052-1.721-3.056-.253-3.665-.62-12.462-.62-15.701 0-3.238 1.298-3.238 2.539-3.238s2.482.428 2.482 2.169c0 1.742-.253 16.099-.253 16.099s-.851.358-.839 2.614m30.847 16.108h-5.534c-13.232 0-18.242-3.574-18.242-6.637 0-3.065 5.489-2.349 9.014-2.349h24c3.524 0 9.003-.716 9.003 2.349 0 3.063-5.007 6.637-18.241 6.637m28.631-18.051c-.139 2.004-.649 3.056-1.72 3.056-1.073 0-1.593-.107-1.588-1.113.011-2.256-.839-2.614-.839-2.614s-.253-14.357-.253-16.099c0-1.741 1.24-2.169 2.482-2.169 1.241 0 2.539 0 2.539 3.238 0 3.239-.367 12.036-.621 15.701" fill="url(#b)" opacity=".3" transform="translate(2 23.9355)"/><path d="m30.154.065c-11.806 0-13.322 7.32-14.051 10.838-1.023 4.934-2.37 13.57-3.084 23.013-.267 3.538.541 6.429 2.402 8.591 3.347 3.885 9.266 4.321 12.446 4.555l.074.005h.073 3v2h-9c-.525 0-1.095-.016-1.684-.033-.669-.02-1.361-.04-2.041-.04-1.711 0-6.73.008-7.238 3.788-2.67-.783-4.683-3.112-4.993-5.951.363-.129.724-.331 1.045-.653.552-.555.831-1.31.826-2.243-.003-.482.046-.787.089-.961l.726-.306.024-1.302c.01-.587.253-14.394.253-16.134 0-2.531-1.76-4.169-4.482-4.169-1.948 0-4.539.544-4.539 5.238 0 3.287.367 12.109.626 15.84.15 2.167.881 4.729 3.443 4.901.424 3.911 3.362 7.079 7.162 7.846.455 1.477 1.746 3.344 5.124 4.827 3.533 1.551 8.542 2.338 14.887 2.338h1.772v10.028h-1.772c-12.07 0-17.513 2.856-18.874 5.982-2.461.311-4.377 2.393-4.377 4.937 0 2.757 2.243 5 5.001 5 2.756 0 4.999-2.243 4.999-5 0-2.201-1.439-4.053-3.418-4.719 1.563-2.029 6.517-4.2 16.669-4.2h5.534c10.137 0 15.091 2.165 16.662 4.191-1.994.658-3.447 2.517-3.447 4.728 0 2.757 2.243 5 5 5s5-2.243 5-5c0-2.531-1.897-4.606-4.339-4.933-1.359-3.128-6.802-5.986-18.876-5.986h-1.762v-10.028h1.762c6.346 0 11.354-.787 14.887-2.338 3.376-1.483 4.666-3.348 5.123-4.825 3.806-.763 6.749-3.933 7.172-7.848 2.564-.173 3.294-2.734 3.444-4.901.258-3.731.625-12.553.625-15.84 0-4.694-2.59-5.238-4.538-5.238-2.723 0-4.481 1.638-4.481 4.169 0 1.74.242 15.547.252 16.134l.023 1.302.726.306c.044.174.092.478.09.961-.005.933.273 1.688.826 2.243.32.322.681.524 1.045.654-.31 2.841-2.329 5.173-5.004 5.952-.505-3.782-5.52-3.79-7.23-3.79-.68 0-1.37.02-2.04.04-.587.017-1.157.033-1.682.033h-9v-2h3 .074l.073-.005c3.18-.235 9.101-.672 12.445-4.556 1.861-2.161 2.669-5.052 2.402-8.59-.721-9.551-2.054-18.149-3.06-23.012-.73-3.519-2.248-10.839-14.052-10.839zm-15.14 34.002c.741-9.804 2.121-18.29 3.047-22.758.925-4.467 2.591-9.245 12.093-9.245h7.742c9.502 0 11.167 4.778 12.094 9.245.924 4.468 2.283 12.955 3.024 22.758.74 9.803-7.939 10.627-13 11h-3-2-2-2-3c-5.06-.372-13.742-1.196-13-11zm47.085 9.878c.011-2.255-.839-2.614-.839-2.614s-.253-14.357-.253-16.099c0-1.74 1.241-2.169 2.482-2.169s2.539 0 2.539 3.238c0 3.239-.367 12.036-.62 15.702-.14 2.004-.649 3.055-1.721 3.055-1.073 0-1.593-.107-1.588-1.113zm-59.478-1.942c-.254-3.666-.621-12.463-.621-15.702 0-3.238 1.298-3.238 2.539-3.238s2.482.429 2.482 2.169c0 1.742-.253 16.099-.253 16.099s-.851.359-.839 2.614c.005 1.006-.516 1.113-1.587 1.113-1.072 0-1.582-1.051-1.721-3.055zm30.393 7.064h2v-2h-2zm-2 2h2 2 2 9c1.123 0 2.443-.073 3.722-.073 2.72 0 5.249.331 5.278 2.388v.061c-.028 3.058-5.043 6.609-18.238 6.609h-5.534c-13.041 0-18.085-3.469-18.228-6.502v-.308c.143-1.93 2.615-2.248 5.275-2.248 1.281 0 2.602.073 3.725.073zm20.977 31.933c0-1.655 1.346-3 3-3s3.001 1.345 3.001 3-1.347 3-3.001 3-3-1.345-3-3zm-42 0c0-1.655 1.345-3 3.001-3 1.654 0 2.999 1.345 2.999 3s-1.345 3-2.999 3c-1.656 0-3.001-1.345-3.001-3z" fill="url(#c)" mask="url(#d)" transform="translate(0 .9355)"/></g></svg>