<svg height="17" viewBox="0 0 16 17" width="16" xmlns="http://www.w3.org/2000/svg"><path d="m1822.2381 157.2307-6.484.007c-.829 0-1.468.002-2.148 0 .503-2.327 2.731-4.087 5.394-4.087 2.66 0 4.884 1.755 5.391 4.078-.684-.002-1.323 0-2.153.002m-3.238-11.992c1.701 0 3.086 1.299 3.086 2.895s-1.385 2.895-3.086 2.895-3.085-1.299-3.085-2.895 1.384-2.895 3.085-2.895m3.256 6.624c1.109-.899 1.83-2.228 1.83-3.729 0-2.699-2.282-4.895-5.086-4.895s-5.085 2.196-5.085 4.895c0 1.501.72 2.83 1.83 3.729-2.508 1.148-4.245 3.569-4.245 6.373 0 .552.446.999.997 1 .653.002 1.195.003 1.76.003.46 0 .935-.001 1.499-.001l6.488-.007c1.244-.004 2.057-.006 3.246.005.257-.001.524-.102.714-.289.189-.188.296-.444.296-.711 0-2.803-1.738-5.225-4.244-6.373" fill="#fff" fill-rule="evenodd" transform="translate(-1811 -143)"/></svg>