<svg height="17" viewBox="0 0 16 17" width="16" xmlns="http://www.w3.org/2000/svg"><g fill="#fff" fill-rule="evenodd" transform="translate(.4998 .2385)"><path d="m10.707 7.293-3-3c-.391-.391-1.023-.391-1.414 0s-.391 1.023 0 1.414l1.293 1.293h-6.586c-.553 0-1 .448-1 1s.447 1 1 1h6.586l-1.293 1.293c-.391.391-.391 1.023 0 1.414.195.195.451.293.707.293s.512-.098.707-.293l3-3c.391-.391.391-1.023 0-1.414"/><path d="m14 16h-9c-.553 0-1-.448-1-1s.447-1 1-1h8v-12h-8c-.553 0-1-.448-1-1s.447-1 1-1h9c.553 0 1 .448 1 1v14c0 .552-.447 1-1 1"/></g></svg>