<svg height="17" viewBox="0 0 17 17" width="17" xmlns="http://www.w3.org/2000/svg"><path d="m1599.583 157.434-5.955-5.955 5.924-5.924c.585-.584.585-1.532 0-2.117-.585-.584-1.532-.584-2.117 0l-5.924 5.924-5.924-5.924c-.585-.584-1.532-.584-2.117 0-.584.585-.584 1.533 0 2.117l5.925 5.924-5.957 5.955c-.584.585-.584 1.533 0 2.117.585.585 1.533.585 2.119 0l5.954-5.955 5.955 5.955c.585.585 1.532.585 2.117 0 .585-.584.585-1.532 0-2.117" fill="#fff" fill-rule="evenodd" transform="translate(-1583 -143)"/></svg>