<svg height="18" viewBox="0 0 20 18" width="20" xmlns="http://www.w3.org/2000/svg" xmlns:xlink="http://www.w3.org/1999/xlink"><mask id="a" fill="#fff"><path d="m0-.0005h19.9998v3h-19.9998z" fill="#fff" fill-rule="evenodd"/></mask><mask id="b" fill="#fff"><path d="m0-.0005h19.9998v3h-19.9998z" fill="#fff" fill-rule="evenodd"/></mask><g fill="#fff" fill-rule="evenodd" transform="translate(0 .239)"><path d="m1.4998-.0005h17c.829 0 1.5.671 1.5 1.5 0 .828-.671 1.5-1.5 1.5h-17c-.829 0-1.5-.672-1.5-1.5 0-.829.671-1.5 1.5-1.5" mask="url(#a)"/><path d="m9.4998 6.9995h9c.829 0 1.5.672 1.5 1.5s-.671 1.5-1.5 1.5h-9c-.828 0-1.5-.672-1.5-1.5s.672-1.5 1.5-1.5"/><path d="m1.4998-.0005h17c.829 0 1.5.671 1.5 1.5 0 .828-.671 1.5-1.5 1.5h-17c-.829 0-1.5-.672-1.5-1.5 0-.829.671-1.5 1.5-1.5" mask="url(#b)" transform="translate(0 14)"/></g></svg>