<svg height="98" viewBox="0 0 88 98" width="88" xmlns="http://www.w3.org/2000/svg" xmlns:xlink="http://www.w3.org/1999/xlink"><linearGradient id="a"><stop offset="0" stop-color="#38b6c1"/><stop offset="1" stop-color="#5090df"/></linearGradient><linearGradient id="b" x1="50.000035%" x2="50.000035%" xlink:href="#a" y1="100%" y2="0%"/><linearGradient id="c" x1="50.000022%" x2="50.000022%" xlink:href="#a" y1="100%" y2="0%"/><mask id="d" fill="#fff"><path d="m34.165 0c-.296 0-.591.066-.866.197-.58.278-.989.818-1.102 1.451l-.144.8-.703 3.95c-.887 1.403-1.353 2.986-1.353 4.605 0 2.88 1.461 5.551 3.962 7.337l.001 9.817c0 .672.187 1.294.489 1.843h-17.45c-3.859 0-6.999 3.14-6.999 7v15.033c-1.654-.654-3.638-1.033-6-1.033-1.677 0-3.999 1.737-4 4.999v.018c.001.349.061 2.576 1.428 3.951.672.675 1.561 1.032 2.572 1.032.245 0 .501.02.76.048-.48.121-.813.567-.752 1.071l2.993 24.938c.059 1.018.968 2.943 3.999 2.943v7c0 .552.448 1 1 1h4.999c.345 0 .665-.177.849-.47l4.706-7.53h21.445 21.445l4.706 7.53c.183.293.504.47.848.47h5.001c.551 0 1-.448 1-1v-7c3.029 0 3.94-1.925 3.992-2.881l3-25c.06-.504-.273-.95-.753-1.071.259-.028.515-.048.76-.048 1.011 0 1.9-.357 2.571-1.032 1.37-1.377 1.429-3.609 1.429-3.952v-.017c-.001-3.262-2.323-4.999-4-4.999-2.362 0-4.345.379-5.999 1.033v-15.033c0-3.86-3.141-7-7.001-7h-9.066c.327-.566.529-1.215.529-1.915l-.002-10.912c2.213-2.048 2.045-4.961 1.929-6.962-.046-.802-.093-1.622-.007-2.292.053-.418.115-.688.164-.854l.035-.001c.186 0 .302.016.366.03.005.01.011.021.017.035.519 1.109 1.644 1.826 2.866 1.826.474 0 .932-.104 1.36-.309 1.569-.746 2.247-2.639 1.509-4.219-1.123-2.398-3.301-3.72-6.13-3.72-.092 0-.184.002-.277.005-2.463.069-5.536 1.235-6.191 6.402-.048.375-.075.747-.089 1.109-.343-.067-.695-.102-1.05-.102h-5.975c-.249-.693-.588-1.357-1.007-1.978l-.659-3.693-.142-.8c-.113-.633-.524-1.174-1.104-1.452-.273-.132-.569-.197-.865-.197-.33 0-.659.081-.956.243l-.71.386-2.187 1.193c-.85-.186-1.724-.28-2.609-.28-.914 0-1.817.1-2.693.3l-2.222-1.212-.71-.387c-.298-.162-.628-.244-.957-.244zm1.795 28.157-.001-10.915c-2.385-1.334-3.962-3.631-3.962-6.239 0-1.359.431-2.685 1.248-3.844l.777-4.358.143-.801.709.386 2.921 1.594c.948-.29 1.94-.437 2.952-.437.984 0 1.95.138 2.875.413l2.877-1.569.71-.386.143.8.737 4.14c.733.961 1.187 2.045 1.343 3.179h7.529c1.395 0 2.596.827 3.157 2.019.015-.481-.018-1.038-.055-1.676-.055-.948-.116-2.024.02-3.098.248-1.953.96-4.562 4.264-4.654.075-.002.148-.004.221-.004 2.065 0 3.521.865 4.318 2.567.275.588.026 1.29-.558 1.568-.161.077-.331.113-.499.113-.437 0-.856-.249-1.055-.674-.296-.632-.775-1.217-2.194-1.217-.055 0-.112.001-.17.003-.957.026-1.713.235-2.014 2.599-.109.856-.056 1.773-.004 2.66.118 2.046.254 4.473-1.934 5.869l.003 11.89c0 1.016-.816 1.84-1.822 1.84-.726 0-1.347-.43-1.64-1.049v-6.876h-.184v-.542h-.438v.542h-.378v7.196c-.333.44-.853.729-1.445.729-1.006 0-1.823-.824-1.823-1.84l.268-5.085h-9l-.311 5.159c0 1.016-.816 1.84-1.823 1.84-1.006 0-1.823-.824-1.823-1.84v-6.701h-.437v.542h-.606v7.518c-.323.295-.747.48-1.216.48-1.008 0-1.823-.825-1.823-1.841zm14.931-3.157-.156 2.981c-.003.034-.004.069-.004.104 0 .7.202 1.349.529 1.915h-6.06c.29-.53.476-1.126.488-1.77l.194-3.23zm-33.892 38c0-3.737-1.429-7.628-4.999-9.932v-16.068c0-2.757 2.243-5 4.999-5h53.999c2.757 0 5.001 2.243 5.001 5v16.068c-3.571 2.304-5.001 6.195-5.001 9.932 0 .366.021.697.054 1h-54.106c.033-.303.053-.634.053-1zm56.526 2.046c-.135-.025-.527-.455-.527-2.046 0-3.007 1.072-10 11-10 .513 0 2 .739 2 3h1l-1 .002c0 .123-.025 2.998-2 2.998-3.246 0-7.956 2.072-8.934 4.644-.31.815-1.106 1.406-1.487 1.406-.018 0-.035-.002-.052-.004zm-60.59-1.402c-.979-2.572-5.688-4.644-8.935-4.644-1.975 0-2-2.875-2-2.998v-.002c0-2.261 1.488-3 2-3 9.928 0 10.999 6.993 10.999 10 0 1.591-.39 2.021-.526 2.046-.018.003-.037.005-.058.005-.383 0-1.172-.596-1.48-1.407zm58.063 18.356c3.86 0 7.001-3.14 7.001-7v-11.898c1.104-.863 2.843-1.626 4.49-1.944-.254.154-.446.405-.484.723l-3.006 25.062c0 .01-.082 1.057-2 1.057h-1-10-22-21.999-10-1c-1.788 0-1.983-.902-2.007-1.12l-3-24.999c-.039-.318-.229-.569-.483-.723 1.646.318 3.385 1.081 4.49 1.944v11.898c0 3.86 3.14 7 6.999 7zm5.001-16.162v9.162c0 2.757-2.244 5-5.001 5h-53.999c-2.756 0-4.999-2.243-4.999-5v-9.162c.656.709 1.522 1.214 2.414 1.214.14 0 .279-.013.421-.039.431-.079 1.018-.326 1.472-1.013h55.384c.455.687 1.042.934 1.473 1.013.14.026.281.039.42.039.893-.001 1.759-.506 2.415-1.214zm-8.197 24.162h7.197v6h-3.446zm-47.607 0-3.749 6h-3.446v-6zm22.216-80.511c0 .838.675 1.519 1.505 1.519.831 0 1.505-.681 1.505-1.519 0-.839-.674-1.521-1.505-1.521-.83 0-1.505.682-1.505 1.521zm-6.632 0c0 .838.674 1.519 1.505 1.519.832 0 1.505-.681 1.505-1.519 0-.839-.673-1.521-1.505-1.521-.831 0-1.505.682-1.505 1.521zm3.72 1.511c-.276 0-.5.224-.5.5 0 .275.224.5.5.5h1c.276 0 .5-.225.5-.5 0-.276-.224-.5-.5-.5zm-16.5 38c-.552 0-.999.448-.999 1s.447 1 .999 1h42c.552 0 1-.448 1-1s-.448-1-1-1z" fill="#fff" fill-rule="evenodd"/></mask><g fill="none" fill-rule="evenodd"><path d="m68.327 4.842c-.582.278-1.278.027-1.554-.561-.307-.657-.812-1.262-2.363-1.214-.957.026-1.714.235-2.014 2.599-.109.856-.056 1.773-.005 2.661.118 2.045.254 4.472-1.933 5.869l.002 11.889c0 1.016-.815 1.84-1.822 1.84s-1.823-.824-1.823-1.84v-6.627h-.439v6.627c0 1.016-.815 1.84-1.822 1.84s-1.823-.824-1.823-1.84l.267-5.085h-9l-.311 5.159c0 1.016-.816 1.84-1.823 1.84s-1.823-.824-1.823-1.84v-6.701h-.437v6.7c0 1.015-.817 1.84-1.823 1.84-1.007 0-1.823-.824-1.823-1.84v-10.916c-2.384-1.333-3.963-3.632-3.963-6.239 0-1.359.432-2.685 1.249-3.843l.777-4.36.143-.8.709.386 2.92 1.593c.949-.289 1.941-.436 2.953-.436.984 0 1.95.138 2.876.413l2.877-1.569.709-.387.143.8.737 4.14c.733.962 1.187 2.047 1.343 3.181h7.529c1.395 0 2.596.825 3.158 2.018.013-.482-.018-1.037-.056-1.676-.054-.948-.116-2.024.021-3.097.248-1.954.959-4.563 4.264-4.655 2.183-.063 3.714.802 4.538 2.563.275.588.027 1.289-.558 1.568m15.6709977 53.158c-3.0219977 0-7.2219977 1.955-8 4-.1349977.355-.3469977.698-.6009977 1h1.6009977v13l-1 1-2 2h-60l-2-2-1-2v-12h1.6010023c-.254-.302-.466-.645-.6010023-1-.7779977-2.045-4.9779977-4-7.99999999-4-3.02199771 0-3-4-3-4 0-2.756 1.88800229-4 3-4 9.54400229 0 11.99999999 6.263 11.99999999 11 0 .874-.1109977 1.525-.2939977 2h56.588c-.183-.475-.2940023-1.126-.2940023-2 0-4.737 2.4560023-11 12-11 1.1120023 0 3 1.244 3 4 0 0 .0220023 4-3 4" fill="url(#b)" opacity=".3" transform="translate(0 2)"/><path d="m34.165 0c-.296 0-.591.066-.866.197-.58.278-.989.818-1.102 1.451l-.144.8-.703 3.95c-.887 1.403-1.353 2.986-1.353 4.605 0 2.88 1.461 5.551 3.962 7.337l.001 9.817c0 .672.187 1.294.489 1.843h-17.45c-3.859 0-6.999 3.14-6.999 7v15.033c-1.654-.654-3.638-1.033-6-1.033-1.677 0-3.999 1.737-4 4.999v.018c.001.349.061 2.576 1.428 3.951.672.675 1.561 1.032 2.572 1.032.245 0 .501.02.76.048-.48.121-.813.567-.752 1.071l2.993 24.938c.059 1.018.968 2.943 3.999 2.943v7c0 .552.448 1 1 1h4.999c.345 0 .665-.177.849-.47l4.706-7.53h21.445 21.445l4.706 7.53c.183.293.504.47.848.47h5.001c.551 0 1-.448 1-1v-7c3.029 0 3.94-1.925 3.992-2.881l3-25c.06-.504-.273-.95-.753-1.071.259-.028.515-.048.76-.048 1.011 0 1.9-.357 2.571-1.032 1.37-1.377 1.429-3.609 1.429-3.952v-.017c-.001-3.262-2.323-4.999-4-4.999-2.362 0-4.345.379-5.999 1.033v-15.033c0-3.86-3.141-7-7.001-7h-9.066c.327-.566.529-1.215.529-1.915l-.002-10.912c2.213-2.048 2.045-4.961 1.929-6.962-.046-.802-.093-1.622-.007-2.292.053-.418.115-.688.164-.854l.035-.001c.186 0 .302.016.366.03.005.01.011.021.017.035.519 1.109 1.644 1.826 2.866 1.826.474 0 .932-.104 1.36-.309 1.569-.746 2.247-2.639 1.509-4.219-1.123-2.398-3.301-3.72-6.13-3.72-.092 0-.184.002-.277.005-2.463.069-5.536 1.235-6.191 6.402-.048.375-.075.747-.089 1.109-.343-.067-.695-.102-1.05-.102h-5.975c-.249-.693-.588-1.357-1.007-1.978l-.659-3.693-.142-.8c-.113-.633-.524-1.174-1.104-1.452-.273-.132-.569-.197-.865-.197-.33 0-.659.081-.956.243l-.71.386-2.187 1.193c-.85-.186-1.724-.28-2.609-.28-.914 0-1.817.1-2.693.3l-2.222-1.212-.71-.387c-.298-.162-.628-.244-.957-.244zm1.795 28.157-.001-10.915c-2.385-1.334-3.962-3.631-3.962-6.239 0-1.359.431-2.685 1.248-3.844l.777-4.358.143-.801.709.386 2.921 1.594c.948-.29 1.94-.437 2.952-.437.984 0 1.95.138 2.875.413l2.877-1.569.71-.386.143.8.737 4.14c.733.961 1.187 2.045 1.343 3.179h7.529c1.395 0 2.596.827 3.157 2.019.015-.481-.018-1.038-.055-1.676-.055-.948-.116-2.024.02-3.098.248-1.953.96-4.562 4.264-4.654.075-.002.148-.004.221-.004 2.065 0 3.521.865 4.318 2.567.275.588.026 1.29-.558 1.568-.161.077-.331.113-.499.113-.437 0-.856-.249-1.055-.674-.296-.632-.775-1.217-2.194-1.217-.055 0-.112.001-.17.003-.957.026-1.713.235-2.014 2.599-.109.856-.056 1.773-.004 2.66.118 2.046.254 4.473-1.934 5.869l.003 11.89c0 1.016-.816 1.84-1.822 1.84-.726 0-1.347-.43-1.64-1.049v-6.876h-.184v-.542h-.438v.542h-.378v7.196c-.333.44-.853.729-1.445.729-1.006 0-1.823-.824-1.823-1.84l.268-5.085h-9l-.311 5.159c0 1.016-.816 1.84-1.823 1.84-1.006 0-1.823-.824-1.823-1.84v-6.701h-.437v.542h-.606v7.518c-.323.295-.747.48-1.216.48-1.008 0-1.823-.825-1.823-1.841zm14.931-3.157-.156 2.981c-.003.034-.004.069-.004.104 0 .7.202 1.349.529 1.915h-6.06c.29-.53.476-1.126.488-1.77l.194-3.23zm-33.892 38c0-3.737-1.429-7.628-4.999-9.932v-16.068c0-2.757 2.243-5 4.999-5h53.999c2.757 0 5.001 2.243 5.001 5v16.068c-3.571 2.304-5.001 6.195-5.001 9.932 0 .366.021.697.054 1h-54.106c.033-.303.053-.634.053-1zm56.526 2.046c-.135-.025-.527-.455-.527-2.046 0-3.007 1.072-10 11-10 .513 0 2 .739 2 3h1l-1 .002c0 .123-.025 2.998-2 2.998-3.246 0-7.956 2.072-8.934 4.644-.31.815-1.106 1.406-1.487 1.406-.018 0-.035-.002-.052-.004zm-60.59-1.402c-.979-2.572-5.688-4.644-8.935-4.644-1.975 0-2-2.875-2-2.998v-.002c0-2.261 1.488-3 2-3 9.928 0 10.999 6.993 10.999 10 0 1.591-.39 2.021-.526 2.046-.018.003-.037.005-.058.005-.383 0-1.172-.596-1.48-1.407zm58.063 18.356c3.86 0 7.001-3.14 7.001-7v-11.898c1.104-.863 2.843-1.626 4.49-1.944-.254.154-.446.405-.484.723l-3.006 25.062c0 .01-.082 1.057-2 1.057h-1-10-22-21.999-10-1c-1.788 0-1.983-.902-2.007-1.12l-3-24.999c-.039-.318-.229-.569-.483-.723 1.646.318 3.385 1.081 4.49 1.944v11.898c0 3.86 3.14 7 6.999 7zm5.001-16.162v9.162c0 2.757-2.244 5-5.001 5h-53.999c-2.756 0-4.999-2.243-4.999-5v-9.162c.656.709 1.522 1.214 2.414 1.214.14 0 .279-.013.421-.039.431-.079 1.018-.326 1.472-1.013h55.384c.455.687 1.042.934 1.473 1.013.14.026.281.039.42.039.893-.001 1.759-.506 2.415-1.214zm-8.197 24.162h7.197v6h-3.446zm-47.607 0-3.749 6h-3.446v-6zm22.216-80.511c0 .838.675 1.519 1.505 1.519.831 0 1.505-.681 1.505-1.519 0-.839-.674-1.521-1.505-1.521-.83 0-1.505.682-1.505 1.521zm-6.632 0c0 .838.674 1.519 1.505 1.519.832 0 1.505-.681 1.505-1.519 0-.839-.673-1.521-1.505-1.521-.831 0-1.505.682-1.505 1.521zm3.72 1.511c-.276 0-.5.224-.5.5 0 .275.224.5.5.5h1c.276 0 .5-.225.5-.5 0-.276-.224-.5-.5-.5zm-16.5 38c-.552 0-.999.448-.999 1s.447 1 .999 1h42c.552 0 1-.448 1-1s-.448-1-1-1z" fill="url(#c)" mask="url(#d)"/></g></svg>