<svg height="88" viewBox="0 0 153 88" width="153" xmlns="http://www.w3.org/2000/svg" xmlns:xlink="http://www.w3.org/1999/xlink"><linearGradient id="a"><stop offset="0" stop-color="#38b6c1"/><stop offset="1" stop-color="#5090df"/></linearGradient><linearGradient id="b" x1="50.000021%" x2="50.000021%" xlink:href="#a" y1="100%" y2="0%"/><linearGradient id="c" x1="50.00001%" x2="50.00001%" xlink:href="#a" y1="100%" y2="0%"/><mask id="d" fill="#fff"><path d="m38 0c-2.757 0-5 2.243-5 5v19c0 2.757 2.243 5 5 5h35c2.757 0 5-2.243 5-5v-19c0-2.757-2.243-5-5-5zm-3 24v-19c0-1.657 1.343-3 3-3h35c1.658 0 3 1.343 3 3v19c0 1.657-1.342 3-3 3h-35c-1.657 0-3-1.343-3-3zm78-19c-.553 0-1 .447-1 1 0 .552.447 1 1 1h33c.552 0 1-.448 1-1 0-.553-.448-1-1-1zm-74 1c-.552 0-1 .447-1 1s.448 1 1 1h17c.552 0 1-.447 1-1s-.448-1-1-1zm43.038 5c-.553 0-1 .448-1 1s.447 1 1 1h4.679c2.361 0 4.283 1.906 4.283 4.247v30.751c0 .551.447 1 1 1 .552 0 1-.449 1-1v-30.751c0-3.445-2.818-6.247-6.283-6.247zm46.962 1c-.553 0-1 .448-1 1s.447 1 1 1h23c.553 0 1-.448 1-1s-.447-1-1-1zm-11 0c-.553 0-1 .448-1 1s.447 1 1 1h6c.553 0 1-.448 1-1s-.447-1-1-1zm-8 0c-.553 0-1 .448-1 1s.447 1 1 1h3c.553 0 1-.448 1-1s-.447-1-1-1zm-43.001 3.555c-.591-.344-1.267-.555-1.999-.555-2.209 0-4 1.791-4 4s1.791 4 4 4c.732 0 1.408-.211 1.999-.554.587.348 1.267.554 2.001.554 2.209 0 4-1.791 4-4s-1.791-4-4-4c-.734 0-1.414.206-2.001.555zm1.487 5.369c.318-.573.514-1.223.514-1.924s-.196-1.35-.514-1.924c.165-.045.335-.076.514-.076 1.103 0 2 .897 2 2s-.897 2-2 2c-.179 0-.349-.031-.514-.076zm-5.486-1.924c0-1.103.897-2 2-2s2 .897 2 2-.897 2-2 2-2-.897-2-2zm-9-3c0 .553.448 1 1 1 .553 0 1-.447 1-1s-.447-1-1-1c-.552 0-1 .447-1 1zm-5 0c0 .553.448 1 1 1s1-.447 1-1-.448-1-1-1-1 .447-1 1zm-5 0c0 .553.447 1 1 1s1-.447 1-1-.447-1-1-1-1 .447-1 1zm-5 0c0 .553.448 1 1 1s1-.447 1-1-.448-1-1-1-1 .447-1 1zm94 3c-.552 0-1 .448-1 1s.448 1 1 1h3c.552 0 1-.448 1-1s-.448-1-1-1zm-11 0c-.553 0-1 .448-1 1s.447 1 1 1h6c.552 0 1-.448 1-1s-.448-1-1-1zm-24 0c-.552 0-1 .448-1 1s.448 1 1 1h19c.553 0 1-.448 1-1s-.447-1-1-1zm-59 2c-.552 0-1 .448-1 1s.448 1 1 1h17c.552 0 1-.448 1-1s-.448-1-1-1zm14 12c0 16.742-.055 42.798-.055 42.801 0 3.444 2.818 6.246 6.282 6.246h26.49c2.938 0 5.455-1.984 6.12-4.827.126-.538-.208-1.076-.746-1.202-.536-.127-1.077.209-1.202.746-.451 1.934-2.169 3.284-4.172 3.284h-26.49c-2.36 0-4.282-1.906-4.282-4.246s.004-1.825.009-4.802h30.046c.553 0 1-.447 1-1s-.447-1-1-1h-30.042c.017-8.868.042-24.592.042-36 0-.553-.447-1-1-1s-1 .447-1 1zm19 4v6.085l-3.293-3.292c-.391-.39-1.023-.39-1.414 0-.391.391-.391 1.024 0 1.414l5 5c.196.195.451.293.707.293s.512-.098.707-.293l5-5c.39-.39.39-1.023 0-1.414-.391-.39-1.023-.39-1.414 0l-3.293 3.292v-6.085c0-.552-.447-1-1-1-.552 0-1 .448-1 1zm23.434 2.772c-.409.371-.442 1.002-.072 1.413l11.995 13.301c.794.854 2.642 3.17 2.642 6.194v20.32c0 .552.447 1 1 1 .552 0 1-.448 1-1v-20.32c0-3.735-2.222-6.528-3.166-7.545l-11.987-13.29c-.197-.219-.469-.331-.743-.331-.238 0-.478.085-.669.258zm-14.246 9.328c-1.523 1.442-1.594 3.765-.16 5.289l10.058 10.668c.127.135.168.313.133.418-3.239 7.586.668 11.927 4.431 14.86l1.846 1.451c.184.144.402.214.617.214.298 0 .59-.131.787-.382.342-.434.266-1.063-.167-1.404l-1.85-1.453c-4.126-3.217-6.356-6.573-3.802-12.559.308-.869.102-1.833-.539-2.516l-10.058-10.667c-.679-.722-.644-1.781.061-2.448.407-.367.945-.569 1.497-.571.55.008 1.075.229 1.445.611l14.802 14.978c.388.392 1.02.396 1.415.008.392-.388.396-1.021.007-1.415l-14.795-14.97c-.731-.754-1.769-1.196-2.862-1.212-1.063.003-2.074.388-2.866 1.1zm-74.188 22.9c-.552 0-1 .448-1 1s.448 1 1 1h33c.552 0 1-.448 1-1s-.448-1-1-1zm63 2c-.552 0-1 .448-1 1s.448 1 1 1h6c.553 0 1-.448 1-1s-.447-1-1-1zm-30 5c-.552 0-1 .448-1 1 0 .553.448 1 1 1h3c.552 0 1-.447 1-1 0-.552-.448-1-1-1zm-11 0c-.552 0-1 .448-1 1 0 .553.448 1 1 1h6c.553 0 1-.447 1-1 0-.552-.447-1-1-1zm-28 0c-.552 0-1 .448-1 1 0 .553.448 1 1 1h23c.552 0 1-.447 1-1 0-.552-.448-1-1-1zm35 7c-.553 0-1 .447-1 1 0 .552.447 1 1 1h29c.552 0 1-.448 1-1 0-.553-.448-1-1-1zm-11 0c-.552 0-1 .447-1 1 0 .552.448 1 1 1h6c.552 0 1-.448 1-1 0-.553-.448-1-1-1zm-8 0c-.553 0-1 .447-1 1 0 .552.447 1 1 1h3c.552 0 1-.448 1-1 0-.553-.448-1-1-1z" fill="#fff" fill-rule="evenodd"/></mask><g fill="none" fill-rule="evenodd"><path d="m38 25h-35c-1.657 0-3-1.343-3-3v-19c0-1.657 1.343-3 3-3h35c1.657 0 3 1.343 3 3v19c0 1.657-1.343 3-3 3m34 56c-4.769 0-13-4-13-4l-2-3-2-2v-4l1-5-7-8-3-3 1-3 2-2h1l4 2 3 4v-17l17 17s2 1.151 2 6v19s.769 3-4 3" fill="url(#b)" opacity=".3" transform="translate(35 2)"/><path d="m38 0c-2.757 0-5 2.243-5 5v19c0 2.757 2.243 5 5 5h35c2.757 0 5-2.243 5-5v-19c0-2.757-2.243-5-5-5zm-3 24v-19c0-1.657 1.343-3 3-3h35c1.658 0 3 1.343 3 3v19c0 1.657-1.342 3-3 3h-35c-1.657 0-3-1.343-3-3zm78-19c-.553 0-1 .447-1 1 0 .552.447 1 1 1h33c.552 0 1-.448 1-1 0-.553-.448-1-1-1zm-74 1c-.552 0-1 .447-1 1s.448 1 1 1h17c.552 0 1-.447 1-1s-.448-1-1-1zm43.038 5c-.553 0-1 .448-1 1s.447 1 1 1h4.679c2.361 0 4.283 1.906 4.283 4.247v30.751c0 .551.447 1 1 1 .552 0 1-.449 1-1v-30.751c0-3.445-2.818-6.247-6.283-6.247zm46.962 1c-.553 0-1 .448-1 1s.447 1 1 1h23c.553 0 1-.448 1-1s-.447-1-1-1zm-11 0c-.553 0-1 .448-1 1s.447 1 1 1h6c.553 0 1-.448 1-1s-.447-1-1-1zm-8 0c-.553 0-1 .448-1 1s.447 1 1 1h3c.553 0 1-.448 1-1s-.447-1-1-1zm-43.001 3.555c-.591-.344-1.267-.555-1.999-.555-2.209 0-4 1.791-4 4s1.791 4 4 4c.732 0 1.408-.211 1.999-.554.587.348 1.267.554 2.001.554 2.209 0 4-1.791 4-4s-1.791-4-4-4c-.734 0-1.414.206-2.001.555zm1.487 5.369c.318-.573.514-1.223.514-1.924s-.196-1.35-.514-1.924c.165-.045.335-.076.514-.076 1.103 0 2 .897 2 2s-.897 2-2 2c-.179 0-.349-.031-.514-.076zm-5.486-1.924c0-1.103.897-2 2-2s2 .897 2 2-.897 2-2 2-2-.897-2-2zm-9-3c0 .553.448 1 1 1 .553 0 1-.447 1-1s-.447-1-1-1c-.552 0-1 .447-1 1zm-5 0c0 .553.448 1 1 1s1-.447 1-1-.448-1-1-1-1 .447-1 1zm-5 0c0 .553.447 1 1 1s1-.447 1-1-.447-1-1-1-1 .447-1 1zm-5 0c0 .553.448 1 1 1s1-.447 1-1-.448-1-1-1-1 .447-1 1zm94 3c-.552 0-1 .448-1 1s.448 1 1 1h3c.552 0 1-.448 1-1s-.448-1-1-1zm-11 0c-.553 0-1 .448-1 1s.447 1 1 1h6c.552 0 1-.448 1-1s-.448-1-1-1zm-24 0c-.552 0-1 .448-1 1s.448 1 1 1h19c.553 0 1-.448 1-1s-.447-1-1-1zm-59 2c-.552 0-1 .448-1 1s.448 1 1 1h17c.552 0 1-.448 1-1s-.448-1-1-1zm14 12c0 16.742-.055 42.798-.055 42.801 0 3.444 2.818 6.246 6.282 6.246h26.49c2.938 0 5.455-1.984 6.12-4.827.126-.538-.208-1.076-.746-1.202-.536-.127-1.077.209-1.202.746-.451 1.934-2.169 3.284-4.172 3.284h-26.49c-2.36 0-4.282-1.906-4.282-4.246s.004-1.825.009-4.802h30.046c.553 0 1-.447 1-1s-.447-1-1-1h-30.042c.017-8.868.042-24.592.042-36 0-.553-.447-1-1-1s-1 .447-1 1zm19 4v6.085l-3.293-3.292c-.391-.39-1.023-.39-1.414 0-.391.391-.391 1.024 0 1.414l5 5c.196.195.451.293.707.293s.512-.098.707-.293l5-5c.39-.39.39-1.023 0-1.414-.391-.39-1.023-.39-1.414 0l-3.293 3.292v-6.085c0-.552-.447-1-1-1-.552 0-1 .448-1 1zm23.434 2.772c-.409.371-.442 1.002-.072 1.413l11.995 13.301c.794.854 2.642 3.17 2.642 6.194v20.32c0 .552.447 1 1 1 .552 0 1-.448 1-1v-20.32c0-3.735-2.222-6.528-3.166-7.545l-11.987-13.29c-.197-.219-.469-.331-.743-.331-.238 0-.478.085-.669.258zm-14.246 9.328c-1.523 1.442-1.594 3.765-.16 5.289l10.058 10.668c.127.135.168.313.133.418-3.239 7.586.668 11.927 4.431 14.86l1.846 1.451c.184.144.402.214.617.214.298 0 .59-.131.787-.382.342-.434.266-1.063-.167-1.404l-1.85-1.453c-4.126-3.217-6.356-6.573-3.802-12.559.308-.869.102-1.833-.539-2.516l-10.058-10.667c-.679-.722-.644-1.781.061-2.448.407-.367.945-.569 1.497-.571.55.008 1.075.229 1.445.611l14.802 14.978c.388.392 1.02.396 1.415.008.392-.388.396-1.021.007-1.415l-14.795-14.97c-.731-.754-1.769-1.196-2.862-1.212-1.063.003-2.074.388-2.866 1.1zm-74.188 22.9c-.552 0-1 .448-1 1s.448 1 1 1h33c.552 0 1-.448 1-1s-.448-1-1-1zm63 2c-.552 0-1 .448-1 1s.448 1 1 1h6c.553 0 1-.448 1-1s-.447-1-1-1zm-30 5c-.552 0-1 .448-1 1 0 .553.448 1 1 1h3c.552 0 1-.447 1-1 0-.552-.448-1-1-1zm-11 0c-.552 0-1 .448-1 1 0 .553.448 1 1 1h6c.553 0 1-.447 1-1 0-.552-.447-1-1-1zm-28 0c-.552 0-1 .448-1 1 0 .553.448 1 1 1h23c.552 0 1-.447 1-1 0-.552-.448-1-1-1zm35 7c-.553 0-1 .447-1 1 0 .552.447 1 1 1h29c.552 0 1-.448 1-1 0-.553-.448-1-1-1zm-11 0c-.552 0-1 .447-1 1 0 .552.448 1 1 1h6c.552 0 1-.448 1-1 0-.553-.448-1-1-1zm-8 0c-.553 0-1 .447-1 1 0 .552.447 1 1 1h3c.552 0 1-.448 1-1 0-.553-.448-1-1-1z" fill="url(#c)" mask="url(#d)"/></g></svg>