<svg height="90" viewBox="0 0 131 90" width="131" xmlns="http://www.w3.org/2000/svg" xmlns:xlink="http://www.w3.org/1999/xlink"><linearGradient id="a" x1="49.999984%" x2="49.999984%" y1=".000544%" y2="100.000512%"><stop offset="0" stop-color="#5090df"/><stop offset="1" stop-color="#38b6c1"/></linearGradient><linearGradient id="b" x1="50%" x2="50%" y1="100%" y2="0%"><stop offset="0" stop-color="#38b6c1"/><stop offset="1" stop-color="#5090df"/></linearGradient><mask id="c" fill="#fff"><path d="m30.558 0c-3.063 0-5.556 2.475-5.556 5.515v8.485h-8.499c-3.028 0-5.492 2.237-5.498 4.99 0 .004-.002.006-.002.01v45.248l-.869-.93c-.379-.405-1.085-.405-1.463 0l-2.068 2.216-2.07-2.216c-.377-.405-1.083-.405-1.461 0l-2.8 2.999c-.241.26-.302.61-.22.929-.022.085-.052.169-.052.26 0 4.684 3.142 8.494 7.003 8.494h28.999.001c4.41-.001 7.996-3.589 7.996-8l.001-8h14.001v14h-6.999c-.552 0-1 .447-1 1 0 .552.448 1 1 1h6.999 21 7c.553 0 1-.448 1-1 0-.553-.447-1-1-1h-7v-14h16v20c0 1.654 1.346 3 3 3h29.999c1.654 0 3-1.346 3-3v-52c0-1.654-1.346-3-3-3h-4c-.552 0-1 .447-1 1s.448 1 1 1h4c.551 0 1 .448 1 1v52c0 .552-.449 1-1 1h-29.999c-.552 0-1-.448-1-1v-52c0-.552.448-1 1-1h4.006c.553 0 1-.447 1-1s-.447-1-1-1h-4.006c-1.654 0-3 1.346-3 3v23h-51l.001-7h11c2.205 0 3.999-1.822 3.999-4.062v-9.938c0-.553-.447-1-1-1h-4.999v-10c0-2.517-2.059-4.601-4.725-4.945-.089-.026-.177-.055-.275-.055h-20.999v-8.485c0-1.938 1.595-3.515 3.555-3.515h74.886c1.962 0 3.557 1.577 3.557 3.515v12.152l-2 1.333-3-2v21h-3c-.553 0-1 .447-1 1 0 .552.447 1 1 1h23.999c.553 0 1-.448 1-1 0-.553-.447-1-1-1h-3v-21l-3 2-3-2-3 2-2-1.333v-12.152c0-3.04-2.492-5.515-5.556-5.515zm13.446 19c0-1.654 1.569-3 3.499-3 1.929 0 3.499 1.346 3.499 3l-.001 20.938c0 .756.218 1.456.574 2.062h-7.573zm-.89-3c-.694.837-1.111 1.874-1.111 3l-.004 49c0 3.309-2.691 6-5.998 6-3.308 0-5.999-2.691-5.999-6 0-.186-.064-.351-.153-.499.22-.372.194-.851-.116-1.184l-2.8-2.999c-.189-.203-.453-.318-.73-.318-.278 0-.542.115-.731.318l-2.069 2.216-2.069-2.216c-.189-.203-.454-.318-.731-.318s-.543.115-.731.318l-2.07 2.216-2.068-2.216c-.378-.405-1.085-.405-1.463 0l-1.269 1.359v-45.67c0-.002.002-.004.002-.007 0-1.654 1.57-3 3.499-3zm70.995 4.664 1.891-1.261 1.891 1.261c.336.224.723.336 1.109.336.345 0 .691-.089 1-.269v17.269h-13.999v-17.268c.309.179.654.268 1 .268.387 0 .773-.112 1.109-.336l1.308-.872c.166.122.36.208.582.208.223 0 .417-.086.583-.208l1.309.872c.334.224.721.336 1.108.336s.773-.112 1.109-.336zm-61.107 19.274v-8.938h3.999v8.938c0 1.137-.897 2.062-1.999 2.062-1.104 0-2-.925-2-2.062zm-9.001 13.062h51v5h-16-21-14.001zm16 20.999h17v-13.999h-17zm-35.868-6.316 2.07-2.217 1.929 2.068c-.075.141-.129.295-.129.466 0 2.39 1.058 4.533 2.725 6h-23.725c-2.759 0-5.003-2.913-5.003-6.494 0-.031-.016-.059-.018-.089l1.821-1.951 2.069 2.217c.378.404 1.084.404 1.462 0l2.069-2.217 2.068 2.217c.378.404 1.085.404 1.463 0l2.068-2.217 2.069 2.217c.189.202.454.317.731.317s.542-.115.731-.317l2.07-2.217 2.068 2.217c.189.202.454.317.732.317.277 0 .542-.115.73-.317zm-5.126-33.683c-.552 0-1 .447-1 1s.448 1 1 1h16.995c.552 0 1-.447 1-1s-.448-1-1-1zm0 8c-.552 0-1 .448-1 1 0 .553.448 1 1 1h16.995c.552 0 1-.447 1-1 0-.552-.448-1-1-1zm83.994 4c-1.105 0-2 .895-2 2v12c0 1.105.895 2 2 2h19.999c1.105 0 2-.895 2-2v-12c0-1.105-.895-2-2-2zm0 14.001h19.999v-12.001h-19.999zm-83.994-10.001c-.552 0-1 .448-1 1 0 .553.448 1 1 1h16.995c.552 0 1-.447 1-1 0-.552-.448-1-1-1zm101.993 20c-.553 0-1 .447-1 1s.447 1 1 1h2c.553 0 1-.447 1-1s-.447-1-1-1zm-9 0c-.552 0-1 .447-1 1s.448 1 1 1h2c.553 0 1-.447 1-1s-.447-1-1-1zm-8.999 0c-.553 0-1 .447-1 1s.447 1 1 1h2c.553 0 1-.447 1-1s-.447-1-1-1zm17.999 5c-.553 0-1 .447-1 1s.447 1 1 1h2c.553 0 1-.447 1-1s-.447-1-1-1zm-9 0c-.552 0-1 .447-1 1s.448 1 1 1h2c.553 0 1-.447 1-1s-.447-1-1-1zm-8.999 0c-.553 0-1 .447-1 1s.447 1 1 1h2c.553 0 1-.447 1-1s-.447-1-1-1zm-19 6c-.553 0-1 .447-1 1s.447 1 1 1h3c.553 0 1-.447 1-1s-.447-1-1-1zm-11 0c-.553 0-1 .447-1 1s.447 1 1 1h6c.553 0 1-.447 1-1s-.447-1-1-1zm-27.999 0c-.552 0-1 .447-1 1s.448 1 1 1h22.999c.553 0 1-.447 1-1s-.447-1-1-1zm34.999 7c-.553 0-1 .447-1 1s.447 1 1 1h29c.552 0 .999-.447.999-1s-.447-1-.999-1zm-11 0c-.552 0-1 .447-1 1s.448 1 1 1h6c.553 0 1-.447 1-1s-.447-1-1-1zm-8 0c-.552 0-1 .447-1 1s.448 1 1 1h3.001c.551 0 1-.447 1-1s-.449-1-1-1z" fill="#fff" fill-rule="evenodd"/></mask><g fill="none" fill-rule="evenodd"><path d="m25 0 1 .504h21s4-.109 4 4.028v11.079h6v11.078s-.121 2.015-2 2.015h-13v16.115 1.007 8.058s.128 7.05-8 7.05h-28s-6-.224-6-8.058c2.089-2.429 2-2.014 2-2.014l3 2.014 3-2.014 3 1.007v-46.33s.082-5.035 4-5.035h10zm100 67.983h-26s-4 .499-4-4.028v-19.136h-.5l.5-1.007v-29.208s-.534-3.022 3-3.022h6v-6.043h2l3-2.014 3 2.014 3-2.014 3 2.014 2-1.007v7.05h4s5-1.163 5 4.029v48.344s.558 4.028-4 4.028z" fill="url(#a)" opacity=".3" transform="translate(1 14)"/><path d="m30.558 0c-3.063 0-5.556 2.475-5.556 5.515v8.485h-8.499c-3.028 0-5.492 2.237-5.498 4.99 0 .004-.002.006-.002.01v45.248l-.869-.93c-.379-.405-1.085-.405-1.463 0l-2.068 2.216-2.07-2.216c-.377-.405-1.083-.405-1.461 0l-2.8 2.999c-.241.26-.302.61-.22.929-.022.085-.052.169-.052.26 0 4.684 3.142 8.494 7.003 8.494h28.999.001c4.41-.001 7.996-3.589 7.996-8l.001-8h14.001v14h-6.999c-.552 0-1 .447-1 1 0 .552.448 1 1 1h6.999 21 7c.553 0 1-.448 1-1 0-.553-.447-1-1-1h-7v-14h16v20c0 1.654 1.346 3 3 3h29.999c1.654 0 3-1.346 3-3v-52c0-1.654-1.346-3-3-3h-4c-.552 0-1 .447-1 1s.448 1 1 1h4c.551 0 1 .448 1 1v52c0 .552-.449 1-1 1h-29.999c-.552 0-1-.448-1-1v-52c0-.552.448-1 1-1h4.006c.553 0 1-.447 1-1s-.447-1-1-1h-4.006c-1.654 0-3 1.346-3 3v23h-51l.001-7h11c2.205 0 3.999-1.822 3.999-4.062v-9.938c0-.553-.447-1-1-1h-4.999v-10c0-2.517-2.059-4.601-4.725-4.945-.089-.026-.177-.055-.275-.055h-20.999v-8.485c0-1.938 1.595-3.515 3.555-3.515h74.886c1.962 0 3.557 1.577 3.557 3.515v12.152l-2 1.333-3-2v21h-3c-.553 0-1 .447-1 1 0 .552.447 1 1 1h23.999c.553 0 1-.448 1-1 0-.553-.447-1-1-1h-3v-21l-3 2-3-2-3 2-2-1.333v-12.152c0-3.04-2.492-5.515-5.556-5.515zm13.446 19c0-1.654 1.569-3 3.499-3 1.929 0 3.499 1.346 3.499 3l-.001 20.938c0 .756.218 1.456.574 2.062h-7.573zm-.89-3c-.694.837-1.111 1.874-1.111 3l-.004 49c0 3.309-2.691 6-5.998 6-3.308 0-5.999-2.691-5.999-6 0-.186-.064-.351-.153-.499.22-.372.194-.851-.116-1.184l-2.8-2.999c-.189-.203-.453-.318-.73-.318-.278 0-.542.115-.731.318l-2.069 2.216-2.069-2.216c-.189-.203-.454-.318-.731-.318s-.543.115-.731.318l-2.07 2.216-2.068-2.216c-.378-.405-1.085-.405-1.463 0l-1.269 1.359v-45.67c0-.002.002-.004.002-.007 0-1.654 1.57-3 3.499-3zm70.995 4.664 1.891-1.261 1.891 1.261c.336.224.723.336 1.109.336.345 0 .691-.089 1-.269v17.269h-13.999v-17.268c.309.179.654.268 1 .268.387 0 .773-.112 1.109-.336l1.308-.872c.166.122.36.208.582.208.223 0 .417-.086.583-.208l1.309.872c.334.224.721.336 1.108.336s.773-.112 1.109-.336zm-61.107 19.274v-8.938h3.999v8.938c0 1.137-.897 2.062-1.999 2.062-1.104 0-2-.925-2-2.062zm-9.001 13.062h51v5h-16-21-14.001zm16 20.999h17v-13.999h-17zm-35.868-6.316 2.07-2.217 1.929 2.068c-.075.141-.129.295-.129.466 0 2.39 1.058 4.533 2.725 6h-23.725c-2.759 0-5.003-2.913-5.003-6.494 0-.031-.016-.059-.018-.089l1.821-1.951 2.069 2.217c.378.404 1.084.404 1.462 0l2.069-2.217 2.068 2.217c.378.404 1.085.404 1.463 0l2.068-2.217 2.069 2.217c.189.202.454.317.731.317s.542-.115.731-.317l2.07-2.217 2.068 2.217c.189.202.454.317.732.317.277 0 .542-.115.73-.317zm-5.126-33.683c-.552 0-1 .447-1 1s.448 1 1 1h16.995c.552 0 1-.447 1-1s-.448-1-1-1zm0 8c-.552 0-1 .448-1 1 0 .553.448 1 1 1h16.995c.552 0 1-.447 1-1 0-.552-.448-1-1-1zm83.994 4c-1.105 0-2 .895-2 2v12c0 1.105.895 2 2 2h19.999c1.105 0 2-.895 2-2v-12c0-1.105-.895-2-2-2zm0 14.001h19.999v-12.001h-19.999zm-83.994-10.001c-.552 0-1 .448-1 1 0 .553.448 1 1 1h16.995c.552 0 1-.447 1-1 0-.552-.448-1-1-1zm101.993 20c-.553 0-1 .447-1 1s.447 1 1 1h2c.553 0 1-.447 1-1s-.447-1-1-1zm-9 0c-.552 0-1 .447-1 1s.448 1 1 1h2c.553 0 1-.447 1-1s-.447-1-1-1zm-8.999 0c-.553 0-1 .447-1 1s.447 1 1 1h2c.553 0 1-.447 1-1s-.447-1-1-1zm17.999 5c-.553 0-1 .447-1 1s.447 1 1 1h2c.553 0 1-.447 1-1s-.447-1-1-1zm-9 0c-.552 0-1 .447-1 1s.448 1 1 1h2c.553 0 1-.447 1-1s-.447-1-1-1zm-8.999 0c-.553 0-1 .447-1 1s.447 1 1 1h2c.553 0 1-.447 1-1s-.447-1-1-1zm-19 6c-.553 0-1 .447-1 1s.447 1 1 1h3c.553 0 1-.447 1-1s-.447-1-1-1zm-11 0c-.553 0-1 .447-1 1s.447 1 1 1h6c.553 0 1-.447 1-1s-.447-1-1-1zm-27.999 0c-.552 0-1 .447-1 1s.448 1 1 1h22.999c.553 0 1-.447 1-1s-.447-1-1-1zm34.999 7c-.553 0-1 .447-1 1s.447 1 1 1h29c.552 0 .999-.447.999-1s-.447-1-.999-1zm-11 0c-.552 0-1 .447-1 1s.448 1 1 1h6c.553 0 1-.447 1-1s-.447-1-1-1zm-8 0c-.552 0-1 .447-1 1s.448 1 1 1h3.001c.551 0 1-.447 1-1s-.449-1-1-1z" fill="url(#b)" mask="url(#c)"/></g></svg>