<svg height="88" viewBox="0 0 122 88" width="122" xmlns="http://www.w3.org/2000/svg" xmlns:xlink="http://www.w3.org/1999/xlink"><linearGradient id="a"><stop offset="0" stop-color="#38b6c1"/><stop offset="1" stop-color="#5090df"/></linearGradient><linearGradient id="b" x1="50%" x2="50%" xlink:href="#a" y1="100%" y2="-.000001%"/><linearGradient id="c" x1="50%" x2="50%" xlink:href="#a" y1="100%" y2="0%"/><mask id="d" fill="#fff"><path d="m71 0c-2.757 0-5 2.243-5 5v8c0 2.757 2.243 5 5 5h8c2.757 0 5-2.243 5-5v-8c0-2.757-2.243-5-5-5zm-3 13v-8c0-1.658 1.343-3 3-3h8c1.657 0 3 1.342 3 3v8c0 1.657-1.343 3-3 3h-8c-1.657 0-3-1.343-3-3zm-19-13c-2.757 0-5 2.243-5 5v8c0 2.757 2.243 5 5 5h8c2.756 0 5-2.243 5-5v-8c0-2.757-2.244-5-5-5zm-3 13v-8c0-1.658 1.343-3 3-3h8c1.658 0 3 1.342 3 3v8c0 1.657-1.342 3-3 3h-8c-1.657 0-3-1.343-3-3zm-12-13c-.551 0-1 .447-1 1 0 .552.449 1 1 1h1c.552 0 1-.448 1-1 0-.553-.448-1-1-1zm-4 0c-.552 0-1 .447-1 1 0 .552.448 1 1 1h1c.552 0 1-.448 1-1 0-.553-.448-1-1-1zm-3 0c-.56 0-1.111.092-1.635.274-.523.181-.799.75-.619 1.273.143.413.531.673.945.673.108 0 .217-.018.324-.055.157-.054.318-.096.484-.123.008-.002.016-.003.023-.004.001 0 .004-.001.005-.001.006-.001.012-.001.018-.003h.001c.001 0 .002 0 .004-.001.005 0 .01-.001.014-.002h.001.003s.001 0 .001-.001h.003.001c.005-.001.01-.002.015-.002h.001c.001-.001.001-.001.002-.001h.002.003.001c.004 0 .01-.001.013-.001.001 0 .001-.001.002-.001h.003.002.002c0-.002.001-.002.001-.002.004 0 .007-.001.011-.001h.003c.001 0 .001 0 .001-.001h.004.001.003s.001 0 .001-.001c.003 0 .007 0 .01-.001h.003.002c.001-.001.002-.001.002-.001h.002.003.002.009s.001 0 .002-.001h.001.002.004.001c.001-.001.002-.001.002-.001h.001c.004 0 .008-.001.01-.001h.002.002.002c.001-.001.002-.001.003-.001h.002.002.002c.001 0 .002 0 .002-.001h.005.002.001c.001 0 .002 0 .002-.002h.004.002.001.002c.001 0 .002-.001.003-.001h.002.004.002.002c.001 0 .002-.001.002-.001h.003.002.002.002.002.004.003.002.002s.001 0 .002-.001h.003.001.003.002.003c.001 0 .001-.001.002-.001h.004.001.003.001.004s.001 0 .002-.001h.002.001.005.002.002.002c.001 0 .002-.001.002-.001h.004.001.002.003.002.003c.001 0 .002 0 .002-.001h.003.002.002.003.002.003.001c.001 0 .002-.001.002-.001h.006.003.002.004.003.002c.001 0 .002-.001.003-.001h.002.004.001.003.001.004.002.002.002.003.002c.002 0 .002-.001.004-.001h.001.003.003.002.002.003.001.004.001.004.001.003.003.002.001.003c.001 0 .002 0 .002-.001h.004.005.001.004.001.003.002.002.003.004.004.001.005.003.002.003.001.005c.552 0 1-.448 1-1 0-.553-.448-1-1-1zm-22 0c-2.757 0-5 2.243-5 5v8c0 2.757 2.243 5 5 5h8c2.757 0 5-2.243 5-5v-8c0-2.757-2.243-5-5-5zm-3 13v-8c0-1.658 1.343-3 3-3h8c1.657 0 3 1.342 3 3v8c0 1.657-1.343 3-3 3h-8c-1.657 0-3-1.343-3-3zm34.501-11.841c-.32.45-.215 1.075.235 1.394.148.105.285.222.411.351.006.007.012.013.018.02l.003.003h.001c.001.001.001.001.002.002.001 0 .001.002.001.002l.002.003c.004.002.007.005.01.01.001.001.001.001.002.002s.001 0 .001.001c.002 0 .003.001.003.002.001 0 .001.001.001.001.001.001.002.002.002.002v.001l.003.003c.002.003.005.005.006.007l.003.003.001.001c.001.001.001.002.002.002 0 .001.001.001.001.001.001.001.001.002.001.003h.002c.001 0 .001.001.002.002l.001.002c.001.001.001.002.002.002l.001.001.002.002c0 .001.001.001.001.001 0 .001.002.002.003.002 0 .001 0 .001.001.002.001 0 .001.002.002.003h.001c0 .001.001.001.001.002s.001.001.001.001c0 .001.001.001.001.002l.002.002s.002.001.003.001c0 .001 0 .001.001.002 0 .001.001.001.001.002s.001.001.001.001c.001.001.001.002.002.003s.001.001.002.001c0 .001.001.001.001.001.001.001.001.001.001.002.002 0 .002.002.002.003.001 0 .001.001.001.001l.002.002.001.001c.001.001.001.001.002.001 0 .001.001.001.001.002.001 0 .001.001.002.001v.003l.004.003h.001c0 .001.001.002.001.002.001.001.002.001.002.002v.001c.001.001.001.003.002.003s.001 0 .001.001c.002 0 .002.001.003.002l.001.001.002.002v.001c0 .001.001.001.001.002.001 0 .001 0 .002.002l.002.002c0 .001.001.002.003.002 0 .001.001.001.001.002l.001.001.001.001c0 .001.001.001.001.002.001 0 .001.002.002.002 0 .001.001.002.001.002l.002.002h.001c0 .001.001.002.001.002l.001.001c.001.001.001.002.002.002v.002c.002.001.003.003.004.004.001 0 .001 0 .001.001.001 0 .001.001.001.002l.001.001.003.002.001.002s.001.001.001.001l.002.002v.002c.001 0 .001 0 .001.001.001 0 .001.001.002.002h.001c.003.003.005.006.006.008 0 .001.001.001.001.001s.001.001.002.001c0 .001 0 .001.001.002s.001.001.001.003c.001 0 .001.001.001.001l.002.002h.001c.001.001.001.002.002.002 0 .001 0 .001.001.002s.001.001.001.002.001 0 .001.002c.001.001.002.002.004.003v.001c.001.001.002.001.002.002s.001.001.001.001c.001.001.001.002.002.002 0 .001.001.001.001.002s.001.001.001.002c.001 0 .001.001.002.001v.002s.001.001.001.002c.001 0 .001.001.003.001s.001 0 .001.001c.001.001.001.001.001.003l.003.003v.002h.002c0 .001 0 .001.001.002 0 .001.001.001.001.002.002 0 .002.001.003.001 0 .002 0 .002.001.003v.001c.001 0 .001.001.002.002s0 .001.001.001c0 .001.001.002.002.002 0 .001 0 .001.001.002l.002.002c0 .001 0 .001.001.002l.002.002c0 .001 0 .001.001.002l.002.002v.001l.002.002c.001.001.001.001.001.002.001 0 .001.001.002.002v.001c0 .001.002.002.003.002v.001c.001.001.002.001.003.002v.002l.003.003v.001s.001.001.001.002c.001 0 .001.001.001.001.001.001.001.002.003.002 0 .001.001.001.001.001.001.002.001.003.002.003v.001l.002.003v.001c.001.001.002.001.002.003h.001c.002.002.004.005.005.007s.002.003.003.003l.003.004v.001c.001.001.001.002.002.003s.001 0 .001.001c.001.001.001.001.002.002.004.006.006.01.011.016.001 0 .002.002.003.003.002.004.004.007.008.011.195.274.501.418.814.418.201 0 .404-.061.581-.187.448-.321.552-.946.23-1.396-.323-.451-.718-.845-1.172-1.168-.175-.125-.378-.184-.578-.184-.314 0-.621.145-.816.42zm-14.361 2.665c-.093.384-.14.779-.14 1.176v.287c0 .553.448 1 1 1s1-.447 1-1v-.287-.004-.001-.005-.004-.005-.001-.003-.001-.005-.005-.004-.001-.004-.001c0-.003 0-.006.001-.009v-.001-.003-.001-.005-.001-.003-.006-.001-.003-.001-.009c.001-.006.001-.013.001-.019.006-.206.035-.407.082-.6.129-.538-.202-1.078-.737-1.207-.079-.018-.158-.028-.237-.028-.451 0-.86.307-.97.765zm15.86 2.315v1c0 .552.448 1 1 1 .551 0 1-.448 1-1v-1c0-.552-.449-1-1-1-.552 0-1 .448-1 1zm-16 2.148v1c0 .552.448 1 1 1s1-.448 1-1v-1c0-.553-.448-1-1-1s-1 .447-1 1zm16 1.851v1.001c0 .553.448 1 1 1 .551 0 1-.447 1-1v-1.001c0-.551-.449-1-1-1-.552 0-1 .449-1 1zm-16 2.149v.713c0 .16.008.319.022.475.05.518.485.906.995.906.032 0 .064-.001.095-.004.549-.053.952-.539.902-1.088-.002-.019-.003-.037-.006-.056v-.003-.001c0-.002 0-.003 0-.005v-.001-.002-.002-.004-.001c0-.001 0-.002-.001-.003v-.003-.001c0-.005-.001-.01-.001-.015v-.004-.001-.003-.001c0-.002-.001-.004-.001-.005v-.004-.001-.004-.005c-.002-.02-.002-.038-.003-.058v-.004-.005c0-.002 0-.003-.001-.005v-.005-.028-.001-.005c0-.001-.001-.003-.001-.004v-.001-.004-.001-.003-.002-.003-.001-.004-.002-.003-.001-.004-.002-.002-.002-.002-.002-.003-.002-.005-.713c0-.553-.448-1-1-1s-1 .447-1 1zm15.787 1.824c-.026.064-.053.126-.081.188-.002.002-.002.003-.003.004-.001 0-.001.001-.002.003-.003.006-.005.011-.007.017s0 .001-.002.001c0 .001 0 .002-.001.003l-.001.001c0 .001-.001.003-.001.003-.001.001-.001.002-.001.003v.001c-.002.003-.003.007-.005.01-.002.001-.002.002-.003.003s-.001.002-.001.003c-.001 0-.001.001-.001.001v.003c-.001.001-.001.001-.001.002s-.001 0-.001.001-.001.001-.001.002-.001.001-.001.002l-.001.001c-.001.003-.001.004-.002.005l-.002.001v.002c0 .001-.001.002-.001.002 0 .001-.001.001-.001.002s-.001.001-.001.002-.001.001-.001.002-.001.001-.001.002-.001.001-.001.002-.001.001-.001.001c0 .001-.001.001-.001.002v.003c0 .001-.001.001-.001.002-.002.001-.002.002-.003.002 0 .001 0 .001-.001.001 0 .001 0 .002-.001.003 0 .001 0 .001-.001.003s-.001.001-.001.002-.001 0-.001.001v.002l-.001.001c0 .001-.001.002-.001.003-.001 0-.001.002-.001.002-.001 0-.001.001-.001.002l-.002.001c-.002.003-.003.005-.003.008s0 .001-.001.001c0 .001-.001.002-.001.003-.001 0-.001.001-.001.001 0 .001-.001.002-.001.003-.001 0-.001 0-.001 0-.001.001-.001.002-.003.004v.001c-.001.001-.001.002-.002.003-.002.004-.004.009-.006.012-.001.001-.001.002-.002.004-.001.001-.002.002-.002.004-.1.18-.22.349-.353.504-.362.418-.316 1.049.101 1.411.19.163.423.244.654.244.281 0 .559-.118.757-.346.365-.423.657-.9.862-1.418.205-.513-.044-1.094-.557-1.299-.122-.048-.247-.071-.371-.071-.397 0-.773.237-.929.628zm-13.507 1.988c-.253.49-.06 1.094.431 1.346.497.257 1.03.427 1.584.505.048.007.095.01.142.01.49 0 .918-.361.989-.859.077-.547-.303-1.052-.849-1.131-.278-.038-.544-.117-.794-.227-.001 0-.002 0-.002 0 0-.002-.001-.002-.001-.002-.001 0-.003-.001-.004-.001l-.001-.001c-.001 0-.002 0-.003-.001-.002-.002-.005-.003-.009-.004-.001 0-.001 0-.001 0-.001 0-.001-.001-.002-.001s-.001-.001-.002-.001-.001 0-.002-.001-.001 0-.003-.002 0 0-.001-.001-.001 0-.002-.001h-.002c-.001-.001-.002-.001-.003-.002-.001 0-.003 0-.004-.001h-.002c0-.001-.001-.001-.003-.002 0-.001-.001-.001-.003-.002h-.002c-.001-.001-.002-.001-.003-.003h-.001l-.011-.005c-.002-.001-.003-.001-.004-.002-.002-.001-.003-.001-.004-.002h-.001c-.026-.013-.053-.027-.08-.04-.146-.075-.303-.112-.457-.112-.362 0-.713.199-.89.543zm9.294-.099c-.552 0-.999.447-.999 1s.447 1 .999 1h1c.552 0 1-.447 1-1s-.448-1-1-1zm-4 0c-.553 0-1 .447-1 1s.447 1 1 1h1c.552 0 1-.447 1-1s-.448-1-1-1zm-4.574 8c-2.757 0-5 2.243-5 5v8c0 2.756 2.243 5 5 5h2v-2h-2c-1.658 0-3-1.342-3-3v-8c0-1.657 1.342-3 3-3h8c1.657 0 3 1.343 3 3v8c0 .808-.335 1.524-.856 2.062v-1.781c0-2.057-1.447-3.916-3.486-4.248-.184-.025-.367-.036-.546-.036-2.253 0-4.06 1.871-4.06 4.085v27.615c0 .341-.297.572-.579.572-.159 0-.313-.072-.407-.24l-4.738-7.235c-.672-.997-1.82-1.539-3.027-1.539-.803 0-1.632.238-2.367.742-1.842 1.261-2.501 3.651-1.382 5.311s13.225 20.18 13.29 20.247c2.368 3.386 6.25 5.443 10.526 5.443h3.882c5.79 0 11.053-3.585 13.093-9.094.592-1.66.658-2.789.658-4.049v-15.867c0-1.991-1.448-3.915-3.487-4.182-.18-.026-.358-.038-.534-.038-1.182 0-2.275.558-3.019 1.366-.461-1.792-2.04-3.121-3.947-3.121-1.251 0-2.369.598-3.093 1.462-.526-1.661-2.039-2.855-3.881-2.855-1.119 0-2.106.465-2.896 1.194v-11.314c1.683-.806 2.856-2.513 2.856-4.5v-8c0-2.757-2.243-5-5-5zm4.052 40.697v-27.615c0-.549.217-1.07.61-1.47.392-.397.906-.616 1.45-.616.083 0 .168.005.253.016 1.017.181 1.779 1.15 1.779 2.269v12.231c-.083.147-.144.307-.144.488v11c0 .553.448 1 1 1 .553 0 1-.447 1-1v-6.2c.048.003.096.014.144.014.495 0 .982-.182 1.359-.531.475-.44.992-.663 1.537-.663.918 0 1.693.572 1.975 1.459.041.132.107.25.174.368-.11.16-.189.344-.189.553v5c0 .553.447 1 1 1s1-.447 1-1v-4.534c.556-.023 1.087-.268 1.453-.706.391-.467.975-.746 1.561-.746.938 0 1.765.666 2.01 1.617.06.235.173.443.307.636-.2.182-.331.44-.331.733v5c0 .552.447 1 1 1 .552 0 1-.448 1-1v-4.87c.538-.011 1.059-.234 1.432-.642.415-.451.994-.721 1.548-.721.082 0 .167.008.276.023 1.044.136 1.745 1.246 1.745 2.198v15.867c0 1.053-.04 1.971-.534 3.354-1.724 4.659-6.231 7.789-11.217 7.789h-3.882c-3.554 0-6.877-1.716-8.888-4.59-.003-.005-.008-.01-.01-.016-.485-.713-9.709-14.782-13.26-20.202-.481-.715-.082-1.902.853-2.543.375-.256.803-.392 1.238-.392.58 0 1.091.245 1.354.634l4.714 7.2c.452.741 1.232 1.179 2.104 1.179 1.422 0 2.579-1.152 2.579-2.571zm19.948-36.697c-.553 0-1 .447-1 1s.447 1 1 1h3c.553 0 1-.447 1-1s-.447-1-1-1zm8 4c-.553 0-1 .447-1 1s.447 1 1 1h1c.553 0 1-.447 1-1s-.447-1-1-1zm-10 0c-.553 0-1 .447-1 1s.447 1 1 1h6c.553 0 1-.447 1-1s-.447-1-1-1zm50 3c-2.757 0-5 2.244-5 5v8c0 2.757 2.243 5 5 5h8c2.757 0 5-2.243 5-5v-8c0-2.756-2.243-5-5-5zm-3 13v-8c0-1.658 1.342-3 3-3h8c1.657 0 3 1.342 3 3v8c0 1.657-1.343 3-3 3h-8c-1.658 0-3-1.343-3-3zm-45-12c-.553 0-1 .447-1 1 0 .552.447 1 1 1h15c.553 0 1-.448 1-1 0-.553-.447-1-1-1zm5 14c0 .553.447 1 1 1 2.206 0 4 1.794 4 4 0 .552.448 1 1 1 .553 0 1-.448 1-1 0-3.309-2.692-6-6-6-.553 0-1 .448-1 1zm55 7c-2.757 0-5 2.243-5 5v8c0 2.757 2.243 5 5 5h8c2.757 0 5-2.243 5-5v-8c0-2.757-2.243-5-5-5zm-3 13v-8c0-1.657 1.343-3 3-3h8c1.657 0 3 1.343 3 3v8c0 1.657-1.343 3-3 3h-8c-1.657 0-3-1.343-3-3zm-19-6c-2.756 0-5 2.243-5 5v8c0 2.757 2.244 5 5 5h8c2.757 0 5-2.243 5-5v-8c0-2.757-2.243-5-5-5zm-3 13v-8c0-1.657 1.342-3 3-3h8c1.657 0 3 1.343 3 3v8c0 1.657-1.343 3-3 3h-8c-1.658 0-3-1.343-3-3zm-25-5v3.638c0 1.136-.044 2.129-.594 3.654-.282.752-.638 1.481-1.057 2.169-.288.471-.139 1.087.332 1.375.163.1.342.146.52.146.337 0 .666-.17.854-.478.487-.796.899-1.641 1.227-2.521.663-1.836.718-3.103.718-4.345v-3.638c0-.553-.447-1-1-1-.552 0-1 .447-1 1zm-2.971 12.259c-.8.725-1.692 1.351-2.65 1.857-.489.258-.675.863-.416 1.352.179.339.527.532.885.532.157 0 .317-.037.466-.116 1.106-.585 2.135-1.306 3.059-2.143.409-.371.44-1.003.07-1.413-.197-.218-.469-.328-.741-.328-.24 0-.481.086-.673.259z" fill="#fff" fill-rule="evenodd"/></mask><g fill="none" fill-rule="evenodd"><path d="m11 14h-8c-1.657 0-3-1.343-3-3v-8c0-1.657 1.343-3 3-3h8c1.657 0 3 1.343 3 3v8c0 1.657-1.343 3-3 3m35.961 40.134c.855-.929 2.171-1.527 3.553-1.327 2.04.265 3.487 2.19 3.487 4.181v15.866c0 1.261-.066 2.39-.658 4.049-2.04 5.51-7.303 9.095-13.093 9.095h-3.882c-4.276 0-8.158-2.058-10.526-5.443-.066-.067-13.29-20.247-13.29-20.247-1.118-1.66-.46-4.05 1.382-5.311 1.841-1.262 4.276-.863 5.394.797l4.737 7.235c.263.465.988.2.988-.332v-27.615c0-2.39 2.104-4.382 4.604-4.05 2.04.332 3.488 2.192 3.488 4.249v15.533c.79-.729 1.776-1.194 2.894-1.194 1.843 0 3.356 1.194 3.882 2.855.724-.864 1.843-1.461 3.093-1.461 1.908 0 3.486 1.328 3.947 3.12m8.039-40.134h-8c-1.657 0-3-1.343-3-3v-8c0-1.657 1.343-3 3-3h8c1.657 0 3 1.343 3 3v8c0 1.657-1.343 3-3 3m22 0h-8c-1.657 0-3-1.343-3-3v-8c0-1.657 1.343-3 3-3h8c1.657 0 3 1.343 3 3v8c0 1.657-1.343 3-3 3" fill="url(#b)" opacity=".3" transform="translate(2 2)"/><path d="m71 0c-2.757 0-5 2.243-5 5v8c0 2.757 2.243 5 5 5h8c2.757 0 5-2.243 5-5v-8c0-2.757-2.243-5-5-5zm-3 13v-8c0-1.658 1.343-3 3-3h8c1.657 0 3 1.342 3 3v8c0 1.657-1.343 3-3 3h-8c-1.657 0-3-1.343-3-3zm-19-13c-2.757 0-5 2.243-5 5v8c0 2.757 2.243 5 5 5h8c2.756 0 5-2.243 5-5v-8c0-2.757-2.244-5-5-5zm-3 13v-8c0-1.658 1.343-3 3-3h8c1.658 0 3 1.342 3 3v8c0 1.657-1.342 3-3 3h-8c-1.657 0-3-1.343-3-3zm-12-13c-.551 0-1 .447-1 1 0 .552.449 1 1 1h1c.552 0 1-.448 1-1 0-.553-.448-1-1-1zm-4 0c-.552 0-1 .447-1 1 0 .552.448 1 1 1h1c.552 0 1-.448 1-1 0-.553-.448-1-1-1zm-3 0c-.56 0-1.111.092-1.635.274-.523.181-.799.75-.619 1.273.143.413.531.673.945.673.108 0 .217-.018.324-.055.157-.054.318-.096.484-.123.008-.002.016-.003.023-.004.001 0 .004-.001.005-.001.006-.001.012-.001.018-.003h.001c.001 0 .002 0 .004-.001.005 0 .01-.001.014-.002h.001.003s.001 0 .001-.001h.003.001c.005-.001.01-.002.015-.002h.001c.001-.001.001-.001.002-.001h.002.003.001c.004 0 .01-.001.013-.001.001 0 .001-.001.002-.001h.003.002.002c0-.002.001-.002.001-.002.004 0 .007-.001.011-.001h.003c.001 0 .001 0 .001-.001h.004.001.003s.001 0 .001-.001c.003 0 .007 0 .01-.001h.003.002c.001-.001.002-.001.002-.001h.002.003.002.009s.001 0 .002-.001h.001.002.004.001c.001-.001.002-.001.002-.001h.001c.004 0 .008-.001.01-.001h.002.002.002c.001-.001.002-.001.003-.001h.002.002.002c.001 0 .002 0 .002-.001h.005.002.001c.001 0 .002 0 .002-.002h.004.002.001.002c.001 0 .002-.001.003-.001h.002.004.002.002c.001 0 .002-.001.002-.001h.003.002.002.002.002.004.003.002.002s.001 0 .002-.001h.003.001.003.002.003c.001 0 .001-.001.002-.001h.004.001.003.001.004s.001 0 .002-.001h.002.001.005.002.002.002c.001 0 .002-.001.002-.001h.004.001.002.003.002.003c.001 0 .002 0 .002-.001h.003.002.002.003.002.003.001c.001 0 .002-.001.002-.001h.006.003.002.004.003.002c.001 0 .002-.001.003-.001h.002.004.001.003.001.004.002.002.002.003.002c.002 0 .002-.001.004-.001h.001.003.003.002.002.003.001.004.001.004.001.003.003.002.001.003c.001 0 .002 0 .002-.001h.004.005.001.004.001.003.002.002.003.004.004.001.005.003.002.003.001.005c.552 0 1-.448 1-1 0-.553-.448-1-1-1zm-22 0c-2.757 0-5 2.243-5 5v8c0 2.757 2.243 5 5 5h8c2.757 0 5-2.243 5-5v-8c0-2.757-2.243-5-5-5zm-3 13v-8c0-1.658 1.343-3 3-3h8c1.657 0 3 1.342 3 3v8c0 1.657-1.343 3-3 3h-8c-1.657 0-3-1.343-3-3zm34.501-11.841c-.32.45-.215 1.075.235 1.394.148.105.285.222.411.351.006.007.012.013.018.02l.003.003h.001c.001.001.001.001.002.002.001 0 .001.002.001.002l.002.003c.004.002.007.005.01.01.001.001.001.001.002.002s.001 0 .001.001c.002 0 .003.001.003.002.001 0 .001.001.001.001.001.001.002.002.002.002v.001l.003.003c.002.003.005.005.006.007l.003.003.001.001c.001.001.001.002.002.002 0 .001.001.001.001.001.001.001.001.002.001.003h.002c.001 0 .001.001.002.002l.001.002c.001.001.001.002.002.002l.001.001.002.002c0 .001.001.001.001.001 0 .001.002.002.003.002 0 .001 0 .001.001.002.001 0 .001.002.002.003h.001c0 .001.001.001.001.002s.001.001.001.001c0 .001.001.001.001.002l.002.002s.002.001.003.001c0 .001 0 .001.001.002 0 .001.001.001.001.002s.001.001.001.001c.001.001.001.002.002.003s.001.001.002.001c0 .001.001.001.001.001.001.001.001.001.001.002.002 0 .002.002.002.003.001 0 .001.001.001.001l.002.002.001.001c.001.001.001.001.002.001 0 .001.001.001.001.002.001 0 .001.001.002.001v.003l.004.003h.001c0 .001.001.002.001.002.001.001.002.001.002.002v.001c.001.001.001.003.002.003s.001 0 .001.001c.002 0 .002.001.003.002l.001.001.002.002v.001c0 .001.001.001.001.002.001 0 .001 0 .002.002l.002.002c0 .001.001.002.003.002 0 .001.001.001.001.002l.001.001.001.001c0 .001.001.001.001.002.001 0 .001.002.002.002 0 .001.001.002.001.002l.002.002h.001c0 .001.001.002.001.002l.001.001c.001.001.001.002.002.002v.002c.002.001.003.003.004.004.001 0 .001 0 .001.001.001 0 .001.001.001.002l.001.001.003.002.001.002s.001.001.001.001l.002.002v.002c.001 0 .001 0 .001.001.001 0 .001.001.002.002h.001c.003.003.005.006.006.008 0 .001.001.001.001.001s.001.001.002.001c0 .001 0 .001.001.002s.001.001.001.003c.001 0 .001.001.001.001l.002.002h.001c.001.001.001.002.002.002 0 .001 0 .001.001.002s.001.001.001.002.001 0 .001.002c.001.001.002.002.004.003v.001c.001.001.002.001.002.002s.001.001.001.001c.001.001.001.002.002.002 0 .001.001.001.001.002s.001.001.001.002c.001 0 .001.001.002.001v.002s.001.001.001.002c.001 0 .001.001.003.001s.001 0 .001.001c.001.001.001.001.001.003l.003.003v.002h.002c0 .001 0 .001.001.002 0 .001.001.001.001.002.002 0 .002.001.003.001 0 .002 0 .002.001.003v.001c.001 0 .001.001.002.002s0 .001.001.001c0 .001.001.002.002.002 0 .001 0 .001.001.002l.002.002c0 .001 0 .001.001.002l.002.002c0 .001 0 .001.001.002l.002.002v.001l.002.002c.001.001.001.001.001.002.001 0 .001.001.002.002v.001c0 .001.002.002.003.002v.001c.001.001.002.001.003.002v.002l.003.003v.001s.001.001.001.002c.001 0 .001.001.001.001.001.001.001.002.003.002 0 .001.001.001.001.001.001.002.001.003.002.003v.001l.002.003v.001c.001.001.002.001.002.003h.001c.002.002.004.005.005.007s.002.003.003.003l.003.004v.001c.001.001.001.002.002.003s.001 0 .001.001c.001.001.001.001.002.002.004.006.006.01.011.016.001 0 .002.002.003.003.002.004.004.007.008.011.195.274.501.418.814.418.201 0 .404-.061.581-.187.448-.321.552-.946.23-1.396-.323-.451-.718-.845-1.172-1.168-.175-.125-.378-.184-.578-.184-.314 0-.621.145-.816.42zm-14.361 2.665c-.093.384-.14.779-.14 1.176v.287c0 .553.448 1 1 1s1-.447 1-1v-.287-.004-.001-.005-.004-.005-.001-.003-.001-.005-.005-.004-.001-.004-.001c0-.003 0-.006.001-.009v-.001-.003-.001-.005-.001-.003-.006-.001-.003-.001-.009c.001-.006.001-.013.001-.019.006-.206.035-.407.082-.6.129-.538-.202-1.078-.737-1.207-.079-.018-.158-.028-.237-.028-.451 0-.86.307-.97.765zm15.86 2.315v1c0 .552.448 1 1 1 .551 0 1-.448 1-1v-1c0-.552-.449-1-1-1-.552 0-1 .448-1 1zm-16 2.148v1c0 .552.448 1 1 1s1-.448 1-1v-1c0-.553-.448-1-1-1s-1 .447-1 1zm16 1.851v1.001c0 .553.448 1 1 1 .551 0 1-.447 1-1v-1.001c0-.551-.449-1-1-1-.552 0-1 .449-1 1zm-16 2.149v.713c0 .16.008.319.022.475.05.518.485.906.995.906.032 0 .064-.001.095-.004.549-.053.952-.539.902-1.088-.002-.019-.003-.037-.006-.056v-.003-.001c0-.002 0-.003 0-.005v-.001-.002-.002-.004-.001c0-.001 0-.002-.001-.003v-.003-.001c0-.005-.001-.01-.001-.015v-.004-.001-.003-.001c0-.002-.001-.004-.001-.005v-.004-.001-.004-.005c-.002-.02-.002-.038-.003-.058v-.004-.005c0-.002 0-.003-.001-.005v-.005-.028-.001-.005c0-.001-.001-.003-.001-.004v-.001-.004-.001-.003-.002-.003-.001-.004-.002-.003-.001-.004-.002-.002-.002-.002-.002-.003-.002-.005-.713c0-.553-.448-1-1-1s-1 .447-1 1zm15.787 1.824c-.026.064-.053.126-.081.188-.002.002-.002.003-.003.004-.001 0-.001.001-.002.003-.003.006-.005.011-.007.017s0 .001-.002.001c0 .001 0 .002-.001.003l-.001.001c0 .001-.001.003-.001.003-.001.001-.001.002-.001.003v.001c-.002.003-.003.007-.005.01-.002.001-.002.002-.003.003s-.001.002-.001.003c-.001 0-.001.001-.001.001v.003c-.001.001-.001.001-.001.002s-.001 0-.001.001-.001.001-.001.002-.001.001-.001.002l-.001.001c-.001.003-.001.004-.002.005l-.002.001v.002c0 .001-.001.002-.001.002 0 .001-.001.001-.001.002s-.001.001-.001.002-.001.001-.001.002-.001.001-.001.002-.001.001-.001.002-.001.001-.001.001c0 .001-.001.001-.001.002v.003c0 .001-.001.001-.001.002-.002.001-.002.002-.003.002 0 .001 0 .001-.001.001 0 .001 0 .002-.001.003 0 .001 0 .001-.001.003s-.001.001-.001.002-.001 0-.001.001v.002l-.001.001c0 .001-.001.002-.001.003-.001 0-.001.002-.001.002-.001 0-.001.001-.001.002l-.002.001c-.002.003-.003.005-.003.008s0 .001-.001.001c0 .001-.001.002-.001.003-.001 0-.001.001-.001.001 0 .001-.001.002-.001.003-.001 0-.001 0-.001 0-.001.001-.001.002-.003.004v.001c-.001.001-.001.002-.002.003-.002.004-.004.009-.006.012-.001.001-.001.002-.002.004-.001.001-.002.002-.002.004-.1.18-.22.349-.353.504-.362.418-.316 1.049.101 1.411.19.163.423.244.654.244.281 0 .559-.118.757-.346.365-.423.657-.9.862-1.418.205-.513-.044-1.094-.557-1.299-.122-.048-.247-.071-.371-.071-.397 0-.773.237-.929.628zm-13.507 1.988c-.253.49-.06 1.094.431 1.346.497.257 1.03.427 1.584.505.048.007.095.01.142.01.49 0 .918-.361.989-.859.077-.547-.303-1.052-.849-1.131-.278-.038-.544-.117-.794-.227-.001 0-.002 0-.002 0 0-.002-.001-.002-.001-.002-.001 0-.003-.001-.004-.001l-.001-.001c-.001 0-.002 0-.003-.001-.002-.002-.005-.003-.009-.004-.001 0-.001 0-.001 0-.001 0-.001-.001-.002-.001s-.001-.001-.002-.001-.001 0-.002-.001-.001 0-.003-.002 0 0-.001-.001-.001 0-.002-.001h-.002c-.001-.001-.002-.001-.003-.002-.001 0-.003 0-.004-.001h-.002c0-.001-.001-.001-.003-.002 0-.001-.001-.001-.003-.002h-.002c-.001-.001-.002-.001-.003-.003h-.001l-.011-.005c-.002-.001-.003-.001-.004-.002-.002-.001-.003-.001-.004-.002h-.001c-.026-.013-.053-.027-.08-.04-.146-.075-.303-.112-.457-.112-.362 0-.713.199-.89.543zm9.294-.099c-.552 0-.999.447-.999 1s.447 1 .999 1h1c.552 0 1-.447 1-1s-.448-1-1-1zm-4 0c-.553 0-1 .447-1 1s.447 1 1 1h1c.552 0 1-.447 1-1s-.448-1-1-1zm-4.574 8c-2.757 0-5 2.243-5 5v8c0 2.756 2.243 5 5 5h2v-2h-2c-1.658 0-3-1.342-3-3v-8c0-1.657 1.342-3 3-3h8c1.657 0 3 1.343 3 3v8c0 .808-.335 1.524-.856 2.062v-1.781c0-2.057-1.447-3.916-3.486-4.248-.184-.025-.367-.036-.546-.036-2.253 0-4.06 1.871-4.06 4.085v27.615c0 .341-.297.572-.579.572-.159 0-.313-.072-.407-.24l-4.738-7.235c-.672-.997-1.82-1.539-3.027-1.539-.803 0-1.632.238-2.367.742-1.842 1.261-2.501 3.651-1.382 5.311s13.225 20.18 13.29 20.247c2.368 3.386 6.25 5.443 10.526 5.443h3.882c5.79 0 11.053-3.585 13.093-9.094.592-1.66.658-2.789.658-4.049v-15.867c0-1.991-1.448-3.915-3.487-4.182-.18-.026-.358-.038-.534-.038-1.182 0-2.275.558-3.019 1.366-.461-1.792-2.04-3.121-3.947-3.121-1.251 0-2.369.598-3.093 1.462-.526-1.661-2.039-2.855-3.881-2.855-1.119 0-2.106.465-2.896 1.194v-11.314c1.683-.806 2.856-2.513 2.856-4.5v-8c0-2.757-2.243-5-5-5zm4.052 40.697v-27.615c0-.549.217-1.07.61-1.47.392-.397.906-.616 1.45-.616.083 0 .168.005.253.016 1.017.181 1.779 1.15 1.779 2.269v12.231c-.083.147-.144.307-.144.488v11c0 .553.448 1 1 1 .553 0 1-.447 1-1v-6.2c.048.003.096.014.144.014.495 0 .982-.182 1.359-.531.475-.44.992-.663 1.537-.663.918 0 1.693.572 1.975 1.459.041.132.107.25.174.368-.11.16-.189.344-.189.553v5c0 .553.447 1 1 1s1-.447 1-1v-4.534c.556-.023 1.087-.268 1.453-.706.391-.467.975-.746 1.561-.746.938 0 1.765.666 2.01 1.617.06.235.173.443.307.636-.2.182-.331.44-.331.733v5c0 .552.447 1 1 1 .552 0 1-.448 1-1v-4.87c.538-.011 1.059-.234 1.432-.642.415-.451.994-.721 1.548-.721.082 0 .167.008.276.023 1.044.136 1.745 1.246 1.745 2.198v15.867c0 1.053-.04 1.971-.534 3.354-1.724 4.659-6.231 7.789-11.217 7.789h-3.882c-3.554 0-6.877-1.716-8.888-4.59-.003-.005-.008-.01-.01-.016-.485-.713-9.709-14.782-13.26-20.202-.481-.715-.082-1.902.853-2.543.375-.256.803-.392 1.238-.392.58 0 1.091.245 1.354.634l4.714 7.2c.452.741 1.232 1.179 2.104 1.179 1.422 0 2.579-1.152 2.579-2.571zm19.948-36.697c-.553 0-1 .447-1 1s.447 1 1 1h3c.553 0 1-.447 1-1s-.447-1-1-1zm8 4c-.553 0-1 .447-1 1s.447 1 1 1h1c.553 0 1-.447 1-1s-.447-1-1-1zm-10 0c-.553 0-1 .447-1 1s.447 1 1 1h6c.553 0 1-.447 1-1s-.447-1-1-1zm50 3c-2.757 0-5 2.244-5 5v8c0 2.757 2.243 5 5 5h8c2.757 0 5-2.243 5-5v-8c0-2.756-2.243-5-5-5zm-3 13v-8c0-1.658 1.342-3 3-3h8c1.657 0 3 1.342 3 3v8c0 1.657-1.343 3-3 3h-8c-1.658 0-3-1.343-3-3zm-45-12c-.553 0-1 .447-1 1 0 .552.447 1 1 1h15c.553 0 1-.448 1-1 0-.553-.447-1-1-1zm5 14c0 .553.447 1 1 1 2.206 0 4 1.794 4 4 0 .552.448 1 1 1 .553 0 1-.448 1-1 0-3.309-2.692-6-6-6-.553 0-1 .448-1 1zm55 7c-2.757 0-5 2.243-5 5v8c0 2.757 2.243 5 5 5h8c2.757 0 5-2.243 5-5v-8c0-2.757-2.243-5-5-5zm-3 13v-8c0-1.657 1.343-3 3-3h8c1.657 0 3 1.343 3 3v8c0 1.657-1.343 3-3 3h-8c-1.657 0-3-1.343-3-3zm-19-6c-2.756 0-5 2.243-5 5v8c0 2.757 2.244 5 5 5h8c2.757 0 5-2.243 5-5v-8c0-2.757-2.243-5-5-5zm-3 13v-8c0-1.657 1.342-3 3-3h8c1.657 0 3 1.343 3 3v8c0 1.657-1.343 3-3 3h-8c-1.658 0-3-1.343-3-3zm-25-5v3.638c0 1.136-.044 2.129-.594 3.654-.282.752-.638 1.481-1.057 2.169-.288.471-.139 1.087.332 1.375.163.1.342.146.52.146.337 0 .666-.17.854-.478.487-.796.899-1.641 1.227-2.521.663-1.836.718-3.103.718-4.345v-3.638c0-.553-.447-1-1-1-.552 0-1 .447-1 1zm-2.971 12.259c-.8.725-1.692 1.351-2.65 1.857-.489.258-.675.863-.416 1.352.179.339.527.532.885.532.157 0 .317-.037.466-.116 1.106-.585 2.135-1.306 3.059-2.143.409-.371.44-1.003.07-1.413-.197-.218-.469-.328-.741-.328-.24 0-.481.086-.673.259z" fill="url(#c)" mask="url(#d)"/></g></svg>