<svg height="90" viewBox="0 0 92 90" width="92" xmlns="http://www.w3.org/2000/svg" xmlns:xlink="http://www.w3.org/1999/xlink"><linearGradient id="a" x1="50%" x2="50%" y1="100%" y2="0%"><stop offset="0" stop-color="#38b6c1"/><stop offset="1" stop-color="#5090df"/></linearGradient><mask id="b" fill="#fff"><path d="m48.5 10c1.933 0 3.5-1.567 3.5-3.5s-1.567-3.5-3.5-3.5-3.5 1.567-3.5 3.5m-8.5 3.5c1.933 0 3.5-1.567 3.5-3.5s-1.567-3.5-3.5-3.5-3.5 1.567-3.5 3.5m20-6.5c1.657 0 3 1.343 3 3v45c0 1.657-1.343 3-3 3h-50c-1.657 0-3-1.343-3-3v-45c0-1.657 1.343-3 3-3" fill="#fff" fill-rule="evenodd"/></mask><mask id="c" fill="#fff"><path d="m88 0c-2.206 0-4 1.795-4 4 0 1.858 1.279 3.411 3 3.858v10.142h-11v-3c0-3.309-2.691-6-6-6h-48c-3.309 0-6 2.691-6 6v3h-11v-10.142c1.72-.447 3-2 3-3.858 0-2.205-1.794-4-4-4s-4 1.795-4 4c0 1.858 1.279 3.411 3 3.858v11.142c0 .553.447 1 1 1h12v17h-8.143c-.446-1.72-1.999-3-3.857-3-2.206 0-4 1.795-4 4 0 2.206 1.794 4 4 4 1.858 0 3.411-1.279 3.857-3h8.143v15h-12c-.553 0-1 .448-1 1v11.142c-1.721.447-3 2-3 3.858 0 2.205 1.794 4 4 4s4-1.795 4-4c0-1.858-1.28-3.411-3-3.858v-10.142h11v2c0 3.309 2.691 6 6 6h23v18.142c-1.721.447-3 2-3 3.858 0 2.205 1.794 4 4 4s4-1.795 4-4c0-1.858-1.279-3.411-3-3.858v-18.142h23c3.309 0 6-2.691 6-6v-2h11v10.142c-1.721.447-3 2-3 3.858 0 2.205 1.794 4 4 4s4-1.795 4-4c0-1.858-1.279-3.411-3-3.858v-11.142c0-.552-.447-1-1-1h-12v-15h8.143c.446 1.721 1.999 3 3.857 3 2.206 0 4-1.794 4-4 0-2.205-1.794-4-4-4-1.858 0-3.411 1.28-3.857 3h-8.143v-17h12c.553 0 1-.447 1-1v-11.142c1.721-.447 3-2 3-3.858 0-2.205-1.794-4-4-4zm-2 4c0-1.103.898-2 2-2 1.103 0 2 .897 2 2s-.897 2-2 2c-1.102 0-2-.897-2-2zm-84 0c0-1.103.897-2 2-2 1.102 0 2 .897 2 2s-.898 2-2 2c-1.103 0-2-.897-2-2zm16 11c0-2.209 1.791-4 4-4h48c2.209 0 4 1.791 4 4v9h-56zm0 43v-32h56v32c0 2.209-1.791 4-4 4h-48c-2.209 0-4-1.791-4-4zm68-20c0-1.103.898-2 2-2 1.103 0 2 .897 2 2s-.897 2-2 2c-1.102 0-2-.897-2-2zm-84 0c0-1.103.897-2 2-2 1.102 0 2 .897 2 2s-.898 2-2 2c-1.103 0-2-.897-2-2zm84 32c0-1.103.898-2 2-2 1.103 0 2 .897 2 2s-.897 2-2 2c-1.102 0-2-.897-2-2zm-84 0c0-1.103.897-2 2-2 1.102 0 2 .897 2 2s-.898 2-2 2c-1.103 0-2-.897-2-2zm42 16c0-1.103.897-2 2-2 1.102 0 2 .897 2 2s-.898 2-2 2c-1.103 0-2-.897-2-2zm18-68.5c0 2.482 2.019 4.5 4.5 4.5s4.5-2.018 4.5-4.5-2.019-4.5-4.5-4.5-4.5 2.018-4.5 4.5zm2 0c0-1.378 1.121-2.5 2.5-2.5s2.5 1.122 2.5 2.5-1.121 2.5-2.5 2.5-2.5-1.122-2.5-2.5zm-14 0c0 2.482 2.018 4.5 4.5 4.5s4.5-2.018 4.5-4.5-2.018-4.5-4.5-4.5-4.5 2.018-4.5 4.5zm2 0c0-1.378 1.121-2.5 2.5-2.5s2.5 1.122 2.5 2.5-1.121 2.5-2.5 2.5-2.5-1.122-2.5-2.5zm-28-.5c-.552 0-1 .447-1 1s.448 1 1 1h22c.553 0 1-.447 1-1s-.447-1-1-1zm4 17c-.553 0-1 .447-1 1 0 .552.447 1 1 1h36c.553 0 1-.448 1-1 0-.553-.447-1-1-1zm0 7c-.553 0-1 .448-1 1s.447 1 1 1h36c.553 0 1-.448 1-1s-.447-1-1-1zm0 7c-.553 0-1 .448-1 1s.447 1 1 1h36c.553 0 1-.448 1-1s-.447-1-1-1zm25 37c-.553 0-1 .448-1 1s.447 1 1 1h15c.553 0 1-.448 1-1s-.447-1-1-1zm-29 0c-.552 0-1 .448-1 1s.448 1 1 1h15c.552 0 1-.448 1-1s-.448-1-1-1z" fill="#fff" fill-rule="evenodd"/></mask><g fill="url(#a)" fill-rule="evenodd"><path d="m48.5 10c-1.933 0-3.5-1.567-3.5-3.5s1.567-3.5 3.5-3.5 3.5 1.567 3.5 3.5-1.567 3.5-3.5 3.5m-12 0c-1.933 0-3.5-1.567-3.5-3.5s1.567-3.5 3.5-3.5 3.5 1.567 3.5 3.5-1.567 3.5-3.5 3.5m16.5-10h-50c-1.657 0-3 1.343-3 3v45c0 1.657 1.343 3 3 3h50c1.657 0 3-1.343 3-3v-45c0-1.657-1.343-3-3-3" mask="url(#b)" opacity=".3" transform="translate(18 11)"/><path d="m88 0c-2.206 0-4 1.795-4 4 0 1.858 1.279 3.411 3 3.858v10.142h-11v-3c0-3.309-2.691-6-6-6h-48c-3.309 0-6 2.691-6 6v3h-11v-10.142c1.72-.447 3-2 3-3.858 0-2.205-1.794-4-4-4s-4 1.795-4 4c0 1.858 1.279 3.411 3 3.858v11.142c0 .553.447 1 1 1h12v17h-8.143c-.446-1.72-1.999-3-3.857-3-2.206 0-4 1.795-4 4 0 2.206 1.794 4 4 4 1.858 0 3.411-1.279 3.857-3h8.143v15h-12c-.553 0-1 .448-1 1v11.142c-1.721.447-3 2-3 3.858 0 2.205 1.794 4 4 4s4-1.795 4-4c0-1.858-1.28-3.411-3-3.858v-10.142h11v2c0 3.309 2.691 6 6 6h23v18.142c-1.721.447-3 2-3 3.858 0 2.205 1.794 4 4 4s4-1.795 4-4c0-1.858-1.279-3.411-3-3.858v-18.142h23c3.309 0 6-2.691 6-6v-2h11v10.142c-1.721.447-3 2-3 3.858 0 2.205 1.794 4 4 4s4-1.795 4-4c0-1.858-1.279-3.411-3-3.858v-11.142c0-.552-.447-1-1-1h-12v-15h8.143c.446 1.721 1.999 3 3.857 3 2.206 0 4-1.794 4-4 0-2.205-1.794-4-4-4-1.858 0-3.411 1.28-3.857 3h-8.143v-17h12c.553 0 1-.447 1-1v-11.142c1.721-.447 3-2 3-3.858 0-2.205-1.794-4-4-4zm-2 4c0-1.103.898-2 2-2 1.103 0 2 .897 2 2s-.897 2-2 2c-1.102 0-2-.897-2-2zm-84 0c0-1.103.897-2 2-2 1.102 0 2 .897 2 2s-.898 2-2 2c-1.103 0-2-.897-2-2zm16 11c0-2.209 1.791-4 4-4h48c2.209 0 4 1.791 4 4v9h-56zm0 43v-32h56v32c0 2.209-1.791 4-4 4h-48c-2.209 0-4-1.791-4-4zm68-20c0-1.103.898-2 2-2 1.103 0 2 .897 2 2s-.897 2-2 2c-1.102 0-2-.897-2-2zm-84 0c0-1.103.897-2 2-2 1.102 0 2 .897 2 2s-.898 2-2 2c-1.103 0-2-.897-2-2zm84 32c0-1.103.898-2 2-2 1.103 0 2 .897 2 2s-.897 2-2 2c-1.102 0-2-.897-2-2zm-84 0c0-1.103.897-2 2-2 1.102 0 2 .897 2 2s-.898 2-2 2c-1.103 0-2-.897-2-2zm42 16c0-1.103.897-2 2-2 1.102 0 2 .897 2 2s-.898 2-2 2c-1.103 0-2-.897-2-2zm18-68.5c0 2.482 2.019 4.5 4.5 4.5s4.5-2.018 4.5-4.5-2.019-4.5-4.5-4.5-4.5 2.018-4.5 4.5zm2 0c0-1.378 1.121-2.5 2.5-2.5s2.5 1.122 2.5 2.5-1.121 2.5-2.5 2.5-2.5-1.122-2.5-2.5zm-14 0c0 2.482 2.018 4.5 4.5 4.5s4.5-2.018 4.5-4.5-2.018-4.5-4.5-4.5-4.5 2.018-4.5 4.5zm2 0c0-1.378 1.121-2.5 2.5-2.5s2.5 1.122 2.5 2.5-1.121 2.5-2.5 2.5-2.5-1.122-2.5-2.5zm-28-.5c-.552 0-1 .447-1 1s.448 1 1 1h22c.553 0 1-.447 1-1s-.447-1-1-1zm4 17c-.553 0-1 .447-1 1 0 .552.447 1 1 1h36c.553 0 1-.448 1-1 0-.553-.447-1-1-1zm0 7c-.553 0-1 .448-1 1s.447 1 1 1h36c.553 0 1-.448 1-1s-.447-1-1-1zm0 7c-.553 0-1 .448-1 1s.447 1 1 1h36c.553 0 1-.448 1-1s-.447-1-1-1zm25 37c-.553 0-1 .448-1 1s.447 1 1 1h15c.553 0 1-.448 1-1s-.447-1-1-1zm-29 0c-.552 0-1 .448-1 1s.448 1 1 1h15c.552 0 1-.448 1-1s-.448-1-1-1z" mask="url(#c)"/></g></svg>