<svg height="93" viewBox="0 0 94 93" width="94" xmlns="http://www.w3.org/2000/svg" xmlns:xlink="http://www.w3.org/1999/xlink"><linearGradient id="a"><stop offset="0" stop-color="#38b6c1"/><stop offset="1" stop-color="#5090df"/></linearGradient><linearGradient id="b" x1="50.00061%" x2="50.00061%" xlink:href="#a" y1="100%" y2="-.000856%"/><linearGradient id="c" x1="50%" x2="50%" xlink:href="#a" y1="100%" y2="0%"/><mask id="d" fill="#fff"><path d="m34.961 24.134c.855-.929 2.171-1.527 3.553-1.328 2.039.266 3.486 2.191 3.486 4.182v15.866c0 1.261-.065 2.39-.657 4.049-2.04 5.51-7.303 9.095-13.093 9.095h-3.881c-4.277 0-8.159-2.058-10.527-5.443-.066-.067-13.29-20.247-13.29-20.247-1.118-1.66-.461-4.05 1.382-5.311 1.842-1.261 4.276-.863 5.395.796l4.736 7.236c.264.465.987.2.987-.332v-27.615c0-2.39 2.106-4.381 4.606-4.049 2.039.331 3.487 2.19 3.487 4.248v15.534c.789-.731 1.776-1.195 2.895-1.195 1.842 0 3.355 1.195 3.881 2.855.724-.864 1.842-1.461 3.093-1.461" fill="#fff" fill-rule="evenodd"/></mask><mask id="e" fill="#fff"><path d="m45.177 0c-14.306 0-25.947 11.64-25.947 25.948 0 9.63 5.29 18.42 13.805 22.937.15.078.31.116.468.116.359 0 .704-.193.884-.531.259-.488.073-1.094-.415-1.352-7.859-4.17-12.742-12.281-12.742-21.17 0-13.205 10.743-23.948 23.947-23.948 13.205 0 23.948 10.743 23.948 23.948 0 8.198-4.125 15.739-11.036 20.172-.465.299-.601.917-.302 1.382.298.465.915.598 1.382.302 7.486-4.803 11.956-12.973 11.956-21.856 0-14.308-11.64-25.948-25.948-25.948zm25.541 5.739c-.429.348-.494.978-.144 1.406 4.634 5.699 7.186 12.892 7.186 20.253 0 7.232-2.345 14.059-6.781 19.744-.34.436-.262 1.064.173 1.404.183.142.399.211.615.211.297 0 .591-.132.788-.384 4.714-6.04 7.206-13.293 7.206-20.975 0-7.819-2.712-15.46-7.636-21.514-.197-.244-.485-.37-.776-.37-.222 0-.445.074-.631.225zm-52.598.231c-4.878 6.039-7.566 13.648-7.566 21.428 0 .552.449 1 1.001 1s1-.448 1-1c0-7.323 2.528-14.487 7.121-20.171.347-.43.28-1.059-.15-1.406-.185-.149-.407-.222-.627-.222-.292 0-.581.127-.779.371zm66.424 4.14c-.492.252-.686.855-.435 1.346 2.583 5.038 3.891 10.38 3.891 15.877 0 4.545-.903 9.015-2.685 13.282-.213.511.027 1.096.538 1.309.126.052.256.077.384.077.392 0 .763-.231.924-.615 1.884-4.514 2.839-9.241 2.839-14.053 0-5.817-1.382-11.466-4.11-16.788-.177-.347-.528-.546-.891-.546-.153 0-.309.036-.455.111zm-80.445.458c-2.72 5.666-4.099 11.673-4.099 17.854 0 5.114.952 10.142 2.832 14.943.154.395.532.636.932.636.12 0 .244-.022.363-.069.515-.201.768-.781.567-1.295-1.787-4.569-2.694-9.352-2.694-14.215 0-5.879 1.313-11.594 3.901-16.989.24-.498.03-1.095-.469-1.335-.139-.067-.286-.099-.432-.099-.372 0-.73.21-.901.569zm37.954 31.515v27.616c0 .34-.297.571-.581.571-.158 0-.311-.072-.407-.239l-4.736-7.236c-.672-.998-1.819-1.539-3.028-1.539-.803 0-1.632.239-2.367.742-1.842 1.262-2.5 3.651-1.383 5.311s1.623 2.476 3.732 5.692h-4.869l-4.414-4.414v-11.586c0-.265-.106-.519-.293-.707l-4.955-4.954c.152-.421.248-.868.248-1.339 0-2.205-1.795-4-4-4-2.206 0-4 1.795-4 4 0 2.206 1.794 4 4 4 .997 0 1.899-.38 2.6-.985l4.4 4.4v10.586h-3.142c-.448-1.72-1.999-3-3.858-3-2.206 0-4 1.794-4 3.999 0 2.206 1.794 4 4 4 1.859 0 3.41-1.28 3.858-3h3.727l4.708 4.707c.188.188.442.294.707.294h6.594c3.744 5.71 8.21 12.516 8.248 12.555 2.369 3.385 6.249 5.443 10.527 5.443h3.881c5.79 0 11.053-3.585 13.093-9.094.592-1.66.657-2.789.657-4.05v-4.854h6c.265 0 .52-.106.707-.294l4.707-4.707h3.728c.447 1.72 1.999 3 3.858 3 2.206 0 4-1.794 4-4 0-2.205-1.794-3.999-4-3.999-1.859 0-3.411 1.28-3.858 3h-3.142v-10.586l4.4-4.4c.701.605 1.603.985 2.6.985 2.206 0 4-1.794 4-4 0-2.205-1.794-4-4-4s-4 1.795-4 4c0 .471.097.918.248 1.339l-4.955 4.954c-.188.188-.293.442-.293.707v11.586l-4.415 4.414h-5.585v-9.012c0-1.99-1.447-3.915-3.486-4.181-.18-.026-.358-.039-.534-.039-1.182 0-2.274.557-3.019 1.366-.461-1.792-2.039-3.12-3.947-3.12-1.251 0-2.369.598-3.093 1.461-.526-1.66-2.039-2.855-3.881-2.855-1.119 0-2.106.464-2.896 1.195v-15.534c0-2.058-1.447-3.917-3.486-4.249-.185-.024-.366-.036-.546-.036-2.253 0-4.059 1.872-4.059 4.086zm1.999 27.616v-27.616c0-.549.217-1.071.611-1.47.391-.397.906-.616 1.449-.616.083 0 .169.006.253.015 1.016.181 1.78 1.152 1.78 2.27v13.232c-.084.146-.145.306-.145.487v10.001c0 .551.448 1 1 1s1-.449 1-1v-6.2c.048.002.096.014.144.014.495 0 .981-.184 1.359-.532.476-.44.992-.663 1.537-.663.907 0 1.67.561 1.96 1.429v5.952c0 .551.448 1 1 1s1-.449 1-1v-4.534c.556-.023 1.087-.269 1.453-.707.393-.467.975-.746 1.561-.746.938 0 1.766.666 2.009 1.618.009.03.026.054.035.083-.028.092-.058.184-.058.285v6.001c0 .551.447.999 1 .999s1-.448 1-.999v-4.87c.537-.011 1.058-.235 1.433-.642.415-.452.992-.721 1.547-.721.083 0 .166.006.275.022 1.044.136 1.745 1.246 1.745 2.198v10.009.004.003 5.851c0 1.053-.039 1.97-.533 3.355-1.724 4.659-6.232 7.789-11.217 7.789h-3.881c-3.555 0-6.878-1.716-8.888-4.59-.004-.005-.008-.011-.011-.015-.484-.715-9.708-14.784-13.26-20.203-.481-.715-.082-1.903.853-2.544.376-.256.804-.392 1.238-.392.58 0 1.092.246 1.354.634l4.714 7.201c.452.74 1.233 1.179 2.103 1.179 1.423 0 2.58-1.153 2.58-2.571zm43.948-19.698c0-1.103.897-2 2-2s2 .897 2 2-.897 2-2 2-2-.897-2-2zm-75 0c0-1.103.897-2 2-2s2 .897 2 2-.897 2-2 2-2-.897-2-2zm75 19c0-1.103.897-1.999 2-1.999s2 .896 2 1.999c0 1.104-.897 2-2 2s-2-.896-2-2zm-75 0c0-1.103.897-1.999 2-1.999s2 .896 2 1.999c0 1.104-.897 2-2 2s-2-.896-2-2z" fill="#fff" fill-rule="evenodd"/></mask><g fill="none" fill-rule="evenodd"><path d="m34.961 24.134c.855-.929 2.171-1.527 3.553-1.328 2.039.266 3.486 2.191 3.486 4.182v15.866c0 1.261-.065 2.39-.657 4.049-2.04 5.51-7.303 9.095-13.093 9.095h-3.881c-4.277 0-8.159-2.058-10.527-5.443-.066-.067-13.29-20.247-13.29-20.247-1.118-1.66-.461-4.05 1.382-5.311 1.842-1.261 4.276-.863 5.395.796l4.736 7.236c.264.465.987.2.987-.332v-27.615c0-2.39 2.106-4.381 4.606-4.049 2.039.331 3.487 2.19 3.487 4.248v15.534c.789-.731 1.776-1.195 2.895-1.195 1.842 0 3.355 1.195 3.881 2.855.724-.864 1.842-1.461 3.093-1.461 1.907 0 3.486 1.328 3.947 3.12" fill="url(#b)" mask="url(#d)" opacity=".3" transform="translate(29 37)"/><path d="m45.177 0c-14.306 0-25.947 11.64-25.947 25.948 0 9.63 5.29 18.42 13.805 22.937.15.078.31.116.468.116.359 0 .704-.193.884-.531.259-.488.073-1.094-.415-1.352-7.859-4.17-12.742-12.281-12.742-21.17 0-13.205 10.743-23.948 23.947-23.948 13.205 0 23.948 10.743 23.948 23.948 0 8.198-4.125 15.739-11.036 20.172-.465.299-.601.917-.302 1.382.298.465.915.598 1.382.302 7.486-4.803 11.956-12.973 11.956-21.856 0-14.308-11.64-25.948-25.948-25.948zm25.541 5.739c-.429.348-.494.978-.144 1.406 4.634 5.699 7.186 12.892 7.186 20.253 0 7.232-2.345 14.059-6.781 19.744-.34.436-.262 1.064.173 1.404.183.142.399.211.615.211.297 0 .591-.132.788-.384 4.714-6.04 7.206-13.293 7.206-20.975 0-7.819-2.712-15.46-7.636-21.514-.197-.244-.485-.37-.776-.37-.222 0-.445.074-.631.225zm-52.598.231c-4.878 6.039-7.566 13.648-7.566 21.428 0 .552.449 1 1.001 1s1-.448 1-1c0-7.323 2.528-14.487 7.121-20.171.347-.43.28-1.059-.15-1.406-.185-.149-.407-.222-.627-.222-.292 0-.581.127-.779.371zm66.424 4.14c-.492.252-.686.855-.435 1.346 2.583 5.038 3.891 10.38 3.891 15.877 0 4.545-.903 9.015-2.685 13.282-.213.511.027 1.096.538 1.309.126.052.256.077.384.077.392 0 .763-.231.924-.615 1.884-4.514 2.839-9.241 2.839-14.053 0-5.817-1.382-11.466-4.11-16.788-.177-.347-.528-.546-.891-.546-.153 0-.309.036-.455.111zm-80.445.458c-2.72 5.666-4.099 11.673-4.099 17.854 0 5.114.952 10.142 2.832 14.943.154.395.532.636.932.636.12 0 .244-.022.363-.069.515-.201.768-.781.567-1.295-1.787-4.569-2.694-9.352-2.694-14.215 0-5.879 1.313-11.594 3.901-16.989.24-.498.03-1.095-.469-1.335-.139-.067-.286-.099-.432-.099-.372 0-.73.21-.901.569zm37.954 31.515v27.616c0 .34-.297.571-.581.571-.158 0-.311-.072-.407-.239l-4.736-7.236c-.672-.998-1.819-1.539-3.028-1.539-.803 0-1.632.239-2.367.742-1.842 1.262-2.5 3.651-1.383 5.311s1.623 2.476 3.732 5.692h-4.869l-4.414-4.414v-11.586c0-.265-.106-.519-.293-.707l-4.955-4.954c.152-.421.248-.868.248-1.339 0-2.205-1.795-4-4-4-2.206 0-4 1.795-4 4 0 2.206 1.794 4 4 4 .997 0 1.899-.38 2.6-.985l4.4 4.4v10.586h-3.142c-.448-1.72-1.999-3-3.858-3-2.206 0-4 1.794-4 3.999 0 2.206 1.794 4 4 4 1.859 0 3.41-1.28 3.858-3h3.727l4.708 4.707c.188.188.442.294.707.294h6.594c3.744 5.71 8.21 12.516 8.248 12.555 2.369 3.385 6.249 5.443 10.527 5.443h3.881c5.79 0 11.053-3.585 13.093-9.094.592-1.66.657-2.789.657-4.05v-4.854h6c.265 0 .52-.106.707-.294l4.707-4.707h3.728c.447 1.72 1.999 3 3.858 3 2.206 0 4-1.794 4-4 0-2.205-1.794-3.999-4-3.999-1.859 0-3.411 1.28-3.858 3h-3.142v-10.586l4.4-4.4c.701.605 1.603.985 2.6.985 2.206 0 4-1.794 4-4 0-2.205-1.794-4-4-4s-4 1.795-4 4c0 .471.097.918.248 1.339l-4.955 4.954c-.188.188-.293.442-.293.707v11.586l-4.415 4.414h-5.585v-9.012c0-1.99-1.447-3.915-3.486-4.181-.18-.026-.358-.039-.534-.039-1.182 0-2.274.557-3.019 1.366-.461-1.792-2.039-3.12-3.947-3.12-1.251 0-2.369.598-3.093 1.461-.526-1.66-2.039-2.855-3.881-2.855-1.119 0-2.106.464-2.896 1.195v-15.534c0-2.058-1.447-3.917-3.486-4.249-.185-.024-.366-.036-.546-.036-2.253 0-4.059 1.872-4.059 4.086zm1.999 27.616v-27.616c0-.549.217-1.071.611-1.47.391-.397.906-.616 1.449-.616.083 0 .169.006.253.015 1.016.181 1.78 1.152 1.78 2.27v13.232c-.084.146-.145.306-.145.487v10.001c0 .551.448 1 1 1s1-.449 1-1v-6.2c.048.002.096.014.144.014.495 0 .981-.184 1.359-.532.476-.44.992-.663 1.537-.663.907 0 1.67.561 1.96 1.429v5.952c0 .551.448 1 1 1s1-.449 1-1v-4.534c.556-.023 1.087-.269 1.453-.707.393-.467.975-.746 1.561-.746.938 0 1.766.666 2.009 1.618.009.03.026.054.035.083-.028.092-.058.184-.058.285v6.001c0 .551.447.999 1 .999s1-.448 1-.999v-4.87c.537-.011 1.058-.235 1.433-.642.415-.452.992-.721 1.547-.721.083 0 .166.006.275.022 1.044.136 1.745 1.246 1.745 2.198v10.009.004.003 5.851c0 1.053-.039 1.97-.533 3.355-1.724 4.659-6.232 7.789-11.217 7.789h-3.881c-3.555 0-6.878-1.716-8.888-4.59-.004-.005-.008-.011-.011-.015-.484-.715-9.708-14.784-13.26-20.203-.481-.715-.082-1.903.853-2.544.376-.256.804-.392 1.238-.392.58 0 1.092.246 1.354.634l4.714 7.201c.452.74 1.233 1.179 2.103 1.179 1.423 0 2.58-1.153 2.58-2.571zm43.948-19.698c0-1.103.897-2 2-2s2 .897 2 2-.897 2-2 2-2-.897-2-2zm-75 0c0-1.103.897-2 2-2s2 .897 2 2-.897 2-2 2-2-.897-2-2zm75 19c0-1.103.897-1.999 2-1.999s2 .896 2 1.999c0 1.104-.897 2-2 2s-2-.896-2-2zm-75 0c0-1.103.897-1.999 2-1.999s2 .896 2 1.999c0 1.104-.897 2-2 2s-2-.896-2-2z" fill="url(#c)" mask="url(#e)"/></g></svg>