<svg height="88" viewBox="0 0 116 88" width="116" xmlns="http://www.w3.org/2000/svg" xmlns:xlink="http://www.w3.org/1999/xlink"><linearGradient id="a"><stop offset="0" stop-color="#38b6c1"/><stop offset="1" stop-color="#5090df"/></linearGradient><linearGradient id="b" x1="50%" x2="50%" xlink:href="#a" y1="100%" y2="0%"/><linearGradient id="c" x1="50.000087%" x2="50.000087%" xlink:href="#a" y1="100%" y2="0%"/><mask id="d" fill="#fff"><path d="m63.299.293-6.833 6.794c-.127.106-.227.235-.289.393-.013.032-.012.068-.022.102-.024.082-.054.162-.057.251-.001.007.003.012.003.017-.001.007-.004.011-.004.018 0 .066.025.128.039.193.012.059.013.122.035.177.021.052.06.094.091.143.037.062.069.126.119.179.005.003.006.01.01.014l7.004 6.964c.197.196.454.293.711.293s.514-.097.71-.293c.393-.39.393-1.022 0-1.413l-5.202-5.173 21.421.726c18.112.051 32.896 14.744 32.955 32.753.017 4.839-1.076 9.703-3.159 14.064-.238.498-.025 1.094.476 1.332.14.064.287.096.431.096.376 0 .736-.211.909-.572 2.18-4.565 3.338-9.649 3.353-14.715v-.21c-.063-19.106-15.746-34.692-34.928-34.745l-21.623-.734 5.271-5.241c.392-.39.392-1.022 0-1.413-.196-.195-.453-.293-.711-.293-.257 0-.514.098-.71.293zm-48.15.743c-2.124 0-3.853 1.693-3.853 3.775v18.486c0 2.082 1.729 3.776 3.853 3.776h10.225v2.97h-2.026c-.555 0-1.005.447-1.005 1 0 .551.45.999 1.005.999h2.026v.002h9.045v-.002h2.012c.555 0 1.005-.448 1.005-.999 0-.553-.45-1-1.005-1h-2.012v-2.97h10.217c2.124 0 3.852-1.694 3.852-3.776v-18.486c0-2.082-1.728-3.775-3.852-3.775zm-1.842 3.775c0-.981.824-1.776 1.842-1.776h29.487c1.017 0 1.843.795 1.843 1.776v15.239c-.002 0-.005-.001-.007-.001h-33.154c-.004 0-.008.002-.011.002zm0 18.486v-1.252c.003 0 .007.002.011.002h33.154c.002 0 .005-.001.007-.001v1.251c0 .981-.826 1.777-1.843 1.777h-10.217v-.025h-9.045v.025h-10.225c-1.018 0-1.842-.796-1.842-1.777zm14.076 6.746h5.025v-2.97h-5.025zm63.142-26.072c-.09.545.281 1.058.829 1.147.984.161 1.982.372 2.964.627.086.022.17.032.254.032.447 0 .855-.297.972-.748.14-.533-.182-1.079-.718-1.219-1.042-.269-2.102-.493-3.147-.663-.059-.01-.117-.015-.175-.015-.484 0-.899.352-.979.839zm8.423 2.253c-.227.503-.001 1.096.506 1.32 5.503 2.458 10.237 6.372 13.69 11.323.195.278.507.428.826.428.197 0 .397-.058.571-.179.457-.313.57-.936.253-1.391-3.66-5.247-8.68-9.398-14.517-12.003-.135-.06-.275-.088-.413-.088-.384 0-.749.219-.916.59zm-95.603 21.339c-8.21 17.213-.785 37.949 16.551 46.225 4.658 2.226 9.846 3.409 14.973 3.423l21.699.737-5.866 5.812c-.393.39-.394 1.022-.002 1.413.196.196.454.294.712.294.256 0 .513-.098.709-.292l7.851-7.779c.189-.187.297-.442.297-.707 0-.266-.108-.52-.297-.709l-6.943-6.875c-.392-.389-1.029-.387-1.42.003-.392.391-.391 1.023.002 1.415l5.499 5.445-22.204-.755c-4.86-.014-9.75-1.13-14.14-3.227-16.342-7.802-23.342-27.344-15.605-43.565.238-.499.025-1.095-.477-1.331-.139-.066-.285-.097-.43-.097-.376 0-.736.211-.909.57zm61.758 3.934-.992.386c-.965.374-1.521 1.38-1.32 2.392l.115.562c-.117.104-.23.212-.34.324l-.554-.134c-.156-.038-.346-.06-.506-.06-.852 0-1.623.503-1.962 1.281l-.228.519c-.217-.071-.443-.117-.677-.117-.458 0-.898.139-1.271.403l-1.124.784c-.501-.256-1.022-.47-1.558-.642l-.24-1.355c-.189-1.051-1.098-1.808-2.164-1.808h-1.562c-1.067 0-1.977.759-2.164 1.803l-.24 1.36c-.534.171-1.055.386-1.556.641l-1.134-.791c-.379-.26-.812-.395-1.261-.395-.583 0-1.151.236-1.562.648l-1.096 1.09c-.753.742-.861 1.918-.253 2.79l.802 1.138c-.257.497-.473 1.014-.645 1.546l-1.363.239c-1.058.188-1.819 1.094-1.818001 2.155v1.551c-.000999 1.057.760001 1.963 1.810001 2.15l1.371.241c.172.531.388 1.05.645 1.548l-.796 1.128c-.614.882-.506 2.057.253 2.806l1.098 1.092c.386.398.962.64 1.554.64.459 0 .898-.14 1.271-.404l1.126-.783c.502.255 1.023.47 1.557.641l.239 1.357c.19 1.05 1.1 1.806 2.165 1.806h1.562c1.065 0 1.975-.756 2.163-1.799l.239-1.364c.533-.171 1.055-.386 1.556-.641l1.136.792c.379.261.811.395 1.26.395.583 0 1.152-.236 1.561-.647l1.098-1.091c.759-.769.854-1.943.238-2.809l-.791-1.12c.257-.498.473-1.016.646-1.549l1.363-.237c.547-.097 1.007-.392 1.331-.794l.653.284c.252.115.551.179.859.179.724 0 1.393-.36 1.789-.962l.307-.459c.131.007.262.009.393.009h.078l.296.485c.39.632 1.088 1.021 1.827 1.021.251 0 .547-.056.78-.147l.99-.385c.964-.372 1.52-1.379 1.32-2.39l-.115-.564c.117-.104.229-.213.34-.325l.554.135c.156.038.346.061.505.061.854 0 1.624-.504 1.963-1.283l.423-.961c.416-.962.083-2.062-.785-2.629l-.466-.308c.008-.155.012-.313.01-.469l.486-.294c.892-.542 1.26-1.631.88-2.593l-.382-.979c-.323-.824-1.105-1.355-1.993-1.355-.13 0-.284.014-.412.039l-.568.114c-.105-.116-.214-.229-.327-.34l.135-.551c.243-1.016-.275-2.044-1.23-2.454l-.965001-.42c-.248999-.114-.548999-.18-.858999-.18-.723 0-1.391.36-1.787.96l-.307.461c-.131-.005-.262-.01-.392-.01-.027 0-.054 0-.082.001l-.295-.483c-.39-.633-1.088-1.022-1.827-1.022-.25 0-.545.055-.778.146zm-1.476 5.484c.309-.385.666-.725 1.064-1.017.261-.193.388-.518.324-.835l-.251-1.242c-.013-.06.021-.12.079-.143l.991-.386c.015-.005.032-.009.047-.009.044 0 .085.023.109.061l.662 1.083c.154.25.427.401.718.401.029 0 .06-.002.09-.006.208-.023.417-.034.625-.034.285 0 .57.021.851.064.042.005.083.009.125.009.278 0 .541-.137.698-.372l.706-1.055c.024-.036.064-.056.106-.056.018 0 .036.003.053.012l.974.422c.057.027.089.088.074.147l-.302 1.233c-.076.315.037.646.292.848.385.307.728.662 1.021 1.058.16.216.412.339.676.339.054 0 .109-.006.164-.016l1.249-.251c.008-.001.016-.002.025-.002.051 0 .099.031.119.082l.385.985c.023.057.001.122-.053.154l-1.088.658c-.278.169-.433.481-.397.803.053.488.043.982-.031 1.467-.048.32.094.64.365.821l1.062.702c.052.034.072.099.047.155l-.427.97c-.021.047-.067.076-.118.076-.009 0-.019-.001-.028-.003l-1.24-.3c-.066-.016-.132-.024-.198-.024-.251 0-.494.114-.656.314-.309.383-.666.724-1.064 1.016-.261.192-.387.517-.324.834l.254 1.242c.012.06-.022.121-.079.143l-.992.386c-.015.006-.031.008-.047.008-.043 0-.085-.021-.109-.061l-.662-1.082c-.153-.251-.426-.4-.716-.4-.03 0-.061.001-.091.004-.207.023-.415.034-.623.034-.285 0-.57-.02-.852-.064-.043-.006-.085-.009-.127-.009-.278 0-.541.137-.698.372l-.706 1.056c-.025.037-.064.057-.106.057-.018 0-.036-.004-.052-.012l-.972-.423.001-.464.224-.916c.076-.314-.037-.644-.29-.848-.386-.306-.729-.661-1.022-1.056-.16-.215-.413-.339-.676-.339-.054 0-.11.005-.164.016l-1.25.249c-.004.001-.009.001-.013.001-.131-.399-.306-.782-.485-1.163.01-.02 0-.046.019-.058l1.089-.658c.278-.169.432-.482.397-.804-.054-.487-.044-.98.031-1.465.048-.32-.095-.639-.365-.819l-.855-.565-.234-.234c-.003-.022-.028-.039-.018-.061l.427-.969c.021-.047.067-.077.117-.077.01 0 .021.001.03.004l1.239.3c.066.015.131.023.197.023.251 0 .493-.112.655-.311zm-16.304 2.826c.626-.359 1.299-.636 1.998-.824.46-.124.807-.501.892-.967l.322-1.832c.016-.088.095-.153.184-.153h.001 1.562c.091 0 .169.065.184.153l.324 1.832c.083.466.431.843.891.967.701.188 1.373.465 2.001.824.191.109.402.163.613.163.248 0 .495-.074.706-.221l1.531-1.067c.033-.023.071-.034.107-.034.049 0 .098.019.134.056l.538.535c.149.222.334.423.568.58.051.065.068.152.02.221l-1.074 1.524c-.274.389-.296.901-.058 1.314.064.11.111.228.17.342.023.092.019.189.055.28l.388.985c.052.134.134.246.209.363.002.005.005.011.006.016.125.458.504.804.974.887l1.842.322c.089.015.154.092.1530114.183v.234l-.0200114.084c-.08.331-.052.655.019.967l-.001.266c0 .09-.065.166-.155.183l-1.841.322c-.469.083-.848.427-.973.885-.189.695-.467 1.364-.828 1.987-.239.413-.216.924.057 1.315l1.074 1.522c.053.073.044.174-.02.24l-1.103 1.096c-.036.038-.085.056-.134.056-.036 0-.074-.011-.107-.033l-1.531-1.068c-.212-.147-.459-.221-.707-.221-.211 0-.424.055-.615.164-.627.36-1.298.636-1.998.823-.46.124-.808.501-.891.969l-.32 1.83c-.016.089-.094.153-.184.153h-.001-1.562c-.091 0-.169-.064-.185-.153l-.323-1.83c-.083-.468-.431-.845-.891-.969-.7-.187-1.371-.463-1.998-.823-.191-.11-.404-.165-.616-.165-.248 0-.495.075-.707.222l-1.53 1.068c-.033.022-.071.034-.108.034-.049 0-.097-.019-.133-.057l-1.104-1.096c-.065-.065-.074-.165-.022-.24l1.074-1.522c.273-.389.295-.9.058-1.313-.362-.622-.64-1.29-.828-1.986-.125-.458-.504-.803-.974-.886l-1.842-.324c-.089-.017-.154-.093-.1530114-.183v-1.554c-.0009886-.09.0640114-.168.1530114-.184l1.842-.321c.47-.083.849-.429.974-.887.188-.694.466-1.362.828-1.986.237-.411.215-.923-.058-1.311l-1.074-1.524c-.052-.074-.043-.175.022-.239l1.104-1.097c.036-.036.085-.056.133-.056.037 0 .075.012.108.034l1.53 1.067c.212.147.459.221.706.221.212 0 .423-.054.614-.163zm18.106.731c0 1.456 1.192 2.641 2.656 2.641 1.465 0 2.656-1.185 2.656-2.641s-1.191-2.64-2.656-2.64c-1.464 0-2.656 1.184-2.656 2.64zm2.01 0c0-.354.29-.642.646-.642.357 0 .646.288.646.642s-.289.643-.646.643c-.356 0-.646-.289-.646-.643zm-18.951 6.495c0 1.653 1.352 2.999 3.015 2.999s3.015-1.346 3.015-2.999-1.352-2.998-3.015-2.998-3.015 1.345-3.015 2.998zm2.01 0c0-.552.45-.999 1.005-.999s1.005.447 1.005.999-.45 1-1.005 1-1.005-.448-1.005-1zm35.677 7.996c-4.706 0-8.537 3.804-8.543 8.485v.009c0 4.682 3.832 8.494 8.543 8.494 4.705 0 8.537-3.808 8.5420076-8.485.0029924-2.27-.8840076-4.404-2.4960076-6.011-1.611-1.605-3.756-2.491-6.037-2.492zm-6.532 8.494v-.007c.003-3.581 2.933-6.489 6.532-6.489h.006c1.745.001 3.385.679 4.618 1.907 1.232 1.228 1.91 2.86 1.9080044 4.595-.0040044 3.578-2.9350044 6.489-6.5320044 6.489-3.602 0-6.532-2.914-6.532-6.495zm-75.553 5.744c-.432.348-.5.977-.151 1.406 2.968 3.654 6.602 6.633 10.802 8.858 4.563 2.416 9.698 3.812 14.848 4.04.016.001.031.001.046.001.534 0 .978-.418 1.003-.955.024-.552-.405-1.018-.96-1.042-4.853-.214-9.692-1.531-13.992-3.808-3.961-2.097-7.387-4.907-10.183-8.349-.199-.245-.49-.372-.784-.372-.221 0-.444.073-.629.221zm87.498 2.94c-.269 0-.525.107-.714.296l-4.703 4.711-4.687-4.71c-.189-.19-.445-.297-.714-.297h-2.17c-3.859 0-6.998 3.142-6.998 7.003v5.89c0 1.599 1.302 2.9 2.903 2.9h23.34c1.6 0 2.902-1.301 2.902-2.9v-5.89c0-3.856-3.135-6.997-6.99-7.003zm-4.051 6.476 4.469-4.477h1.75c2.747.004 4.981 2.249 4.981 5.004v5.89c0 .498-.4.902-.892.902h-23.34c-.493 0-.893-.404-.893-.902v-5.89c0-2.76 2.238-5.004 4.988-5.004h1.75l4.458 4.481c.364.362.862.543 1.361.543.5 0 1-.182 1.368-.547zm-54.394 4.121c-.042.55.373 1.03.927 1.072.296.023.84.056 1.405.09.602.037 1.226.075 1.594.103.025.002.051.003.077.003.52 0 .961-.4 1-.925.043-.551-.372-1.029-.926-1.072-.374-.029-1.01-.067-1.621-.104-.555-.033-1.088-.067-1.379-.088-.029-.003-.057-.004-.085-.004-.511 0-.952.402-.992.925z" fill="#fff" fill-rule="evenodd"/></mask><g fill="none" fill-rule="evenodd"><path d="m31.294 22.312h-29.453c-1.017 0-1.841-.806-1.841-1.8v-18.712c0-.994.824-1.8 1.841-1.8h29.453c1.017 0 1.841.806 1.841 1.8v18.712c0 .994-.824 1.8-1.841 1.8m41.852 45.394c-4.097 0-7.418-3.3-7.418-7.37v-.008c.004-4.07 3.329-7.367 7.426-7.3620057 4.097.0040057 7.415 3.3060057 7.4110036 7.3780057-.0040036 4.067-3.3250036 7.362-7.4190036 7.362m11.918 16.294h-23.828c-1.069 0-1.936-.861-1.936-1.923v-5.963c0-3.356 2.739-6.077 6.118-6.077h2.215l4.847 4.831c.369.364.964.364 1.333 0l4.862-4.831h2.215c3.376.004 6.11 2.724 6.11 6.077v5.963c0 1.062-.867 1.923-1.936 1.923" fill="url(#b)" opacity=".3" transform="translate(13 3)"/><path d="m63.299.293-6.833 6.794c-.127.106-.227.235-.289.393-.013.032-.012.068-.022.102-.024.082-.054.162-.057.251-.001.007.003.012.003.017-.001.007-.004.011-.004.018 0 .066.025.128.039.193.012.059.013.122.035.177.021.052.06.094.091.143.037.062.069.126.119.179.005.003.006.01.01.014l7.004 6.964c.197.196.454.293.711.293s.514-.097.71-.293c.393-.39.393-1.022 0-1.413l-5.202-5.173 21.421.726c18.112.051 32.896 14.744 32.955 32.753.017 4.839-1.076 9.703-3.159 14.064-.238.498-.025 1.094.476 1.332.14.064.287.096.431.096.376 0 .736-.211.909-.572 2.18-4.565 3.338-9.649 3.353-14.715v-.21c-.063-19.106-15.746-34.692-34.928-34.745l-21.623-.734 5.271-5.241c.392-.39.392-1.022 0-1.413-.196-.195-.453-.293-.711-.293-.257 0-.514.098-.71.293zm-48.15.743c-2.124 0-3.853 1.693-3.853 3.775v18.486c0 2.082 1.729 3.776 3.853 3.776h10.225v2.97h-2.026c-.555 0-1.005.447-1.005 1 0 .551.45.999 1.005.999h2.026v.002h9.045v-.002h2.012c.555 0 1.005-.448 1.005-.999 0-.553-.45-1-1.005-1h-2.012v-2.97h10.217c2.124 0 3.852-1.694 3.852-3.776v-18.486c0-2.082-1.728-3.775-3.852-3.775zm-1.842 3.775c0-.981.824-1.776 1.842-1.776h29.487c1.017 0 1.843.795 1.843 1.776v15.239c-.002 0-.005-.001-.007-.001h-33.154c-.004 0-.008.002-.011.002zm0 18.486v-1.252c.003 0 .007.002.011.002h33.154c.002 0 .005-.001.007-.001v1.251c0 .981-.826 1.777-1.843 1.777h-10.217v-.025h-9.045v.025h-10.225c-1.018 0-1.842-.796-1.842-1.777zm14.076 6.746h5.025v-2.97h-5.025zm63.142-26.072c-.09.545.281 1.058.829 1.147.984.161 1.982.372 2.964.627.086.022.17.032.254.032.447 0 .855-.297.972-.748.14-.533-.182-1.079-.718-1.219-1.042-.269-2.102-.493-3.147-.663-.059-.01-.117-.015-.175-.015-.484 0-.899.352-.979.839zm8.423 2.253c-.227.503-.001 1.096.506 1.32 5.503 2.458 10.237 6.372 13.69 11.323.195.278.507.428.826.428.197 0 .397-.058.571-.179.457-.313.57-.936.253-1.391-3.66-5.247-8.68-9.398-14.517-12.003-.135-.06-.275-.088-.413-.088-.384 0-.749.219-.916.59zm-95.603 21.339c-8.21 17.213-.785 37.949 16.551 46.225 4.658 2.226 9.846 3.409 14.973 3.423l21.699.737-5.866 5.812c-.393.39-.394 1.022-.002 1.413.196.196.454.294.712.294.256 0 .513-.098.709-.292l7.851-7.779c.189-.187.297-.442.297-.707 0-.266-.108-.52-.297-.709l-6.943-6.875c-.392-.389-1.029-.387-1.42.003-.392.391-.391 1.023.002 1.415l5.499 5.445-22.204-.755c-4.86-.014-9.75-1.13-14.14-3.227-16.342-7.802-23.342-27.344-15.605-43.565.238-.499.025-1.095-.477-1.331-.139-.066-.285-.097-.43-.097-.376 0-.736.211-.909.57zm61.758 3.934-.992.386c-.965.374-1.521 1.38-1.32 2.392l.115.562c-.117.104-.23.212-.34.324l-.554-.134c-.156-.038-.346-.06-.506-.06-.852 0-1.623.503-1.962 1.281l-.228.519c-.217-.071-.443-.117-.677-.117-.458 0-.898.139-1.271.403l-1.124.784c-.501-.256-1.022-.47-1.558-.642l-.24-1.355c-.189-1.051-1.098-1.808-2.164-1.808h-1.562c-1.067 0-1.977.759-2.164 1.803l-.24 1.36c-.534.171-1.055.386-1.556.641l-1.134-.791c-.379-.26-.812-.395-1.261-.395-.583 0-1.151.236-1.562.648l-1.096 1.09c-.753.742-.861 1.918-.253 2.79l.802 1.138c-.257.497-.473 1.014-.645 1.546l-1.363.239c-1.058.188-1.819 1.094-1.818001 2.155v1.551c-.000999 1.057.760001 1.963 1.810001 2.15l1.371.241c.172.531.388 1.05.645 1.548l-.796 1.128c-.614.882-.506 2.057.253 2.806l1.098 1.092c.386.398.962.64 1.554.64.459 0 .898-.14 1.271-.404l1.126-.783c.502.255 1.023.47 1.557.641l.239 1.357c.19 1.05 1.1 1.806 2.165 1.806h1.562c1.065 0 1.975-.756 2.163-1.799l.239-1.364c.533-.171 1.055-.386 1.556-.641l1.136.792c.379.261.811.395 1.26.395.583 0 1.152-.236 1.561-.647l1.098-1.091c.759-.769.854-1.943.238-2.809l-.791-1.12c.257-.498.473-1.016.646-1.549l1.363-.237c.547-.097 1.007-.392 1.331-.794l.653.284c.252.115.551.179.859.179.724 0 1.393-.36 1.789-.962l.307-.459c.131.007.262.009.393.009h.078l.296.485c.39.632 1.088 1.021 1.827 1.021.251 0 .547-.056.78-.147l.99-.385c.964-.372 1.52-1.379 1.32-2.39l-.115-.564c.117-.104.229-.213.34-.325l.554.135c.156.038.346.061.505.061.854 0 1.624-.504 1.963-1.283l.423-.961c.416-.962.083-2.062-.785-2.629l-.466-.308c.008-.155.012-.313.01-.469l.486-.294c.892-.542 1.26-1.631.88-2.593l-.382-.979c-.323-.824-1.105-1.355-1.993-1.355-.13 0-.284.014-.412.039l-.568.114c-.105-.116-.214-.229-.327-.34l.135-.551c.243-1.016-.275-2.044-1.23-2.454l-.965001-.42c-.248999-.114-.548999-.18-.858999-.18-.723 0-1.391.36-1.787.96l-.307.461c-.131-.005-.262-.01-.392-.01-.027 0-.054 0-.082.001l-.295-.483c-.39-.633-1.088-1.022-1.827-1.022-.25 0-.545.055-.778.146zm-1.476 5.484c.309-.385.666-.725 1.064-1.017.261-.193.388-.518.324-.835l-.251-1.242c-.013-.06.021-.12.079-.143l.991-.386c.015-.005.032-.009.047-.009.044 0 .085.023.109.061l.662 1.083c.154.25.427.401.718.401.029 0 .06-.002.09-.006.208-.023.417-.034.625-.034.285 0 .57.021.851.064.042.005.083.009.125.009.278 0 .541-.137.698-.372l.706-1.055c.024-.036.064-.056.106-.056.018 0 .036.003.053.012l.974.422c.057.027.089.088.074.147l-.302 1.233c-.076.315.037.646.292.848.385.307.728.662 1.021 1.058.16.216.412.339.676.339.054 0 .109-.006.164-.016l1.249-.251c.008-.001.016-.002.025-.002.051 0 .099.031.119.082l.385.985c.023.057.001.122-.053.154l-1.088.658c-.278.169-.433.481-.397.803.053.488.043.982-.031 1.467-.048.32.094.64.365.821l1.062.702c.052.034.072.099.047.155l-.427.97c-.021.047-.067.076-.118.076-.009 0-.019-.001-.028-.003l-1.24-.3c-.066-.016-.132-.024-.198-.024-.251 0-.494.114-.656.314-.309.383-.666.724-1.064 1.016-.261.192-.387.517-.324.834l.254 1.242c.012.06-.022.121-.079.143l-.992.386c-.015.006-.031.008-.047.008-.043 0-.085-.021-.109-.061l-.662-1.082c-.153-.251-.426-.4-.716-.4-.03 0-.061.001-.091.004-.207.023-.415.034-.623.034-.285 0-.57-.02-.852-.064-.043-.006-.085-.009-.127-.009-.278 0-.541.137-.698.372l-.706 1.056c-.025.037-.064.057-.106.057-.018 0-.036-.004-.052-.012l-.972-.423.001-.464.224-.916c.076-.314-.037-.644-.29-.848-.386-.306-.729-.661-1.022-1.056-.16-.215-.413-.339-.676-.339-.054 0-.11.005-.164.016l-1.25.249c-.004.001-.009.001-.013.001-.131-.399-.306-.782-.485-1.163.01-.02 0-.046.019-.058l1.089-.658c.278-.169.432-.482.397-.804-.054-.487-.044-.98.031-1.465.048-.32-.095-.639-.365-.819l-.855-.565-.234-.234c-.003-.022-.028-.039-.018-.061l.427-.969c.021-.047.067-.077.117-.077.01 0 .021.001.03.004l1.239.3c.066.015.131.023.197.023.251 0 .493-.112.655-.311zm-16.304 2.826c.626-.359 1.299-.636 1.998-.824.46-.124.807-.501.892-.967l.322-1.832c.016-.088.095-.153.184-.153h.001 1.562c.091 0 .169.065.184.153l.324 1.832c.083.466.431.843.891.967.701.188 1.373.465 2.001.824.191.109.402.163.613.163.248 0 .495-.074.706-.221l1.531-1.067c.033-.023.071-.034.107-.034.049 0 .098.019.134.056l.538.535c.149.222.334.423.568.58.051.065.068.152.02.221l-1.074 1.524c-.274.389-.296.901-.058 1.314.064.11.111.228.17.342.023.092.019.189.055.28l.388.985c.052.134.134.246.209.363.002.005.005.011.006.016.125.458.504.804.974.887l1.842.322c.089.015.154.092.1530114.183v.234l-.0200114.084c-.08.331-.052.655.019.967l-.001.266c0 .09-.065.166-.155.183l-1.841.322c-.469.083-.848.427-.973.885-.189.695-.467 1.364-.828 1.987-.239.413-.216.924.057 1.315l1.074 1.522c.053.073.044.174-.02.24l-1.103 1.096c-.036.038-.085.056-.134.056-.036 0-.074-.011-.107-.033l-1.531-1.068c-.212-.147-.459-.221-.707-.221-.211 0-.424.055-.615.164-.627.36-1.298.636-1.998.823-.46.124-.808.501-.891.969l-.32 1.83c-.016.089-.094.153-.184.153h-.001-1.562c-.091 0-.169-.064-.185-.153l-.323-1.83c-.083-.468-.431-.845-.891-.969-.7-.187-1.371-.463-1.998-.823-.191-.11-.404-.165-.616-.165-.248 0-.495.075-.707.222l-1.53 1.068c-.033.022-.071.034-.108.034-.049 0-.097-.019-.133-.057l-1.104-1.096c-.065-.065-.074-.165-.022-.24l1.074-1.522c.273-.389.295-.9.058-1.313-.362-.622-.64-1.29-.828-1.986-.125-.458-.504-.803-.974-.886l-1.842-.324c-.089-.017-.154-.093-.1530114-.183v-1.554c-.0009886-.09.0640114-.168.1530114-.184l1.842-.321c.47-.083.849-.429.974-.887.188-.694.466-1.362.828-1.986.237-.411.215-.923-.058-1.311l-1.074-1.524c-.052-.074-.043-.175.022-.239l1.104-1.097c.036-.036.085-.056.133-.056.037 0 .075.012.108.034l1.53 1.067c.212.147.459.221.706.221.212 0 .423-.054.614-.163zm18.106.731c0 1.456 1.192 2.641 2.656 2.641 1.465 0 2.656-1.185 2.656-2.641s-1.191-2.64-2.656-2.64c-1.464 0-2.656 1.184-2.656 2.64zm2.01 0c0-.354.29-.642.646-.642.357 0 .646.288.646.642s-.289.643-.646.643c-.356 0-.646-.289-.646-.643zm-18.951 6.495c0 1.653 1.352 2.999 3.015 2.999s3.015-1.346 3.015-2.999-1.352-2.998-3.015-2.998-3.015 1.345-3.015 2.998zm2.01 0c0-.552.45-.999 1.005-.999s1.005.447 1.005.999-.45 1-1.005 1-1.005-.448-1.005-1zm35.677 7.996c-4.706 0-8.537 3.804-8.543 8.485v.009c0 4.682 3.832 8.494 8.543 8.494 4.705 0 8.537-3.808 8.5420076-8.485.0029924-2.27-.8840076-4.404-2.4960076-6.011-1.611-1.605-3.756-2.491-6.037-2.492zm-6.532 8.494v-.007c.003-3.581 2.933-6.489 6.532-6.489h.006c1.745.001 3.385.679 4.618 1.907 1.232 1.228 1.91 2.86 1.9080044 4.595-.0040044 3.578-2.9350044 6.489-6.5320044 6.489-3.602 0-6.532-2.914-6.532-6.495zm-75.553 5.744c-.432.348-.5.977-.151 1.406 2.968 3.654 6.602 6.633 10.802 8.858 4.563 2.416 9.698 3.812 14.848 4.04.016.001.031.001.046.001.534 0 .978-.418 1.003-.955.024-.552-.405-1.018-.96-1.042-4.853-.214-9.692-1.531-13.992-3.808-3.961-2.097-7.387-4.907-10.183-8.349-.199-.245-.49-.372-.784-.372-.221 0-.444.073-.629.221zm87.498 2.94c-.269 0-.525.107-.714.296l-4.703 4.711-4.687-4.71c-.189-.19-.445-.297-.714-.297h-2.17c-3.859 0-6.998 3.142-6.998 7.003v5.89c0 1.599 1.302 2.9 2.903 2.9h23.34c1.6 0 2.902-1.301 2.902-2.9v-5.89c0-3.856-3.135-6.997-6.99-7.003zm-4.051 6.476 4.469-4.477h1.75c2.747.004 4.981 2.249 4.981 5.004v5.89c0 .498-.4.902-.892.902h-23.34c-.493 0-.893-.404-.893-.902v-5.89c0-2.76 2.238-5.004 4.988-5.004h1.75l4.458 4.481c.364.362.862.543 1.361.543.5 0 1-.182 1.368-.547zm-54.394 4.121c-.042.55.373 1.03.927 1.072.296.023.84.056 1.405.09.602.037 1.226.075 1.594.103.025.002.051.003.077.003.52 0 .961-.4 1-.925.043-.551-.372-1.029-.926-1.072-.374-.029-1.01-.067-1.621-.104-.555-.033-1.088-.067-1.379-.088-.029-.003-.057-.004-.085-.004-.511 0-.952.402-.992.925z" fill="url(#c)" mask="url(#d)"/></g></svg>