<svg height="278" viewBox="0 0 339 278" width="339" xmlns="http://www.w3.org/2000/svg"><g fill="#72c4fc" fill-rule="evenodd" transform="translate(0 .6334)"><path d="m77 236.4525c-28.828-11.144-52.141-26.731-67-45.097v-56.292c15.804 16.905 38.978 31.136 67 41.252z" opacity=".4"/><path d="m67 240.4525c-28.828-11.144-52.141-26.731-67-45.096v-56.293c15.804 16.905 38.978 31.135 67 41.252z" opacity=".1"/><path d="m7 80.06v-46.937c15.844-13.491 36.7-24.83 61-33.123v49.345c-23.923 7.605-44.724 18.115-61 30.715zm325 20.59c-8.767-11.201-20.637-21.407-35-30.231v-53.955c13.943 7.951 25.779 17.145 35 27.268z" opacity=".2"/><path d="m329 229.8524c-28.199 22.246-70.363 38.137-119 43.248v-76.711c48.183-4.6 90.254-19.741 119-41.214z" opacity=".4"/><path d="m339 233.8524c-28.199 22.246-70.363 38.137-119 43.248v-76.711c48.183-4.6 90.254-19.741 119-41.214z" opacity=".1"/></g></svg>