<svg height="497" viewBox="0 0 422 497" width="422" xmlns="http://www.w3.org/2000/svg" xmlns:xlink="http://www.w3.org/1999/xlink"><linearGradient id="a" x1="50%" x2="50%" y1="100%" y2="0%"><stop offset="0" stop-color="#72c3fb" stop-opacity="0"/><stop offset="1" stop-color="#72c3fb"/></linearGradient><g fill="url(#a)" fill-rule="evenodd"><path d="m318.5 0c-1.38 0-2.5 1.119-2.5 2.5v216c0 1.381 1.12 2.5 2.5 2.5 1.381 0 2.5-1.119 2.5-2.5v-216c0-1.381-1.119-2.5-2.5-2.5z"/><path d="m398 82.5v216c0 1.381 1.119 2.5 2.5 2.5s2.5-1.119 2.5-2.5v-216c0-1.381-1.119-2.5-2.5-2.5s-2.5 1.119-2.5 2.5"/><path d="m417 175.5v216c0 1.381 1.119 2.5 2.5 2.5 1.38 0 2.5-1.119 2.5-2.5v-216c0-1.381-1.12-2.5-2.5-2.5-1.381 0-2.5 1.119-2.5 2.5"/><path d="m120 46.5v216c0 1.381 1.119 2.5 2.5 2.5s2.5-1.119 2.5-2.5v-216c0-1.381-1.119-2.5-2.5-2.5s-2.5 1.119-2.5 2.5"/><path d="m27 278.5v216c0 1.381 1.12 2.5 2.5 2.5 1.381 0 2.5-1.119 2.5-2.5v-216c0-1.381-1.119-2.5-2.5-2.5-1.38 0-2.5 1.119-2.5 2.5"/><path d="m0 228.5v216c0 1.381 1.12 2.5 2.5 2.5 1.381 0 2.5-1.119 2.5-2.5v-216c0-1.381-1.119-2.5-2.5-2.5-1.38 0-2.5 1.119-2.5 2.5"/></g></svg>