<svg height="97" viewBox="0 0 97 97" width="97" xmlns="http://www.w3.org/2000/svg"><g fill="#ebedfa" fill-rule="evenodd" transform="translate(.21 -.000058)"><path d="m91.79 43.8633585-.09 4.83c-.11 6.55-.2 13.56-.25 20.76v2.69c-.014.611-.125 1.215-.33 1.79-.415 1.162-1.207 2.151-2.25 2.81-.513.336-1.082.577-1.68.71-.298.073-.603.117-.91.13h-.5-6.23c-1.508.006-2.726 1.232-2.72 2.74v7.56c-3.333-3.253-6.52-6.353-9.56-9.3l-.04-.08c-.445-.429-1.043-.663-1.66-.65l-10.09.2-2.37.06h-.58-.52c-.284.008-.569-.009-.85-.05-1.094-.142-2.129-.574-3-1.25-.831-.647-1.49-1.489-1.92-2.45-.209-.456-.359-.937-.45-1.43-.049-.241-.083-.485-.1-.73v-.87c-.093-2.093-.197-4-.31-5.72h6.87 7.19 3.54.41.54c.369-.01.736-.043 1.1-.1.726-.101 1.443-.265 2.14-.49 4.166-1.384 7.269-4.896 8.13-9.2.125-.683.195-1.376.21-2.07v-.9-.83l-.18-12.92-.09-5.19c1.78.11 3.78.22 6 .32l3.61.15h.95l.77.07c.497.082.984.22 1.45.41 2.01.813 3.448 2.619 3.79 4.76.07 1.413.063 2.828-.02 4.24m4.79 4.83-.09-4.83-.1-2.36c.004-.902-.076-1.803-.24-2.69-.733-3.579-3.304-6.504-6.76-7.69-.782-.258-1.59-.422-2.41-.49h-1.16-.95l-3.61.15c-2.21.1-4.22.21-6 .32l-.24-14.77-.05-2.53v-1.24-.62-.71c-.462-5.25000002-4.522-9.46800002-9.75-10.13000002-.478-.084-.97.031-1.36.32-.321.227-.497.608-.46 1 .112.711.661 1.273 1.37 1.4 2.331.476 4.342 1.934 5.52 4 .63 1.123.974 2.38300002 1 3.67000002v1.1 1.24l-.05 2.53-.36 22.74-.15 12.82v.83.76c-.019.42-.069.838-.15 1.25-.198.825-.536 1.61-1 2.32-.923 1.469-2.343 2.558-4 3.07-.412.122-.833.209-1.26.26-.217.016-.433.016-.65 0h-.77-3.54-7.19l-14.74-.07c-.704-.003-1.38.274-1.88.77l-11.83 11.76v-9.87c-.005-1.515-1.235-2.74-2.75-2.74h-8.58c-.33 0-.6 0-.89-.05-2.363-.284-4.42-1.749-5.46-3.89-.256-.522-.447-1.072-.57-1.64-.041-.288-.069-.579-.08-.87v-.44-.57-4.81l-.1-9.49-.11-18.55v-4.5-2.22-1.11-.85c.318-3.33500002 2.859-6.02900002 6.17-6.54000002 1.263-.109 2.532-.153 3.8-.13l8-.1 14.82-.24c9.31-.17 17.4-.37 23.9-.6.812.028 1.491-.608 1.52-1.419v-.031c-.139-.744-.804-1.273-1.56-1.24-6.44-.23-14.58-.47-23.89-.6l-14.83-.24-8-.1c-1.484-.063-2.969-.037-4.45.08-5.511.732-9.809 5.133-10.41 10.66000002 0 .45-.06.94-.07 1.35v1.11 2.22 4.5l-.18 18.55v9.52 4.81.63.77c.038.513.104 1.024.2 1.53.211 1.014.547 1.998 1 2.93 1.827 3.839 5.489 6.48 9.71 7 .51.07 1.06.07 1.54.1h5.82v13.7c.008 1.514 1.242 2.733 2.754 2.725.724-.004 1.415-.293 1.926-.805l15.62-15.74h4c-.107 1.72-.207 3.624-.3 5.71v1c-.007.377.009.755.05 1.13.074.785.245 1.558.51 2.3.565 1.599 1.524 3.03 2.79 4.16 1.379 1.227 3.066 2.057 4.88 2.4.459.079.924.123 1.39.13h.64.58l2.37.06 9 .18c4.09 4.22 8.45 8.68 13.16 13.45 1.031 1.055 2.721 1.075 3.776.045.515-.504.806-1.194.804-1.915l.05-11.23h3.46.87c.605-.052 1.205-.16 1.79-.32 1.195-.277 2.332-.761 3.36-1.43 2.065-1.323 3.626-3.303 4.43-5.62.396-1.142.602-2.341.61-3.55v-2.72c-.02-7.2-.1-14.21-.21-20.76"/><path d="m29.9404 30.9233585c0-3.16-.12-6.25-.24-9.14 4.58.59 11.729 1 19.679 1.1v2.33 4.35c-.007.076-.047.145-.109.19l-.11.05c-.147.008-.294.008-.441 0h-.609l-4.721.17c-5.359.2-10.09.53-13.449.95zm18.18 4.18h.61.79c2.449-.137 4.529-1.844 5.14-4.22.103-.385.164-.781.179-1.18v-4.5-5-.05c-.016-1.48-1.229-2.667-2.709-2.65-.006 0-.013 0-.02 0-7.532.001-15.059.388-22.551 1.16v-.61l-.05-.91v-.46c-.012-.238-.039-.475-.08-.71-.299-1.77-1.44-3.285-3.059-4.06-.704-.33-1.473-.5-2.25-.5-.278.003-.555.023-.83.06l-.68.08c-.891.1-1.71.21-2.431.33-.199 0-.359.68-.34 1.44.021.76.161 1.21.34 1.24.721.12 1.54.23 2.431.33l.68.08c.202.012.402.038.599.08.23.059.445.164.631.31.362.291.569.735.56 1.2l-.18 3.37c-.24 5.08-.351 10.88-.36 16.69v.88.43c.261 2.916 2.223 5.4 5 6.33.532.177 1.082.294 1.639.35h.811.53c2.81-.06 5.529-.14 8.069-.26 4.122-.123 8.234-.456 12.321-1 .21 0 .36-.7.349-1.47-.009-.77-.16-1.25-.349-1.28-4.087-.543-8.199-.877-12.321-1-2.54-.11-5.259-.2-8.069-.26h-.53-.25c-.151-.026-.298-.066-.441-.12-.577-.215-1.023-.683-1.21-1.27-.049-.146-.083-.297-.099-.45v-.11c-.005-.06-.005-.12 0-.18v-.54-2.59c3.37.43 8.08.75 13.399.94z"/><path d="m33.0898 47.9136585c1.618 0 2.931 1.312 2.931 2.93s-1.313 2.93-2.931 2.93-2.93-1.312-2.93-2.93 1.312-2.93 2.93-2.93"/><path d="m46.4199 47.9136585c1.618 0 2.93 1.312 2.93 2.93s-1.312 2.93-2.93 2.93-2.93-1.312-2.93-2.93 1.312-2.93 2.93-2.93"/></g></svg>