<svg height="111" viewBox="0 0 179 111" width="179" xmlns="http://www.w3.org/2000/svg"><g fill="none" fill-rule="evenodd"><path d="m89.5 7c-49.43 0-89.5 23.281-89.5 52s40.07 52 89.5 52 89.5-23.281 89.5-52-40.07-52-89.5-52m0 1c48.799 0 88.5 22.878 88.5 51 0 28.121-39.701 51-88.5 51s-88.5-22.879-88.5-51c0-28.122 39.701-51 88.5-51" fill="#fff" opacity=".1"/><g opacity=".3" transform="translate(60 33)"><path d="m30.5 34.5c-16.542 0-30-7.626-30-17s13.458-17 30-17 30 7.626 30 17-13.458 17-30 17" fill="#448be3"/><path d="m30.5 0c-16.845 0-30.5 7.835-30.5 17.5s13.655 17.5 30.5 17.5 30.5-7.835 30.5-17.5-13.655-17.5-30.5-17.5m0 1c16.267 0 29.5 7.402 29.5 16.5s-13.233 16.5-29.5 16.5-29.5-7.402-29.5-16.5 13.233-16.5 29.5-16.5" fill="#fff"/></g><g fill="#fff"><path d="m90.5 41c-16.845 0-30.5 7.835-30.5 17.5s13.655 17.5 30.5 17.5 30.5-7.835 30.5-17.5-13.655-17.5-30.5-17.5m0 1c16.267 0 29.5 7.402 29.5 16.5s-13.233 16.5-29.5 16.5-29.5-7.402-29.5-16.5 13.233-16.5 29.5-16.5" opacity=".2"/><path d="m89.5 0c-49.43 0-89.5 23.281-89.5 52s40.07 52 89.5 52 89.5-23.281 89.5-52-40.07-52-89.5-52m0 1c48.799 0 88.5 22.878 88.5 51 0 28.121-39.701 51-88.5 51s-88.5-22.879-88.5-51c0-28.122 39.701-51 88.5-51" opacity=".3"/></g></g></svg>