<svg height="497" viewBox="0 0 422 497" width="422" xmlns="http://www.w3.org/2000/svg" xmlns:xlink="http://www.w3.org/1999/xlink"><linearGradient id="a" x1="50%" x2="50%" y1="100%" y2="0%"><stop offset="0" stop-color="#72c3fb" stop-opacity="0"/><stop offset="1" stop-color="#72c3fb"/></linearGradient><g fill="none" fill-rule="evenodd"><g transform="translate(122 344)"><path d="m89.5 7c-49.43 0-89.5 23.281-89.5 52s40.07 52 89.5 52 89.5-23.281 89.5-52-40.07-52-89.5-52m0 1c48.799 0 88.5 22.878 88.5 51 0 28.121-39.701 51-88.5 51s-88.5-22.879-88.5-51c0-28.122 39.701-51 88.5-51" fill="#fff" opacity=".1"/><g opacity=".3" transform="translate(60 33)"><path d="m30.5 34.5c-16.542 0-30-7.626-30-17s13.458-17 30-17 30 7.626 30 17-13.458 17-30 17" fill="#448be3"/><path d="m30.5 0c-16.845 0-30.5 7.835-30.5 17.5s13.655 17.5 30.5 17.5 30.5-7.835 30.5-17.5-13.655-17.5-30.5-17.5m0 1c16.267 0 29.5 7.402 29.5 16.5s-13.233 16.5-29.5 16.5-29.5-7.402-29.5-16.5 13.233-16.5 29.5-16.5" fill="#fff"/></g><g fill="#fff"><path d="m90.5 41c-16.845 0-30.5 7.835-30.5 17.5s13.655 17.5 30.5 17.5 30.5-7.835 30.5-17.5-13.655-17.5-30.5-17.5m0 1c16.267 0 29.5 7.402 29.5 16.5s-13.233 16.5-29.5 16.5-29.5-7.402-29.5-16.5 13.233-16.5 29.5-16.5" opacity=".2"/><path d="m89.5 0c-49.43 0-89.5 23.281-89.5 52s40.07 52 89.5 52 89.5-23.281 89.5-52-40.07-52-89.5-52m0 1c48.799 0 88.5 22.878 88.5 51 0 28.121-39.701 51-88.5 51s-88.5-22.879-88.5-51c0-28.122 39.701-51 88.5-51" opacity=".3"/></g></g><g fill="url(#a)"><path d="m318.5 0c-1.38 0-2.5 1.119-2.5 2.5v216c0 1.381 1.12 2.5 2.5 2.5 1.381 0 2.5-1.119 2.5-2.5v-216c0-1.381-1.119-2.5-2.5-2.5z"/><path d="m398 82.5v216c0 1.381 1.119 2.5 2.5 2.5s2.5-1.119 2.5-2.5v-216c0-1.381-1.119-2.5-2.5-2.5s-2.5 1.119-2.5 2.5"/><path d="m417 175.5v216c0 1.381 1.119 2.5 2.5 2.5 1.38 0 2.5-1.119 2.5-2.5v-216c0-1.381-1.12-2.5-2.5-2.5-1.381 0-2.5 1.119-2.5 2.5"/><path d="m120 46.5v216c0 1.381 1.119 2.5 2.5 2.5s2.5-1.119 2.5-2.5v-216c0-1.381-1.119-2.5-2.5-2.5s-2.5 1.119-2.5 2.5"/><path d="m27 278.5v216c0 1.381 1.12 2.5 2.5 2.5 1.381 0 2.5-1.119 2.5-2.5v-216c0-1.381-1.119-2.5-2.5-2.5-1.38 0-2.5 1.119-2.5 2.5"/><path d="m0 228.5v216c0 1.381 1.12 2.5 2.5 2.5 1.381 0 2.5-1.119 2.5-2.5v-216c0-1.381-1.119-2.5-2.5-2.5-1.38 0-2.5 1.119-2.5 2.5"/></g><g fill="#72c4fc" transform="translate(38 176.6334)"><path d="m77 236.4525c-28.828-11.144-52.141-26.731-67-45.097v-56.292c15.804 16.905 38.978 31.136 67 41.252z" opacity=".4"/><path d="m67 240.4525c-28.828-11.144-52.141-26.731-67-45.096v-56.293c15.804 16.905 38.978 31.135 67 41.252z" opacity=".1"/><path d="m7 80.06v-46.937c15.844-13.491 36.7-24.83 61-33.123v49.345c-23.923 7.605-44.724 18.115-61 30.715zm325 20.59c-8.767-11.201-20.637-21.407-35-30.231v-53.955c13.943 7.951 25.779 17.145 35 27.268z" opacity=".2"/><path d="m329 229.8524c-28.199 22.246-70.363 38.137-119 43.248v-76.711c48.183-4.6 90.254-19.741 119-41.214z" opacity=".4"/><path d="m339 233.8524c-28.199 22.246-70.363 38.137-119 43.248v-76.711c48.183-4.6 90.254-19.741 119-41.214z" opacity=".1"/></g><g transform="translate(30 116)"><path d="m112.6465 133.0981c-4.85 0-10.79-.445-17.085-1.936-14.394-3.408-33.344-13.052-41.871-39.643-.039-.119-.072-.24-.102-.362-1.256-5.246-2.755-10.914-2.769-10.971-.706-2.67.886-5.406 3.556-6.112 2.674-.707 5.406.886 6.112 3.556.014.057 1.507 5.705 2.781 11.01 5.723 17.678 17.362 28.711 34.597 32.791 13.193 3.124 24.675.909 24.789.886 2.716-.536 5.341 1.222 5.879 3.929.538 2.709-1.222 5.341-3.93 5.879-.326.065-5.029.973-11.957.973" fill="#3d3d7d"/><path d="m50.6875 80.8623s-9.486-7.861-11.189-8.684c-1.704-.822-.84-4.263-.84-4.263l2.238-13.925s1.974-3.07 2.172 1.601c.199 4.669 0 10.999 0 10.999s.166 1.623 1 2.001c.835.377 9 3.999 9 3.999z" fill="#cccdde"/><path d="m64.0029 77.9136s.505-9.919.945-11.379c.441-1.459-2.073-2.823-2.073-2.823l-9.488-6.264s-2.899-.503-.235 2.162 6.532 5.998 6.532 5.998.872.983.641 1.685c-.23.702-2.532 7.525-2.532 7.525z" fill="#cccdde"/><path d="m64 79c0 4.971-4.029 9-9 9s-9-4.029-9-9 4.029-9 9-9 9 4.029 9 9" fill="#fff"/><path d="m46 38s6 .892 6 5v11h6v11s-.121 2-2 2h-13v16 1 8s.128 7-8 7h-28s-6-.222-6-8c2.089-2.412 2-2 2-2l3 2 3-2 2 1v-46s1-6 7-6z" fill="#fff"/><path d="m52 67h6v-13h-6z" fill="#cccdde"/><path d="m58 54v10.001c0 1.657-1.344 3-3 3-1.657 0-3.001-1.343-3.001-3" stroke="#898ba9" stroke-linecap="round" stroke-linejoin="round" stroke-width="2"/><path d="m0 91 3-3 3 3 3-3 3 3 3-3 3 3 3-3 3 3 3-3 3 3" fill="#cccdde"/><path d="m43 67v-25l4-3h1l3 1 1 3v11 13z" fill="#cccdde"/><path d="m0 91.2002c0-.13 2.09-2.2 2.09-2.2l4.134 2.2 2.134-2.2 3.642 2 3-1-.374-1 3.135 2.2 3.134-2.2 3.134 2.2 3.134-2.2 2.837 2-.747 2.4s1.748 6.6 5.224 6.6h-11.493-14.626-2.089s-6.269-.934-6.269-8.8" fill="#cccdde"/><path d="m43 43v49c0 3.866-3.134 7-7 7s-7.001-3.134-7.001-7" stroke="#898ba9" stroke-linecap="round" stroke-linejoin="round" stroke-width="2"/><path d="m52 54h6v-1h-6z" fill="#898ba9"/><path d="m43 68h12v-2h-12z" fill="#898ba9"/><g stroke-linecap="round" stroke-linejoin="round" stroke-width="2"><path d="m43.002 43c0-2.209 2.014-4 4.499-4 2.484 0 4.499 1.791 4.499 4v24h-9" stroke="#898ba9"/><path d="m35 59h-17" stroke="#3d3d7d"/><path d="m35 67h-17" stroke="#3d3d7d"/><path d="m35 75h-17" stroke="#3d3d7d"/></g><path d="m62.875 63.7119-7.875-5.199v2.88c2.31 2.168 4.684 4.215 4.684 4.215s.873.983.641 1.685c-.063.192-.286.856-.572 1.707h4.855c.112-1.168.228-2.093.34-2.465.441-1.46-2.073-2.823-2.073-2.823" fill="#cccdde"/><path d="m311.001 72.5903s8.165-3.622 9-4c.834-.377 1-2 1-2s-.199-6.33 0-11 2.172-1.6 2.172-1.6l2.238 13.925s.863 3.441-.839 4.263c-1.703.823-11.189 8.684-11.189 8.684z" fill="#cccdde"/><path d="m300 65c-2.206 0-4-1.794-4-4v-48c0-2.206 1.794-4 4-4h26c2.206 0 4 1.794 4 4v48c0 2.206-1.794 4-4 4z" fill="#3d3d7d"/><path d="m326 8h-26c-2.757 0-5 2.243-5 5v48c0 2.757 2.243 5 5 5h26c2.757 0 5-2.243 5-5v-48c0-2.757-2.243-5-5-5m0 2c1.657 0 3 1.343 3 3v48c0 1.657-1.343 3-3 3h-26c-1.657 0-3-1.343-3-3v-48c0-1.657 1.343-3 3-3z" fill="#cccdde"/><path d="m303 44c-.553 0-1-.448-1-1v-12c0-.552.447-1 1-1h20c.553 0 1 .448 1 1v12c0 .552-.447 1-1 1z" fill="#75c3f9"/><path d="m323 29h-20c-1.104 0-2 .896-2 2v12c0 1.104.896 2 2 2h20c1.104 0 2-.896 2-2v-12c0-1.104-.896-2-2-2zm-20 14h20v-12h-20z" fill="#000"/><g stroke="#fff" stroke-linecap="round" stroke-linejoin="round" stroke-width="2"><path d="m303 54h2"/><path d="m312 54h2"/><path d="m321 54h2"/><path d="m303 59h2"/><path d="m312 59h2"/><path d="m321 59h2"/></g><path d="m304 23v-23l3 2 3-2 3 2 3-2 3 2 3-2v23z" fill="#fff"/><path d="m301 23h24" stroke="#cbcdde" stroke-linecap="round" stroke-linejoin="round" stroke-width="2"/><path d="m251.4229 133.0981c4.85 0 10.79-.445 17.085-1.936 14.394-3.408 33.344-13.052 41.871-39.643.039-.119.072-.24.102-.362 1.256-5.246 2.755-10.914 2.769-10.971.706-2.67-.886-5.406-3.556-6.112-2.674-.707-5.406.886-6.112 3.556-.014.057-1.507 5.705-2.781 11.01-5.723 17.678-17.362 28.711-34.597 32.791-13.193 3.124-24.675.909-24.789.886-2.716-.536-5.341 1.222-5.879 3.929-.538 2.709 1.222 5.341 3.93 5.879.326.065 5.029.973 11.957.973" fill="#3d3d7d"/><path d="m306.2773 74.8174s-2.303-6.823-2.533-7.525c-.231-.702.642-1.684.642-1.684s3.867-3.334 6.531-5.999-.235-2.162-.235-2.162l-9.488 6.265s-2.514 1.363-2.073 2.822c.44 1.46.946 11.379.946 11.379z" fill="#cccdde"/><path d="m300.0693 79c0 4.971 4.029 9 9 9s9-4.029 9-9-4.029-9-9-9-9 4.029-9 9" fill="#fff"/><path d="m182 108c39.765 0 62 36.67 62 56s-22.235 95-62 95-62-75.67-62-95 22.235-56 62-56" fill="#e7e8f4"/><path d="m244 163.5c0 4.418-1.165 11.784-3.433 20.513-13.307-.05-34.587-31.513-58.567-31.513-23.982 0-45.263 31.459-58.57 31.503-2.266-8.724-3.43-16.086-3.43-20.503 0-11.542 7.934-29.263 22.788-41.671 11.326 5.417 24.779 10.671 39.212 10.671s27.887-5.254 39.214-10.67c14.853 12.408 22.786 30.128 22.786 41.67" fill="#cccdde"/><path d="m257.9922 51.855c-.241 10.36-.94 16.222-4.719 16.878 1.115 6.663 1.72 13.82 1.72 21.506 0 3.761-2.224 7.145-6.198 10.101 3.982.024 6.198 2.815 6.198 10.337 0 120.572-32.679 32.323-72.989 32.323-40.311 0-72.99 88.227-72.99-32.323 0-7.529 2.22-10.32 6.208-10.34-3.98-2.956-6.208-6.34-6.208-10.098 0-7.686.606-14.843 1.72-21.506-3.778-.655-4.478-6.517-4.719-16.878-.255-11.009 5.977-37.885 6.999-37.885.827 0 3.643 19.282 4.643 31.258 12.307-27.426 36.502-41.228 64.347-41.228 27.843 0 52.04 13.8 64.346 41.226 1-11.976 3.817-31.256 4.643-31.256 1.022 0 7.255 26.876 6.999 37.885" fill="#fff"/><path d="m234.9932 70.9999992c-9.35 9.3330008-25.103 27-47.993 27-1.71 0-3.375-.1089992-5.005-.2939992-1.627.185-3.288.2939992-4.993.2939992-22.957 0-38.646-17.6669992-47.995-27-1.156-1.1529992-1-7.2029992-1-8 0-12.0309992 46.994-12 46.994-12h3.999s1.119 0 3 .0420008c1.881-.0420008 3-.0420008 3-.0420008h3.999s46.994-.0309992 46.994 12c0 .7970008.155 6.8470008-1 8" fill="#cccddf"/><path d="m134.0069 70.9999992c-1.155-1.1529992-1-7.2029992-1-8 0-12.0309992 46.993-12 46.993-12h4s46.993-.0309992 46.993 12c0 .7970008.156 6.8470008-1 8-9.349 9.3330008-25.102 27-47.992 27-22.956 0-38.644-17.6669992-47.994-27" fill="#3d3b7f"/><path d="m207 68c0 2.209-1.791 4-4 4s-4-1.791-4-4 1.791-4 4-4 4 1.791 4 4" fill="#fff"/><path d="m164 68c0 2.209-1.791 4-4 4s-4-1.791-4-4 1.791-4 4-4 4 1.791 4 4" fill="#fff"/><path d="m182 114.0557c28.321 0 52.856-4.416 64.961-12.046.012.72.039 1.428.039 2.16 0 12.867-29.102 20.83-65 20.83s-65-7.982-65-20.83c0-.735.027-1.446.039-2.17 12.105 7.63 36.64 12.056 64.961 12.056" fill="#cccddf"/><path d="m198 130c-.553 0-1-.448-1-1s.447-1 1-1c40.858 0 53.037-18.351 53.155-18.536.298-.465.914-.603 1.38-.307.466.295.605.911.311 1.377-.502.795-12.775 19.466-54.846 19.466" fill="#cccddf"/></g><g fill="#ebedfa" transform="translate(189.21 2.999942)"><path d="m91.79 43.8633585-.09 4.83c-.11 6.55-.2 13.56-.25 20.76v2.69c-.014.611-.125 1.215-.33 1.79-.415 1.162-1.207 2.151-2.25 2.81-.513.336-1.082.577-1.68.71-.298.073-.603.117-.91.13h-.5-6.23c-1.508.006-2.726 1.232-2.72 2.74v7.56c-3.333-3.253-6.52-6.353-9.56-9.3l-.04-.08c-.445-.429-1.043-.663-1.66-.65l-10.09.2-2.37.06h-.58-.52c-.284.008-.569-.009-.85-.05-1.094-.142-2.129-.574-3-1.25-.831-.647-1.49-1.489-1.92-2.45-.209-.456-.359-.937-.45-1.43-.049-.241-.083-.485-.1-.73v-.87c-.093-2.093-.197-4-.31-5.72h6.87 7.19 3.54.41.54c.369-.01.736-.043 1.1-.1.726-.101 1.443-.265 2.14-.49 4.166-1.384 7.269-4.896 8.13-9.2.125-.683.195-1.376.21-2.07v-.9-.83l-.18-12.92-.09-5.19c1.78.11 3.78.22 6 .32l3.61.15h.95l.77.07c.497.082.984.22 1.45.41 2.01.813 3.448 2.619 3.79 4.76.07 1.413.063 2.828-.02 4.24m4.79 4.83-.09-4.83-.1-2.36c.004-.902-.076-1.803-.24-2.69-.733-3.579-3.304-6.504-6.76-7.69-.782-.258-1.59-.422-2.41-.49h-1.16-.95l-3.61.15c-2.21.1-4.22.21-6 .32l-.24-14.77-.05-2.53v-1.24-.62-.71c-.462-5.25000002-4.522-9.46800002-9.75-10.13000002-.478-.084-.97.031-1.36.32-.321.227-.497.608-.46 1 .112.711.661 1.273 1.37 1.4 2.331.476 4.342 1.934 5.52 4 .63 1.123.974 2.38300002 1 3.67000002v1.1 1.24l-.05 2.53-.36 22.74-.15 12.82v.83.76c-.019.42-.069.838-.15 1.25-.198.825-.536 1.61-1 2.32-.923 1.469-2.343 2.558-4 3.07-.412.122-.833.209-1.26.26-.217.016-.433.016-.65 0h-.77-3.54-7.19l-14.74-.07c-.704-.003-1.38.274-1.88.77l-11.83 11.76v-9.87c-.005-1.515-1.235-2.74-2.75-2.74h-8.58c-.33 0-.6 0-.89-.05-2.363-.284-4.42-1.749-5.46-3.89-.256-.522-.447-1.072-.57-1.64-.041-.288-.069-.579-.08-.87v-.44-.57-4.81l-.1-9.49-.11-18.55v-4.5-2.22-1.11-.85c.318-3.33500002 2.859-6.02900002 6.17-6.54000002 1.263-.109 2.532-.153 3.8-.13l8-.1 14.82-.24c9.31-.17 17.4-.37 23.9-.6.812.028 1.491-.608 1.52-1.419v-.031c-.139-.744-.804-1.273-1.56-1.24-6.44-.23-14.58-.47-23.89-.6l-14.83-.24-8-.1c-1.484-.063-2.969-.037-4.45.08-5.511.732-9.809 5.133-10.41 10.66000002 0 .45-.06.94-.07 1.35v1.11 2.22 4.5l-.18 18.55v9.52 4.81.63.77c.038.513.104 1.024.2 1.53.211 1.014.547 1.998 1 2.93 1.827 3.839 5.489 6.48 9.71 7 .51.07 1.06.07 1.54.1h5.82v13.7c.008 1.514 1.242 2.733 2.754 2.725.724-.004 1.415-.293 1.926-.805l15.62-15.74h4c-.107 1.72-.207 3.624-.3 5.71v1c-.007.377.009.755.05 1.13.074.785.245 1.558.51 2.3.565 1.599 1.524 3.03 2.79 4.16 1.379 1.227 3.066 2.057 4.88 2.4.459.079.924.123 1.39.13h.64.58l2.37.06 9 .18c4.09 4.22 8.45 8.68 13.16 13.45 1.031 1.055 2.721 1.075 3.776.045.515-.504.806-1.194.804-1.915l.05-11.23h3.46.87c.605-.052 1.205-.16 1.79-.32 1.195-.277 2.332-.761 3.36-1.43 2.065-1.323 3.626-3.303 4.43-5.62.396-1.142.602-2.341.61-3.55v-2.72c-.02-7.2-.1-14.21-.21-20.76"/><path d="m29.9404 30.9233585c0-3.16-.12-6.25-.24-9.14 4.58.59 11.729 1 19.679 1.1v2.33 4.35c-.007.076-.047.145-.109.19l-.11.05c-.147.008-.294.008-.441 0h-.609l-4.721.17c-5.359.2-10.09.53-13.449.95zm18.18 4.18h.61.79c2.449-.137 4.529-1.844 5.14-4.22.103-.385.164-.781.179-1.18v-4.5-5-.05c-.016-1.48-1.229-2.667-2.709-2.65-.006 0-.013 0-.02 0-7.532.001-15.059.388-22.551 1.16v-.61l-.05-.91v-.46c-.012-.238-.039-.475-.08-.71-.299-1.77-1.44-3.285-3.059-4.06-.704-.33-1.473-.5-2.25-.5-.278.003-.555.023-.83.06l-.68.08c-.891.1-1.71.21-2.431.33-.199 0-.359.68-.34 1.44.021.76.161 1.21.34 1.24.721.12 1.54.23 2.431.33l.68.08c.202.012.402.038.599.08.23.059.445.164.631.31.362.291.569.735.56 1.2l-.18 3.37c-.24 5.08-.351 10.88-.36 16.69v.88.43c.261 2.916 2.223 5.4 5 6.33.532.177 1.082.294 1.639.35h.811.53c2.81-.06 5.529-.14 8.069-.26 4.122-.123 8.234-.456 12.321-1 .21 0 .36-.7.349-1.47-.009-.77-.16-1.25-.349-1.28-4.087-.543-8.199-.877-12.321-1-2.54-.11-5.259-.2-8.069-.26h-.53-.25c-.151-.026-.298-.066-.441-.12-.577-.215-1.023-.683-1.21-1.27-.049-.146-.083-.297-.099-.45v-.11c-.005-.06-.005-.12 0-.18v-.54-2.59c3.37.43 8.08.75 13.399.94z"/><path d="m33.0898 47.9136585c1.618 0 2.931 1.312 2.931 2.93s-1.313 2.93-2.931 2.93-2.93-1.312-2.93-2.93 1.312-2.93 2.93-2.93"/><path d="m46.4199 47.9136585c1.618 0 2.93 1.312 2.93 2.93s-1.312 2.93-2.93 2.93-2.93-1.312-2.93-2.93 1.312-2.93 2.93-2.93"/></g></g></svg>